G04 #@! TF.GenerationSoftware,KiCad,Pcbnew,8.0.6*
G04 #@! TF.CreationDate,2024-12-27T14:26:58+01:00*
G04 #@! TF.ProjectId,Minutka,4d696e75-746b-4612-9e6b-696361645f70,rev?*
G04 #@! TF.SameCoordinates,Original*
G04 #@! TF.FileFunction,Copper,L2,Inr*
G04 #@! TF.FilePolarity,Positive*
%FSLAX46Y46*%
G04 Gerber Fmt 4.6, Leading zero omitted, Abs format (unit mm)*
G04 Created by KiCad (PCBNEW 8.0.6) date 2024-12-27 14:26:58*
%MOMM*%
%LPD*%
G01*
G04 APERTURE LIST*
G04 Aperture macros list*
%AMRotRect*
0 Rectangle, with rotation*
0 The origin of the aperture is its center*
0 $1 length*
0 $2 width*
0 $3 Rotation angle, in degrees counterclockwise*
0 Add horizontal line*
21,1,$1,$2,0,0,$3*%
G04 Aperture macros list end*
G04 #@! TA.AperFunction,ComponentPad*
%ADD10RotRect,1.800000X1.800000X150.000000*%
G04 #@! TD*
G04 #@! TA.AperFunction,ComponentPad*
%ADD11C,1.800000*%
G04 #@! TD*
G04 #@! TA.AperFunction,ComponentPad*
%ADD12RotRect,1.800000X1.800000X315.000000*%
G04 #@! TD*
G04 #@! TA.AperFunction,ComponentPad*
%ADD13RotRect,1.800000X1.800000X240.000000*%
G04 #@! TD*
G04 #@! TA.AperFunction,ComponentPad*
%ADD14R,1.800000X1.800000*%
G04 #@! TD*
G04 #@! TA.AperFunction,ComponentPad*
%ADD15R,1.600000X1.600000*%
G04 #@! TD*
G04 #@! TA.AperFunction,ComponentPad*
%ADD16C,1.600000*%
G04 #@! TD*
G04 #@! TA.AperFunction,ComponentPad*
%ADD17RotRect,1.800000X1.800000X15.000000*%
G04 #@! TD*
G04 #@! TA.AperFunction,ComponentPad*
%ADD18RotRect,1.800000X1.800000X210.000000*%
G04 #@! TD*
G04 #@! TA.AperFunction,ComponentPad*
%ADD19RotRect,1.800000X1.800000X285.000000*%
G04 #@! TD*
G04 #@! TA.AperFunction,ComponentPad*
%ADD20RotRect,1.800000X1.800000X165.000000*%
G04 #@! TD*
G04 #@! TA.AperFunction,ComponentPad*
%ADD21RotRect,1.800000X1.800000X225.000000*%
G04 #@! TD*
G04 #@! TA.AperFunction,ComponentPad*
%ADD22C,1.000000*%
G04 #@! TD*
G04 #@! TA.AperFunction,ComponentPad*
%ADD23RotRect,1.800000X1.800000X30.000000*%
G04 #@! TD*
G04 #@! TA.AperFunction,ComponentPad*
%ADD24RotRect,1.800000X1.800000X195.000000*%
G04 #@! TD*
G04 #@! TA.AperFunction,ComponentPad*
%ADD25RotRect,1.800000X1.800000X300.000000*%
G04 #@! TD*
G04 #@! TA.AperFunction,ComponentPad*
%ADD26RotRect,1.800000X1.800000X345.000000*%
G04 #@! TD*
G04 #@! TA.AperFunction,ComponentPad*
%ADD27C,2.000000*%
G04 #@! TD*
G04 #@! TA.AperFunction,ComponentPad*
%ADD28RotRect,1.800000X1.800000X255.000000*%
G04 #@! TD*
G04 #@! TA.AperFunction,ComponentPad*
%ADD29RotRect,1.800000X1.800000X330.000000*%
G04 #@! TD*
G04 #@! TA.AperFunction,ComponentPad*
%ADD30RotRect,1.800000X1.800000X135.000000*%
G04 #@! TD*
G04 #@! TA.AperFunction,ViaPad*
%ADD31C,0.600000*%
G04 #@! TD*
G04 #@! TA.AperFunction,ViaPad*
%ADD32C,6.000000*%
G04 #@! TD*
G04 #@! TA.AperFunction,Conductor*
%ADD33C,0.400000*%
G04 #@! TD*
G04 APERTURE END LIST*
D10*
X177367177Y-115749290D03*
D11*
X175167472Y-114479290D03*
D12*
X127690546Y-77653979D03*
D11*
X129486597Y-79450030D03*
D13*
X165760447Y-72640824D03*
D11*
X164490447Y-74840529D03*
D14*
X181576304Y-99997920D03*
D11*
X179036304Y-99997920D03*
D15*
X146200000Y-127500000D03*
D16*
X153800000Y-127500000D03*
D17*
X119485510Y-108146180D03*
D11*
X121938962Y-107488780D03*
D18*
X177392289Y-84284720D03*
D11*
X175192584Y-85554720D03*
D19*
X141805045Y-69505345D03*
D11*
X142462445Y-71958797D03*
D20*
X180519677Y-108147432D03*
D11*
X178066225Y-107490032D03*
D14*
X150013150Y-68414566D03*
D11*
X150013150Y-70954566D03*
D21*
X172345872Y-77705545D03*
D11*
X170549821Y-79501596D03*
D22*
X147225000Y-82825000D03*
X147225000Y-85365000D03*
D14*
X118433664Y-100007179D03*
D11*
X120973664Y-100007179D03*
D23*
X122597444Y-115780636D03*
D11*
X124797149Y-114510636D03*
D24*
X180509297Y-91822963D03*
D11*
X178055845Y-92480363D03*
D14*
X148725000Y-100000000D03*
D11*
X151265000Y-100000000D03*
D25*
X134199774Y-72672169D03*
D11*
X135469774Y-74871874D03*
D26*
X119502084Y-91756294D03*
D11*
X121955536Y-92413694D03*
D27*
X134750000Y-112750000D03*
X141250000Y-112750000D03*
X134750000Y-117250000D03*
X141250000Y-117250000D03*
D15*
X148000000Y-112500000D03*
D16*
X150000000Y-112500000D03*
X152000000Y-112500000D03*
X148000000Y-117500000D03*
X150000000Y-117500000D03*
X152000000Y-117500000D03*
D28*
X158195977Y-69499485D03*
D11*
X157538577Y-71952937D03*
D29*
X122657374Y-84222850D03*
D11*
X124857079Y-85492850D03*
D30*
X172330322Y-122317492D03*
D11*
X170534271Y-120521441D03*
D27*
X158750000Y-112750000D03*
X165250000Y-112750000D03*
X158750000Y-117250000D03*
X165250000Y-117250000D03*
D31*
X169367500Y-93015000D03*
X143015000Y-110160000D03*
X155080000Y-92697500D03*
X143317500Y-97475000D03*
X137935000Y-92697500D03*
X163017500Y-112750000D03*
X172542500Y-110477500D03*
X150635000Y-102857500D03*
D32*
X158000000Y-77000000D03*
D31*
X176670000Y-117462500D03*
X172225000Y-108890000D03*
X118250000Y-101905000D03*
X135712500Y-111112500D03*
X175400000Y-94285000D03*
X180162500Y-109842500D03*
X173495000Y-79045000D03*
X155080000Y-87935000D03*
X136030000Y-89205000D03*
X165557500Y-102222500D03*
X160477500Y-110160000D03*
X143625000Y-77482500D03*
X160160000Y-84058897D03*
X167462500Y-73330000D03*
X148412500Y-68250000D03*
D32*
X140000000Y-122500000D03*
D31*
X119837500Y-90157500D03*
X132855000Y-73647500D03*
X171272500Y-123812500D03*
X126505000Y-78664432D03*
X181700000Y-101855000D03*
X153875000Y-102605000D03*
X150000000Y-92062500D03*
X176352500Y-82537500D03*
X124917500Y-109842500D03*
X154762500Y-94920000D03*
X159842500Y-69837500D03*
X119837500Y-110160000D03*
X179845000Y-89840000D03*
X121425000Y-114287500D03*
X121742500Y-85712500D03*
X130280000Y-102822500D03*
X165240000Y-125082500D03*
X139205000Y-94602500D03*
X140157500Y-69837500D03*
X157937500Y-95872500D03*
X158890000Y-99047500D03*
X150952500Y-95555000D03*
X143015000Y-113335000D03*
X165875000Y-105432500D03*
X148412500Y-108255000D03*
X168415000Y-113652500D03*
X156350000Y-105080000D03*
X122377500Y-95555000D03*
X132328425Y-108360097D03*
X124917500Y-88252500D03*
X136982500Y-105715000D03*
X147777500Y-72060000D03*
X161747500Y-93650000D03*
X162700000Y-76822500D03*
X162382500Y-95872500D03*
X176670000Y-100000000D03*
X162046275Y-100971225D03*
X176670000Y-101270000D03*
X174447500Y-106032500D03*
X172860000Y-105397500D03*
X169367500Y-98730000D03*
X168415000Y-100635000D03*
X143650000Y-99047500D03*
X174447500Y-103175000D03*
X163372500Y-126035000D03*
X151905000Y-95872500D03*
X152857500Y-106667500D03*
X153288355Y-97701596D03*
X158890000Y-104162500D03*
X174447500Y-101270000D03*
X141745000Y-95872500D03*
X154762500Y-100952500D03*
X162065000Y-106162500D03*
X170320000Y-112065000D03*
X131302500Y-95555000D03*
X169367500Y-94285000D03*
X124600000Y-102222500D03*
X128727500Y-93650000D03*
X161112500Y-104127500D03*
X160795000Y-106162500D03*
X130632500Y-108255000D03*
X164287500Y-77457500D03*
X139840000Y-78727500D03*
D33*
X137935000Y-112750000D02*
X141250000Y-112750000D01*
X150000000Y-94750000D02*
X150750000Y-94000000D01*
X164250000Y-111750000D02*
X164250000Y-98132500D01*
X163017500Y-112750000D02*
X165250000Y-112750000D01*
X143015000Y-110160000D02*
X150635000Y-110160000D01*
X150000000Y-95710000D02*
X150000000Y-94750000D01*
X137935000Y-97460000D02*
X148250000Y-97460000D01*
X143015000Y-110985000D02*
X143015000Y-110160000D01*
X152000000Y-111525000D02*
X152000000Y-112500000D01*
X164250000Y-98132500D02*
X169367500Y-93015000D01*
X165250000Y-112750000D02*
X164250000Y-111750000D01*
X158382500Y-112382500D02*
X158750000Y-112750000D01*
X141250000Y-112750000D02*
X143015000Y-110985000D01*
X150635000Y-110160000D02*
X152000000Y-111525000D01*
X150750000Y-94000000D02*
X153777500Y-94000000D01*
X153777500Y-94000000D02*
X155080000Y-92697500D01*
X158750000Y-112750000D02*
X163017500Y-112750000D01*
X152117500Y-112382500D02*
X158382500Y-112382500D01*
X152000000Y-112500000D02*
X152117500Y-112382500D01*
X137935000Y-92697500D02*
X137935000Y-112750000D01*
X148250000Y-97460000D02*
X150000000Y-95710000D01*
X134750000Y-112750000D02*
X137935000Y-112750000D01*
X149365000Y-115240000D02*
X150000000Y-114605000D01*
X150000000Y-114605000D02*
X150000000Y-112500000D01*
X130632500Y-113652500D02*
X132220000Y-115240000D01*
X130632500Y-108255000D02*
X130632500Y-113652500D01*
X132220000Y-115240000D02*
X149365000Y-115240000D01*
X149551397Y-83358897D02*
X144920000Y-78727500D01*
X144920000Y-78727500D02*
X139840000Y-78727500D01*
X163970000Y-77775000D02*
X163970000Y-80632500D01*
X161243603Y-83358897D02*
X149551397Y-83358897D01*
X164287500Y-77457500D02*
X163970000Y-77775000D01*
X163970000Y-80632500D02*
X161243603Y-83358897D01*
M02*
