M48
; DRILL file {KiCad 8.0.6} date 2024-12-27T14:27:03+0100
; FORMAT={-:-/ absolute / metric / decimal}
; #@! TF.CreationDate,2024-12-27T14:27:03+01:00
; #@! TF.GenerationSoftware,Kicad,Pcbnew,8.0.6
; #@! TF.FileFunction,Plated,1,4,PTH
FMAT,2
METRIC
; #@! TA.AperFunction,Plated,PTH,ViaDrill
T1C0.300
; #@! TA.AperFunction,Plated,PTH,ComponentDrill
T2C0.500
; #@! TA.AperFunction,Plated,PTH,ComponentDrill
T3C0.900
; #@! TA.AperFunction,Plated,PTH,ComponentDrill
T4C1.000
; #@! TA.AperFunction,Plated,PTH,ComponentDrill
T5C1.100
; #@! TA.AperFunction,Plated,PTH,ViaDrill
T6C3.000
%
G90
G05
T1
X118.25Y-101.905
X119.837Y-90.157
X119.837Y-110.16
X121.425Y-114.287
X121.742Y-85.712
X122.377Y-95.555
X124.6Y-102.222
X124.917Y-88.252
X124.917Y-109.843
X126.505Y-78.664
X128.727Y-93.65
X130.28Y-102.822
X130.632Y-108.255
X131.302Y-95.555
X132.328Y-108.36
X132.855Y-73.647
X135.713Y-111.112
X136.03Y-89.205
X136.982Y-105.715
X137.935Y-92.697
X139.205Y-94.602
X139.84Y-78.727
X140.157Y-69.837
X141.745Y-95.873
X143.015Y-110.16
X143.015Y-113.335
X143.317Y-97.475
X143.625Y-77.483
X143.65Y-99.047
X147.778Y-72.06
X148.412Y-68.25
X148.412Y-108.255
X150.0Y-92.062
X150.635Y-102.858
X150.952Y-95.555
X151.905Y-95.873
X152.857Y-106.667
X153.288Y-97.702
X153.875Y-102.605
X154.762Y-94.92
X154.762Y-100.953
X155.08Y-87.935
X155.08Y-92.697
X156.35Y-105.08
X157.938Y-95.873
X158.89Y-99.047
X158.89Y-104.162
X159.843Y-69.837
X160.16Y-84.059
X160.477Y-110.16
X160.795Y-106.162
X161.112Y-104.127
X161.748Y-93.65
X162.046Y-100.971
X162.065Y-106.162
X162.382Y-95.873
X162.7Y-76.822
X163.017Y-112.75
X163.373Y-126.035
X164.287Y-77.457
X165.24Y-125.082
X165.558Y-102.222
X165.875Y-105.432
X167.463Y-73.33
X168.415Y-100.635
X168.415Y-113.652
X169.367Y-93.015
X169.367Y-94.285
X169.367Y-98.73
X170.32Y-112.065
X171.272Y-123.812
X172.225Y-108.89
X172.542Y-110.477
X172.86Y-105.397
X173.495Y-79.045
X174.447Y-101.27
X174.447Y-103.175
X174.447Y-106.032
X175.4Y-94.285
X176.352Y-82.537
X176.67Y-100.0
X176.67Y-101.27
X176.67Y-117.462
X179.845Y-89.84
X180.162Y-109.843
X181.7Y-101.855
T2
X147.225Y-82.825
X147.225Y-85.365
T3
X118.434Y-100.007
X119.486Y-108.146
X119.502Y-91.756
X120.974Y-100.007
X121.939Y-107.489
X121.956Y-92.414
X122.597Y-115.781
X122.657Y-84.223
X124.797Y-114.511
X124.857Y-85.493
X127.691Y-77.654
X129.487Y-79.45
X134.2Y-72.672
X135.47Y-74.872
X141.805Y-69.505
X142.462Y-71.959
X148.725Y-100.0
X150.013Y-68.415
X150.013Y-70.955
X151.265Y-100.0
X157.539Y-71.953
X158.196Y-69.499
X164.49Y-74.841
X165.76Y-72.641
X170.534Y-120.521
X170.55Y-79.502
X172.33Y-122.317
X172.346Y-77.706
X175.167Y-114.479
X175.193Y-85.555
X177.367Y-115.749
X177.392Y-84.285
X178.056Y-92.48
X178.066Y-107.49
X179.036Y-99.998
X180.509Y-91.823
X180.52Y-108.147
X181.576Y-99.998
T4
X146.2Y-127.5
X148.0Y-112.5
X148.0Y-117.5
X150.0Y-112.5
X150.0Y-117.5
X152.0Y-112.5
X152.0Y-117.5
X153.8Y-127.5
T5
X134.75Y-112.75
X134.75Y-117.25
X141.25Y-112.75
X141.25Y-117.25
X158.75Y-112.75
X158.75Y-117.25
X165.25Y-112.75
X165.25Y-117.25
T6
X140.0Y-122.5
X158.0Y-77.0
M30
