G04 #@! TF.GenerationSoftware,KiCad,Pcbnew,8.0.6*
G04 #@! TF.CreationDate,2024-12-27T14:26:58+01:00*
G04 #@! TF.ProjectId,Minutka,4d696e75-746b-4612-9e6b-696361645f70,rev?*
G04 #@! TF.SameCoordinates,Original*
G04 #@! TF.FileFunction,Copper,L1,Top*
G04 #@! TF.FilePolarity,Positive*
%FSLAX46Y46*%
G04 Gerber Fmt 4.6, Leading zero omitted, Abs format (unit mm)*
G04 Created by KiCad (PCBNEW 8.0.6) date 2024-12-27 14:26:58*
%MOMM*%
%LPD*%
G01*
G04 APERTURE LIST*
G04 Aperture macros list*
%AMRoundRect*
0 Rectangle with rounded corners*
0 $1 Rounding radius*
0 $2 $3 $4 $5 $6 $7 $8 $9 X,Y pos of 4 corners*
0 Add a 4 corners polygon primitive as box body*
4,1,4,$2,$3,$4,$5,$6,$7,$8,$9,$2,$3,0*
0 Add four circle primitives for the rounded corners*
1,1,$1+$1,$2,$3*
1,1,$1+$1,$4,$5*
1,1,$1+$1,$6,$7*
1,1,$1+$1,$8,$9*
0 Add four rect primitives between the rounded corners*
20,1,$1+$1,$2,$3,$4,$5,0*
20,1,$1+$1,$4,$5,$6,$7,0*
20,1,$1+$1,$6,$7,$8,$9,0*
20,1,$1+$1,$8,$9,$2,$3,0*%
%AMRotRect*
0 Rectangle, with rotation*
0 The origin of the aperture is its center*
0 $1 length*
0 $2 width*
0 $3 Rotation angle, in degrees counterclockwise*
0 Add horizontal line*
21,1,$1,$2,0,0,$3*%
G04 Aperture macros list end*
G04 #@! TA.AperFunction,SMDPad,CuDef*
%ADD10RoundRect,0.250000X0.650000X-0.412500X0.650000X0.412500X-0.650000X0.412500X-0.650000X-0.412500X0*%
G04 #@! TD*
G04 #@! TA.AperFunction,SMDPad,CuDef*
%ADD11RoundRect,0.250000X-0.625000X0.400000X-0.625000X-0.400000X0.625000X-0.400000X0.625000X0.400000X0*%
G04 #@! TD*
G04 #@! TA.AperFunction,SMDPad,CuDef*
%ADD12RoundRect,0.250000X0.412500X0.650000X-0.412500X0.650000X-0.412500X-0.650000X0.412500X-0.650000X0*%
G04 #@! TD*
G04 #@! TA.AperFunction,SMDPad,CuDef*
%ADD13RoundRect,0.250000X-0.600000X0.400000X-0.600000X-0.400000X0.600000X-0.400000X0.600000X0.400000X0*%
G04 #@! TD*
G04 #@! TA.AperFunction,ComponentPad*
%ADD14RotRect,1.800000X1.800000X150.000000*%
G04 #@! TD*
G04 #@! TA.AperFunction,ComponentPad*
%ADD15C,1.800000*%
G04 #@! TD*
G04 #@! TA.AperFunction,ComponentPad*
%ADD16RotRect,1.800000X1.800000X315.000000*%
G04 #@! TD*
G04 #@! TA.AperFunction,SMDPad,CuDef*
%ADD17RoundRect,0.250000X0.400000X0.625000X-0.400000X0.625000X-0.400000X-0.625000X0.400000X-0.625000X0*%
G04 #@! TD*
G04 #@! TA.AperFunction,ComponentPad*
%ADD18RotRect,1.800000X1.800000X240.000000*%
G04 #@! TD*
G04 #@! TA.AperFunction,SMDPad,CuDef*
%ADD19RoundRect,0.250000X0.625000X-0.400000X0.625000X0.400000X-0.625000X0.400000X-0.625000X-0.400000X0*%
G04 #@! TD*
G04 #@! TA.AperFunction,SMDPad,CuDef*
%ADD20RoundRect,0.150000X0.150000X-0.587500X0.150000X0.587500X-0.150000X0.587500X-0.150000X-0.587500X0*%
G04 #@! TD*
G04 #@! TA.AperFunction,SMDPad,CuDef*
%ADD21RoundRect,0.250000X-0.400000X-0.625000X0.400000X-0.625000X0.400000X0.625000X-0.400000X0.625000X0*%
G04 #@! TD*
G04 #@! TA.AperFunction,ComponentPad*
%ADD22R,1.800000X1.800000*%
G04 #@! TD*
G04 #@! TA.AperFunction,ComponentPad*
%ADD23R,1.600000X1.600000*%
G04 #@! TD*
G04 #@! TA.AperFunction,ComponentPad*
%ADD24C,1.600000*%
G04 #@! TD*
G04 #@! TA.AperFunction,SMDPad,CuDef*
%ADD25RoundRect,0.150000X-0.725000X-0.150000X0.725000X-0.150000X0.725000X0.150000X-0.725000X0.150000X0*%
G04 #@! TD*
G04 #@! TA.AperFunction,ComponentPad*
%ADD26RotRect,1.800000X1.800000X15.000000*%
G04 #@! TD*
G04 #@! TA.AperFunction,SMDPad,CuDef*
%ADD27RoundRect,0.250000X-0.412500X-0.650000X0.412500X-0.650000X0.412500X0.650000X-0.412500X0.650000X0*%
G04 #@! TD*
G04 #@! TA.AperFunction,ComponentPad*
%ADD28RotRect,1.800000X1.800000X210.000000*%
G04 #@! TD*
G04 #@! TA.AperFunction,SMDPad,CuDef*
%ADD29RoundRect,0.250000X-0.400000X-0.600000X0.400000X-0.600000X0.400000X0.600000X-0.400000X0.600000X0*%
G04 #@! TD*
G04 #@! TA.AperFunction,SMDPad,CuDef*
%ADD30RoundRect,0.250000X-0.650000X0.412500X-0.650000X-0.412500X0.650000X-0.412500X0.650000X0.412500X0*%
G04 #@! TD*
G04 #@! TA.AperFunction,ComponentPad*
%ADD31RotRect,1.800000X1.800000X285.000000*%
G04 #@! TD*
G04 #@! TA.AperFunction,ComponentPad*
%ADD32RotRect,1.800000X1.800000X165.000000*%
G04 #@! TD*
G04 #@! TA.AperFunction,ComponentPad*
%ADD33RotRect,1.800000X1.800000X225.000000*%
G04 #@! TD*
G04 #@! TA.AperFunction,ComponentPad*
%ADD34C,1.000000*%
G04 #@! TD*
G04 #@! TA.AperFunction,ComponentPad*
%ADD35RotRect,1.800000X1.800000X30.000000*%
G04 #@! TD*
G04 #@! TA.AperFunction,ComponentPad*
%ADD36RotRect,1.800000X1.800000X195.000000*%
G04 #@! TD*
G04 #@! TA.AperFunction,SMDPad,CuDef*
%ADD37RoundRect,0.150000X-0.587500X-0.150000X0.587500X-0.150000X0.587500X0.150000X-0.587500X0.150000X0*%
G04 #@! TD*
G04 #@! TA.AperFunction,SMDPad,CuDef*
%ADD38RoundRect,0.150000X-0.150000X0.825000X-0.150000X-0.825000X0.150000X-0.825000X0.150000X0.825000X0*%
G04 #@! TD*
G04 #@! TA.AperFunction,ComponentPad*
%ADD39RotRect,1.800000X1.800000X300.000000*%
G04 #@! TD*
G04 #@! TA.AperFunction,SMDPad,CuDef*
%ADD40RoundRect,0.150000X0.725000X0.150000X-0.725000X0.150000X-0.725000X-0.150000X0.725000X-0.150000X0*%
G04 #@! TD*
G04 #@! TA.AperFunction,ComponentPad*
%ADD41RotRect,1.800000X1.800000X345.000000*%
G04 #@! TD*
G04 #@! TA.AperFunction,ComponentPad*
%ADD42C,2.000000*%
G04 #@! TD*
G04 #@! TA.AperFunction,ComponentPad*
%ADD43RotRect,1.800000X1.800000X255.000000*%
G04 #@! TD*
G04 #@! TA.AperFunction,ComponentPad*
%ADD44RotRect,1.800000X1.800000X330.000000*%
G04 #@! TD*
G04 #@! TA.AperFunction,SMDPad,CuDef*
%ADD45RoundRect,0.150000X0.150000X-0.725000X0.150000X0.725000X-0.150000X0.725000X-0.150000X-0.725000X0*%
G04 #@! TD*
G04 #@! TA.AperFunction,ComponentPad*
%ADD46RotRect,1.800000X1.800000X135.000000*%
G04 #@! TD*
G04 #@! TA.AperFunction,ViaPad*
%ADD47C,0.600000*%
G04 #@! TD*
G04 #@! TA.AperFunction,ViaPad*
%ADD48C,6.000000*%
G04 #@! TD*
G04 #@! TA.AperFunction,Conductor*
%ADD49C,0.400000*%
G04 #@! TD*
G04 #@! TA.AperFunction,Conductor*
%ADD50C,0.200000*%
G04 #@! TD*
G04 APERTURE END LIST*
D10*
X137935000Y-94577500D03*
X137935000Y-91452500D03*
D11*
X131267500Y-86067500D03*
X131267500Y-89167500D03*
D12*
X159500000Y-110007600D03*
X156375000Y-110007600D03*
D13*
X139205000Y-102060000D03*
X139205000Y-105560000D03*
D14*
X177367177Y-115749290D03*
D15*
X175167472Y-114479290D03*
D16*
X127690546Y-77653979D03*
D15*
X129486597Y-79450030D03*
D17*
X171235000Y-103492500D03*
X168135000Y-103492500D03*
D18*
X165760447Y-72640824D03*
D15*
X164490447Y-74840529D03*
D11*
X127140000Y-91465000D03*
X127140000Y-94565000D03*
D13*
X168415000Y-112220000D03*
X168415000Y-115720000D03*
D19*
X173495000Y-101550000D03*
X173495000Y-98450000D03*
D11*
X133807500Y-87655000D03*
X133807500Y-90755000D03*
X165240000Y-120357500D03*
X165240000Y-123457500D03*
D20*
X170005000Y-107922500D03*
X171905000Y-107922500D03*
X170955000Y-106047500D03*
D21*
X160515000Y-93650000D03*
X163615000Y-93650000D03*
D22*
X181576304Y-99997920D03*
D15*
X179036304Y-99997920D03*
D11*
X165240000Y-85750000D03*
X165240000Y-88850000D03*
D23*
X146200000Y-127500000D03*
D24*
X153800000Y-127500000D03*
D25*
X130280000Y-93015000D03*
X130280000Y-94285000D03*
X130280000Y-95555000D03*
X130280000Y-96825000D03*
X130280000Y-98095000D03*
X130280000Y-99365000D03*
X130280000Y-100635000D03*
X130280000Y-101905000D03*
X135430000Y-101905000D03*
X135430000Y-100635000D03*
X135430000Y-99365000D03*
X135430000Y-98095000D03*
X135430000Y-96825000D03*
X135430000Y-95555000D03*
X135430000Y-94285000D03*
X135430000Y-93015000D03*
D19*
X133490000Y-107265000D03*
X133490000Y-104165000D03*
D26*
X119485510Y-108146180D03*
D15*
X121938962Y-107488780D03*
D12*
X176327500Y-96190000D03*
X173202500Y-96190000D03*
D27*
X136690000Y-109842500D03*
X139815000Y-109842500D03*
D13*
X131585000Y-112220000D03*
X131585000Y-115720000D03*
D27*
X126530000Y-109842500D03*
X129655000Y-109842500D03*
D21*
X147180000Y-104445000D03*
X150280000Y-104445000D03*
X124955000Y-96825000D03*
X128055000Y-96825000D03*
D28*
X177392289Y-84284720D03*
D15*
X175192584Y-85554720D03*
D13*
X165875000Y-104282500D03*
X165875000Y-107782500D03*
D19*
X127775000Y-105995000D03*
X127775000Y-102895000D03*
D27*
X161455000Y-110058400D03*
X164580000Y-110058400D03*
D29*
X146980000Y-107620000D03*
X150480000Y-107620000D03*
D30*
X144920000Y-77482500D03*
X144920000Y-80607500D03*
D31*
X141805045Y-69505345D03*
D15*
X142462445Y-71958797D03*
D32*
X180519677Y-108147432D03*
D15*
X178066225Y-107490032D03*
D19*
X138570000Y-99962500D03*
X138570000Y-96862500D03*
D21*
X141782500Y-107620000D03*
X144882500Y-107620000D03*
X124955000Y-100635000D03*
X128055000Y-100635000D03*
D13*
X141745000Y-102060000D03*
X141745000Y-105560000D03*
D21*
X173215000Y-103810000D03*
X176315000Y-103810000D03*
D22*
X150013150Y-68414566D03*
D15*
X150013150Y-70954566D03*
D33*
X172345872Y-77705545D03*
D15*
X170549821Y-79501596D03*
D34*
X147225000Y-82825000D03*
X147225000Y-85365000D03*
D22*
X118433664Y-100007179D03*
D15*
X120973664Y-100007179D03*
D35*
X122597444Y-115780636D03*
D15*
X124797149Y-114510636D03*
D21*
X160515000Y-99047500D03*
X163615000Y-99047500D03*
D36*
X180509297Y-91822963D03*
D15*
X178055845Y-92480363D03*
D19*
X136030000Y-107265000D03*
X136030000Y-104165000D03*
D12*
X156325000Y-95000000D03*
X153200000Y-95000000D03*
D11*
X170320000Y-85750000D03*
X170320000Y-88850000D03*
D17*
X157582500Y-99047500D03*
X154482500Y-99047500D03*
D21*
X131622500Y-109842500D03*
X134722500Y-109842500D03*
D37*
X141442500Y-97145000D03*
X141442500Y-99045000D03*
X143317500Y-98095000D03*
D10*
X173495000Y-93625000D03*
X173495000Y-90500000D03*
D11*
X167780000Y-85750000D03*
X167780000Y-88850000D03*
D22*
X148725000Y-100000000D03*
D15*
X151265000Y-100000000D03*
D38*
X162700000Y-102605000D03*
X161430000Y-102605000D03*
X160160000Y-102605000D03*
X158890000Y-102605000D03*
X157620000Y-102605000D03*
X156350000Y-102605000D03*
X155080000Y-102605000D03*
X155080000Y-107555000D03*
X156350000Y-107555000D03*
X157620000Y-107555000D03*
X158890000Y-107555000D03*
X160160000Y-107555000D03*
X161430000Y-107555000D03*
X162700000Y-107555000D03*
D39*
X134199774Y-72672169D03*
D15*
X135469774Y-74871874D03*
D40*
X158290000Y-93015000D03*
X158290000Y-91745000D03*
X158290000Y-90475000D03*
X158290000Y-89205000D03*
X158290000Y-87935000D03*
X158290000Y-86665000D03*
X158290000Y-85395000D03*
X158290000Y-84125000D03*
X153140000Y-84125000D03*
X153140000Y-85395000D03*
X153140000Y-86665000D03*
X153140000Y-87935000D03*
X153140000Y-89205000D03*
X153140000Y-90475000D03*
X153140000Y-91745000D03*
X153140000Y-93015000D03*
D27*
X136055000Y-87617500D03*
X139180000Y-87617500D03*
D17*
X166472500Y-127305000D03*
X163372500Y-127305000D03*
D30*
X142380000Y-77482500D03*
X142380000Y-80607500D03*
D19*
X152857500Y-108217500D03*
X152857500Y-105117500D03*
D21*
X160515000Y-96507500D03*
X163615000Y-96507500D03*
D11*
X128727500Y-86067500D03*
X128727500Y-89167500D03*
D13*
X144285000Y-102060000D03*
X144285000Y-105560000D03*
D25*
X165840000Y-92380000D03*
X165840000Y-93650000D03*
X165840000Y-94920000D03*
X165840000Y-96190000D03*
X165840000Y-97460000D03*
X165840000Y-98730000D03*
X165840000Y-100000000D03*
X165840000Y-101270000D03*
X170990000Y-101270000D03*
X170990000Y-100000000D03*
X170990000Y-98730000D03*
X170990000Y-97460000D03*
X170990000Y-96190000D03*
X170990000Y-94920000D03*
X170990000Y-93650000D03*
X170990000Y-92380000D03*
D41*
X119502084Y-91756294D03*
D15*
X121955536Y-92413694D03*
D42*
X134750000Y-112750000D03*
X141250000Y-112750000D03*
X134750000Y-117250000D03*
X141250000Y-117250000D03*
D11*
X150000000Y-82892500D03*
X150000000Y-85992500D03*
D23*
X148000000Y-112500000D03*
D24*
X150000000Y-112500000D03*
X152000000Y-112500000D03*
X148000000Y-117500000D03*
X150000000Y-117500000D03*
X152000000Y-117500000D03*
D21*
X168135000Y-110160000D03*
X171235000Y-110160000D03*
X152895000Y-82220000D03*
X155995000Y-82220000D03*
D43*
X158195977Y-69499485D03*
D15*
X157538577Y-71952937D03*
D21*
X160515000Y-91110000D03*
X163615000Y-91110000D03*
D44*
X122657374Y-84222850D03*
D15*
X124857079Y-85492850D03*
D45*
X141110000Y-93685000D03*
X142380000Y-93685000D03*
X143650000Y-93685000D03*
X144920000Y-93685000D03*
X146190000Y-93685000D03*
X147460000Y-93685000D03*
X148730000Y-93685000D03*
X150000000Y-93685000D03*
X150000000Y-88535000D03*
X148730000Y-88535000D03*
X147460000Y-88535000D03*
X146190000Y-88535000D03*
X144920000Y-88535000D03*
X143650000Y-88535000D03*
X142380000Y-88535000D03*
X141110000Y-88535000D03*
D46*
X172330322Y-122317492D03*
D15*
X170534271Y-120521441D03*
D42*
X158750000Y-112750000D03*
X165250000Y-112750000D03*
X158750000Y-117250000D03*
X165250000Y-117250000D03*
D47*
X169367500Y-93015000D03*
X143015000Y-110160000D03*
X155080000Y-92697500D03*
X143317500Y-97475000D03*
X137935000Y-92697500D03*
X163017500Y-112750000D03*
X172542500Y-110477500D03*
X150635000Y-102857500D03*
D48*
X158000000Y-77000000D03*
D47*
X176670000Y-117462500D03*
X172225000Y-108890000D03*
X118250000Y-101905000D03*
X135712500Y-111112500D03*
X175400000Y-94285000D03*
X180162500Y-109842500D03*
X173495000Y-79045000D03*
X155080000Y-87935000D03*
X136030000Y-89205000D03*
X165557500Y-102222500D03*
X160477500Y-110160000D03*
X143625000Y-77482500D03*
X160160000Y-84058897D03*
X167462500Y-73330000D03*
X148412500Y-68250000D03*
D48*
X140000000Y-122500000D03*
D47*
X119837500Y-90157500D03*
X132855000Y-73647500D03*
X171272500Y-123812500D03*
X126505000Y-78664432D03*
X181700000Y-101855000D03*
X153875000Y-102605000D03*
X150000000Y-92062500D03*
X176352500Y-82537500D03*
X124917500Y-109842500D03*
X154762500Y-94920000D03*
X159842500Y-69837500D03*
X119837500Y-110160000D03*
X179845000Y-89840000D03*
X121425000Y-114287500D03*
X121742500Y-85712500D03*
X130280000Y-102822500D03*
X165240000Y-125082500D03*
X139205000Y-94602500D03*
X140157500Y-69837500D03*
X157937500Y-95872500D03*
X158890000Y-99047500D03*
X150952500Y-95555000D03*
X143015000Y-113335000D03*
X165875000Y-105432500D03*
X148412500Y-108255000D03*
X168415000Y-113652500D03*
X156350000Y-105080000D03*
X122377500Y-95555000D03*
X132328425Y-108360097D03*
X124917500Y-88252500D03*
X136982500Y-105715000D03*
X147777500Y-72060000D03*
X161747500Y-93650000D03*
X162700000Y-76822500D03*
X162382500Y-95872500D03*
X176670000Y-100000000D03*
X162046275Y-100971225D03*
X176670000Y-101270000D03*
X174447500Y-106032500D03*
X172860000Y-105397500D03*
X169367500Y-98730000D03*
X168415000Y-100635000D03*
X143650000Y-99047500D03*
X174447500Y-103175000D03*
X163372500Y-126035000D03*
X151905000Y-95872500D03*
X152857500Y-106667500D03*
X153288355Y-97701596D03*
X158890000Y-104162500D03*
X174447500Y-101270000D03*
X141745000Y-95872500D03*
X154762500Y-100952500D03*
X162065000Y-106162500D03*
X170320000Y-112065000D03*
X131302500Y-95555000D03*
X169367500Y-94285000D03*
X124600000Y-102222500D03*
X128727500Y-93650000D03*
X161112500Y-104127500D03*
X160795000Y-106162500D03*
X130632500Y-108255000D03*
X164287500Y-77457500D03*
X139840000Y-78727500D03*
D49*
X164580000Y-111187500D02*
X163017500Y-112750000D01*
X153140000Y-94940000D02*
X153200000Y-95000000D01*
X153140000Y-93015000D02*
X154762500Y-93015000D01*
X139180000Y-90207500D02*
X137935000Y-91452500D01*
X143332500Y-97460000D02*
X143317500Y-97475000D01*
X141745000Y-109525000D02*
X142380000Y-109525000D01*
X139815000Y-109842500D02*
X140132500Y-109525000D01*
X142380000Y-109525000D02*
X143015000Y-110160000D01*
X151265000Y-98735000D02*
X151265000Y-100000000D01*
X153140000Y-93015000D02*
X153140000Y-94940000D01*
X135430000Y-93015000D02*
X137617500Y-93015000D01*
X141782500Y-107620000D02*
X141782500Y-109487500D01*
X154762500Y-93015000D02*
X155080000Y-92697500D01*
X143967500Y-111112500D02*
X143015000Y-110160000D01*
X164580000Y-110160000D02*
X162700000Y-108280000D01*
X162700000Y-108280000D02*
X162700000Y-107555000D01*
X146200000Y-127500000D02*
X146200000Y-119695000D01*
X141110000Y-88535000D02*
X140192500Y-87617500D01*
X170002500Y-92380000D02*
X169367500Y-93015000D01*
X141782500Y-109487500D02*
X141745000Y-109525000D01*
X146200000Y-119695000D02*
X143967500Y-117462500D01*
X143967500Y-117462500D02*
X143967500Y-111112500D01*
X172870000Y-90500000D02*
X170990000Y-92380000D01*
X173495000Y-90500000D02*
X172870000Y-90500000D01*
X140132500Y-109525000D02*
X141745000Y-109525000D01*
X137935000Y-92697500D02*
X137935000Y-91452500D01*
X139180000Y-87617500D02*
X139180000Y-90207500D01*
X153200000Y-96800000D02*
X151265000Y-98735000D01*
X153200000Y-95000000D02*
X153200000Y-96800000D01*
X137617500Y-93015000D02*
X137935000Y-92697500D01*
X140192500Y-87617500D02*
X139180000Y-87617500D01*
X164580000Y-110160000D02*
X164580000Y-111187500D01*
X143317500Y-98095000D02*
X143317500Y-97475000D01*
X170990000Y-92380000D02*
X170002500Y-92380000D01*
X163015000Y-112747500D02*
X163017500Y-112750000D01*
X172542500Y-110477500D02*
X173177500Y-109842500D01*
X150280000Y-103212500D02*
X150635000Y-102857500D01*
X150280000Y-104445000D02*
X150280000Y-103212500D01*
X173177500Y-106667500D02*
X172542500Y-106032500D01*
X173177500Y-109842500D02*
X173177500Y-106667500D01*
X172527500Y-106047500D02*
X170955000Y-106047500D01*
X172542500Y-106032500D02*
X172527500Y-106047500D01*
X155080000Y-102605000D02*
X155080000Y-102540000D01*
X122597444Y-115459944D02*
X121425000Y-114287500D01*
X153140000Y-87935000D02*
X155080000Y-87935000D01*
X160477500Y-110160000D02*
X159205000Y-110160000D01*
X180519677Y-108147432D02*
X180519677Y-109485323D01*
X119502084Y-90492916D02*
X119837500Y-90157500D01*
X127690546Y-77653979D02*
X127515453Y-77653979D01*
X133224443Y-73647500D02*
X132855000Y-73647500D01*
X148577066Y-68414566D02*
X148412500Y-68250000D01*
X142380000Y-77482500D02*
X143625000Y-77482500D01*
X144920000Y-77482500D02*
X143625000Y-77482500D01*
X136055000Y-89180000D02*
X136030000Y-89205000D01*
X173495000Y-78854673D02*
X173495000Y-79045000D01*
X140489655Y-69505345D02*
X140157500Y-69837500D01*
X174740000Y-93625000D02*
X173495000Y-93625000D01*
X154762500Y-94920000D02*
X156245000Y-94920000D01*
X165875000Y-101905000D02*
X165557500Y-102222500D01*
X122657374Y-84222850D02*
X121742500Y-85137724D01*
X124917500Y-109842500D02*
X126530000Y-109842500D01*
X121742500Y-85137724D02*
X121742500Y-85712500D01*
X141805045Y-69505345D02*
X140489655Y-69505345D01*
X119485510Y-109808010D02*
X119837500Y-110160000D01*
X180509297Y-90504297D02*
X179845000Y-89840000D01*
X139202500Y-94600000D02*
X139205000Y-94602500D01*
X176670000Y-116446467D02*
X176670000Y-117462500D01*
X136055000Y-87617500D02*
X136055000Y-89180000D01*
X143650000Y-77457500D02*
X143625000Y-77482500D01*
X159504485Y-69499485D02*
X159842500Y-69837500D01*
X176327500Y-96190000D02*
X176327500Y-95212500D01*
X155080000Y-102605000D02*
X153875000Y-102605000D01*
X126505000Y-78727500D02*
X126505000Y-78664432D01*
X171905000Y-108570000D02*
X171905000Y-107922500D01*
X150000000Y-92062500D02*
X150000000Y-93685000D01*
X171272500Y-123375314D02*
X171272500Y-123812500D01*
X180509297Y-91822963D02*
X180509297Y-90504297D01*
X166449623Y-73330000D02*
X167462500Y-73330000D01*
X134722500Y-110122500D02*
X135712500Y-111112500D01*
X176352500Y-83244931D02*
X176352500Y-82537500D01*
X130315000Y-102857500D02*
X130280000Y-102822500D01*
X122534260Y-115843820D02*
X122597444Y-115780636D01*
X122485787Y-115843820D02*
X122534260Y-115843820D01*
X161115000Y-110160000D02*
X160477500Y-110160000D01*
X165840000Y-101270000D02*
X165875000Y-101270000D01*
X134199774Y-72672169D02*
X133224443Y-73647500D01*
X122597444Y-115780636D02*
X122597444Y-115459944D01*
X180519677Y-109485323D02*
X180162500Y-109842500D01*
X172345872Y-77705545D02*
X173495000Y-78854673D01*
X172330322Y-122317492D02*
X171272500Y-123375314D01*
X156245000Y-94920000D02*
X156325000Y-95000000D01*
X137935000Y-94600000D02*
X139202500Y-94600000D01*
X118433664Y-100007179D02*
X118433664Y-101721336D01*
X177367177Y-115749290D02*
X176670000Y-116446467D01*
X165240000Y-123457500D02*
X165240000Y-125082500D01*
X165875000Y-101270000D02*
X165875000Y-101905000D01*
X181750000Y-101905000D02*
X181700000Y-101855000D01*
X127515453Y-77653979D02*
X126505000Y-78664432D01*
X119502084Y-91756294D02*
X119502084Y-90492916D01*
X181576304Y-99997920D02*
X181700000Y-100121616D01*
D50*
X158290000Y-84125000D02*
X158255000Y-84125000D01*
D49*
X158255000Y-84125000D02*
X160160000Y-84125000D01*
X176327500Y-95212500D02*
X175400000Y-94285000D01*
X181700000Y-100121616D02*
X181700000Y-101855000D01*
X130280000Y-101905000D02*
X130280000Y-102822500D01*
X175400000Y-94285000D02*
X174740000Y-93625000D01*
X119485510Y-108146180D02*
X119485510Y-109808010D01*
X165760447Y-72640824D02*
X166449623Y-73330000D01*
X158195977Y-69499485D02*
X159504485Y-69499485D01*
X160160000Y-84125000D02*
X160160000Y-84058897D01*
X172225000Y-108890000D02*
X171905000Y-108570000D01*
X136030000Y-87642500D02*
X136055000Y-87617500D01*
X118433664Y-101721336D02*
X118250000Y-101905000D01*
X177392289Y-84284720D02*
X176352500Y-83244931D01*
X150013150Y-68414566D02*
X148577066Y-68414566D01*
X134722500Y-109842500D02*
X134722500Y-110122500D01*
D50*
X155995000Y-82220000D02*
X155995000Y-84162500D01*
X155995000Y-84162500D02*
X154762500Y-85395000D01*
X152502500Y-85395000D02*
X150000000Y-82892500D01*
X154762500Y-85395000D02*
X153140000Y-85395000D01*
X153140000Y-85395000D02*
X152502500Y-85395000D01*
X151232500Y-85992500D02*
X150000000Y-85992500D01*
X147225000Y-82825000D02*
X145872500Y-82825000D01*
X153140000Y-86665000D02*
X151905000Y-86665000D01*
X146507500Y-86665000D02*
X145872500Y-86030000D01*
X143302500Y-82825000D02*
X142380000Y-81902500D01*
X142380000Y-81902500D02*
X142380000Y-80607500D01*
X148412500Y-86665000D02*
X149085000Y-85992500D01*
X145872500Y-82825000D02*
X143302500Y-82825000D01*
X145872500Y-86030000D02*
X145872500Y-82825000D01*
X148412500Y-86665000D02*
X146507500Y-86665000D01*
X151905000Y-86665000D02*
X151232500Y-85992500D01*
X149085000Y-85992500D02*
X150000000Y-85992500D01*
X135102500Y-108255000D02*
X134125000Y-108255000D01*
X132537500Y-109842500D02*
X131622500Y-109842500D01*
X134125000Y-108255000D02*
X132537500Y-109842500D01*
X135430000Y-94285000D02*
X134442500Y-94285000D01*
X134442500Y-94285000D02*
X133172500Y-95555000D01*
X136690000Y-109842500D02*
X135102500Y-108255000D01*
X133172500Y-95555000D02*
X133172500Y-100000000D01*
X134750000Y-117250000D02*
X141250000Y-117250000D01*
X129655000Y-113790000D02*
X129655000Y-109842500D01*
X132855000Y-102857500D02*
X131622500Y-104090000D01*
X131585000Y-115720000D02*
X133220000Y-115720000D01*
X132855000Y-100317500D02*
X132855000Y-102857500D01*
X133172500Y-100000000D02*
X132855000Y-100317500D01*
X131585000Y-115720000D02*
X129655000Y-113790000D01*
X133220000Y-115720000D02*
X134750000Y-117250000D01*
X129655000Y-109842500D02*
X131622500Y-109842500D01*
X131622500Y-104090000D02*
X131622500Y-109842500D01*
X168415000Y-115720000D02*
X166030000Y-115720000D01*
X162700000Y-117250000D02*
X165250000Y-117250000D01*
X156667500Y-115167500D02*
X158750000Y-117250000D01*
X156375000Y-111772500D02*
X156667500Y-112065000D01*
X155080000Y-107555000D02*
X156350000Y-107555000D01*
X164007500Y-120357500D02*
X162700000Y-119050000D01*
X156375000Y-110160000D02*
X156375000Y-111772500D01*
X156375000Y-107962500D02*
X156375000Y-110160000D01*
X165240000Y-120357500D02*
X164007500Y-120357500D01*
X156667500Y-112065000D02*
X156667500Y-115167500D01*
X166030000Y-115720000D02*
X165250000Y-116500000D01*
X156350000Y-107555000D02*
X156350000Y-107937500D01*
X165250000Y-116500000D02*
X165250000Y-117250000D01*
X156350000Y-107937500D02*
X156375000Y-107962500D01*
X158750000Y-117250000D02*
X162700000Y-117250000D01*
X162700000Y-119050000D02*
X162700000Y-117250000D01*
X173175000Y-94920000D02*
X170990000Y-94920000D01*
X173495000Y-98450000D02*
X173495000Y-97777500D01*
X173815000Y-96190000D02*
X173815000Y-95560000D01*
X173495000Y-97777500D02*
X173815000Y-97457500D01*
X173815000Y-95560000D02*
X173175000Y-94920000D01*
X173815000Y-97457500D02*
X173815000Y-96190000D01*
X150952500Y-91745000D02*
X150952500Y-95555000D01*
X145996593Y-105839093D02*
X146190000Y-106032500D01*
X131585000Y-112700000D02*
X133172500Y-114287500D01*
X150317500Y-91110000D02*
X150952500Y-91745000D01*
X158890000Y-96825000D02*
X157937500Y-95872500D01*
X165875000Y-104282500D02*
X165875000Y-105432500D01*
X147460000Y-88535000D02*
X147460000Y-89840000D01*
X150635000Y-95555000D02*
X146907500Y-99282500D01*
X146907500Y-101753186D02*
X145996593Y-102664093D01*
X147460000Y-106032500D02*
X148412500Y-106985000D01*
X150952500Y-95555000D02*
X150635000Y-95555000D01*
X147460000Y-89840000D02*
X148730000Y-91110000D01*
X158890000Y-99047500D02*
X158890000Y-96825000D01*
X157582500Y-99047500D02*
X158890000Y-99047500D01*
X146190000Y-106032500D02*
X147460000Y-106032500D01*
X133172500Y-114287500D02*
X142062500Y-114287500D01*
X131585000Y-112220000D02*
X131585000Y-112700000D01*
X146907500Y-99282500D02*
X146907500Y-101753186D01*
X142062500Y-114287500D02*
X143015000Y-113335000D01*
X145996593Y-102664093D02*
X145996593Y-105839093D01*
X148412500Y-106985000D02*
X148412500Y-108255000D01*
X148730000Y-91110000D02*
X150317500Y-91110000D01*
X163905000Y-105162500D02*
X165875000Y-107132500D01*
X165875000Y-107132500D02*
X165875000Y-107782500D01*
X157620000Y-106032500D02*
X158490000Y-105162500D01*
X157620000Y-107555000D02*
X157620000Y-106032500D01*
X158490000Y-105162500D02*
X163905000Y-105162500D01*
X147180000Y-104445000D02*
X148600000Y-103025000D01*
X148600000Y-103025000D02*
X148600000Y-100000000D01*
X146825000Y-107620000D02*
X145555000Y-106350000D01*
X145555000Y-102540000D02*
X146507500Y-101587500D01*
X146507500Y-101587500D02*
X146507500Y-95237500D01*
X146507500Y-95237500D02*
X146190000Y-94920000D01*
X145555000Y-106350000D02*
X145555000Y-102540000D01*
X146980000Y-107620000D02*
X146825000Y-107620000D01*
X146190000Y-94920000D02*
X146190000Y-93685000D01*
X141745000Y-101587500D02*
X142697500Y-100635000D01*
X144920000Y-100635000D02*
X145237500Y-100317500D01*
X142697500Y-100635000D02*
X144920000Y-100635000D01*
X141745000Y-102060000D02*
X141745000Y-101587500D01*
X145237500Y-100317500D02*
X145237500Y-96190000D01*
X143650000Y-94602500D02*
X143650000Y-93685000D01*
X145237500Y-96190000D02*
X143650000Y-94602500D01*
X141110000Y-100000000D02*
X144285000Y-100000000D01*
X144285000Y-100000000D02*
X144602500Y-99682500D01*
X144602500Y-97142500D02*
X142380000Y-94920000D01*
X142380000Y-94920000D02*
X142380000Y-93685000D01*
X139205000Y-101905000D02*
X141110000Y-100000000D01*
X144602500Y-99682500D02*
X144602500Y-97142500D01*
X139205000Y-102060000D02*
X139205000Y-101905000D01*
X144285000Y-102060000D02*
X145872500Y-100472500D01*
X145872500Y-95872500D02*
X144920000Y-94920000D01*
X145872500Y-100472500D02*
X145872500Y-95872500D01*
X144920000Y-94920000D02*
X144920000Y-93685000D01*
X168415000Y-112220000D02*
X168415000Y-113652500D01*
X156350000Y-105080000D02*
X153810000Y-105080000D01*
X156350000Y-105080000D02*
X156350000Y-102605000D01*
X156350000Y-102605000D02*
X157620000Y-102605000D01*
X168288270Y-125844230D02*
X166827500Y-127305000D01*
X168288270Y-122582500D02*
X168288270Y-125844230D01*
X170349329Y-120521441D02*
X168288270Y-122582500D01*
X170534271Y-120521441D02*
X170349329Y-120521441D01*
X166827500Y-127305000D02*
X166472500Y-127305000D01*
X122377500Y-95555000D02*
X123050000Y-95555000D01*
X123050000Y-95555000D02*
X127140000Y-91465000D01*
X127775000Y-105995000D02*
X127737500Y-106032500D01*
X123395242Y-106032500D02*
X121938962Y-107488780D01*
X127737500Y-106032500D02*
X123395242Y-106032500D01*
X124955000Y-96825000D02*
X124155843Y-96825000D01*
X124155843Y-96825000D02*
X120973664Y-100007179D01*
X126505000Y-98412500D02*
X126505000Y-96190000D01*
X125552500Y-95237500D02*
X124600000Y-95237500D01*
X121425000Y-93967500D02*
X121425000Y-95872500D01*
X124600000Y-95237500D02*
X123330000Y-96507500D01*
X123330000Y-96507500D02*
X122060000Y-96507500D01*
X121955536Y-92413694D02*
X121955536Y-93436964D01*
X124955000Y-99962500D02*
X126505000Y-98412500D01*
X122060000Y-96507500D02*
X121425000Y-95872500D01*
X121955536Y-93436964D02*
X121425000Y-93967500D01*
X124955000Y-100635000D02*
X124955000Y-99962500D01*
X126505000Y-96190000D02*
X125552500Y-95237500D01*
X133423522Y-107265000D02*
X133490000Y-107265000D01*
X124857079Y-85492850D02*
X124917500Y-85553271D01*
X132328425Y-108360097D02*
X133423522Y-107265000D01*
X124917500Y-85553271D02*
X124917500Y-88252500D01*
X128727500Y-82306728D02*
X128727500Y-86067500D01*
X129486597Y-81547631D02*
X128727500Y-82306728D01*
X129486597Y-79450030D02*
X129486597Y-81547631D01*
X135469774Y-74871874D02*
X131267500Y-79074148D01*
X131267500Y-79074148D02*
X131267500Y-86067500D01*
X136030000Y-85432500D02*
X133807500Y-87655000D01*
X142462445Y-71958797D02*
X142462445Y-73565055D01*
X142499429Y-71995781D02*
X142462445Y-71958797D01*
X136030000Y-79997500D02*
X136030000Y-85432500D01*
X142462445Y-73565055D02*
X136030000Y-79997500D01*
X142499429Y-72090298D02*
X142499429Y-71995781D01*
X136030000Y-106667500D02*
X136030000Y-107265000D01*
X150013150Y-70954566D02*
X148882934Y-70954566D01*
X148882934Y-70954566D02*
X147777500Y-72060000D01*
X136982500Y-105715000D02*
X136030000Y-106667500D01*
X162700000Y-74700000D02*
X159952937Y-71952937D01*
X161747500Y-93650000D02*
X160515000Y-93650000D01*
X162700000Y-76822500D02*
X162700000Y-74700000D01*
X159952937Y-71952937D02*
X157538577Y-71952937D01*
X164490447Y-74840529D02*
X165240000Y-75590082D01*
X165240000Y-75590082D02*
X165240000Y-85750000D01*
X167780000Y-82220000D02*
X170498404Y-79501596D01*
X167780000Y-85750000D02*
X167780000Y-82220000D01*
X170498404Y-79501596D02*
X170549821Y-79501596D01*
X175188894Y-85558410D02*
X175192584Y-85554720D01*
X170511590Y-85558410D02*
X175188894Y-85558410D01*
X170320000Y-85750000D02*
X170511590Y-85558410D01*
X173495000Y-87300000D02*
X178055845Y-91860845D01*
X161430000Y-87300000D02*
X173495000Y-87300000D01*
X160515000Y-91110000D02*
X160515000Y-88215000D01*
X178055845Y-91860845D02*
X178055845Y-92480363D01*
X160515000Y-88215000D02*
X161430000Y-87300000D01*
X179036304Y-99997920D02*
X179034224Y-100000000D01*
X161747500Y-96507500D02*
X162382500Y-95872500D01*
X179034224Y-100000000D02*
X176670000Y-100000000D01*
X160515000Y-96507500D02*
X161747500Y-96507500D01*
X178066225Y-107490032D02*
X178066225Y-102666225D01*
X160515000Y-99439950D02*
X162046275Y-100971225D01*
X160515000Y-99047500D02*
X160515000Y-99439950D01*
X178066225Y-102666225D02*
X176670000Y-101270000D01*
X171235000Y-103772500D02*
X172860000Y-105397500D01*
X175167472Y-114479290D02*
X175167472Y-106752472D01*
X175167472Y-106752472D02*
X174447500Y-106032500D01*
X171235000Y-103492500D02*
X171235000Y-103772500D01*
X171235000Y-109152500D02*
X170005000Y-107922500D01*
X171235000Y-110160000D02*
X171235000Y-109152500D01*
X141442500Y-99045000D02*
X143647500Y-99045000D01*
X172225000Y-102820000D02*
X173215000Y-103810000D01*
X169367500Y-96825000D02*
X169367500Y-98730000D01*
X143647500Y-99045000D02*
X143650000Y-99047500D01*
X172225000Y-100952500D02*
X172225000Y-102820000D01*
X173215000Y-103810000D02*
X173812500Y-103810000D01*
X173215000Y-103810000D02*
X173215000Y-103530000D01*
X168415000Y-100635000D02*
X171907500Y-100635000D01*
X170002500Y-96190000D02*
X169367500Y-96825000D01*
X170990000Y-96190000D02*
X170002500Y-96190000D01*
X173812500Y-103810000D02*
X174447500Y-103175000D01*
X171907500Y-100635000D02*
X172225000Y-100952500D01*
X138852500Y-97145000D02*
X141442500Y-97145000D01*
X138570000Y-96862500D02*
X138852500Y-97145000D01*
X163182500Y-105562500D02*
X164287500Y-106667500D01*
X158890000Y-106350000D02*
X159677500Y-105562500D01*
X164287500Y-108496300D02*
X164528800Y-108737600D01*
X165405100Y-108737600D02*
X166827500Y-110160000D01*
X164528800Y-108737600D02*
X165405100Y-108737600D01*
X164287500Y-106667500D02*
X164287500Y-108496300D01*
X159677500Y-105562500D02*
X163182500Y-105562500D01*
X166827500Y-110160000D02*
X168135000Y-110160000D01*
X158890000Y-107555000D02*
X158890000Y-106350000D01*
X156032500Y-100317500D02*
X154762500Y-99047500D01*
X156032500Y-100317500D02*
X158776029Y-100317500D01*
X154762500Y-99047500D02*
X154482500Y-99047500D01*
X160160000Y-102605000D02*
X160160000Y-101701471D01*
X160160000Y-101701471D02*
X158776029Y-100317500D01*
X149682500Y-87120000D02*
X150000000Y-87437500D01*
X148095000Y-89415552D02*
X148095000Y-87300000D01*
X151905000Y-95872500D02*
X151587500Y-95555000D01*
X151587500Y-91110000D02*
X150952500Y-90475000D01*
X151682500Y-103397500D02*
X153288355Y-101791645D01*
X151682500Y-105752244D02*
X151682500Y-103397500D01*
X150952500Y-90475000D02*
X149154448Y-90475000D01*
X163372500Y-126035000D02*
X163372500Y-127305000D01*
X152857500Y-106667500D02*
X152597756Y-106667500D01*
X150000000Y-87437500D02*
X150000000Y-88535000D01*
X148275000Y-87120000D02*
X149682500Y-87120000D01*
X148095000Y-87300000D02*
X148275000Y-87120000D01*
X149154448Y-90475000D02*
X148095000Y-89415552D01*
X152597756Y-106667500D02*
X151682500Y-105752244D01*
X153288355Y-101791645D02*
X153288355Y-97701596D01*
X151587500Y-95555000D02*
X151587500Y-91110000D01*
X135430000Y-95555000D02*
X136982500Y-95555000D01*
X158890000Y-101587500D02*
X158255000Y-100952500D01*
X136982500Y-95555000D02*
X137300000Y-95872500D01*
X158890000Y-102605000D02*
X158890000Y-101587500D01*
X158255000Y-100952500D02*
X154762500Y-100952500D01*
X174090000Y-100912500D02*
X174447500Y-101270000D01*
X173495000Y-100912500D02*
X174090000Y-100912500D01*
X158890000Y-102605000D02*
X158890000Y-104162500D01*
X137300000Y-95872500D02*
X141745000Y-95872500D01*
X135430000Y-96825000D02*
X134125000Y-96825000D01*
X135430000Y-99365000D02*
X134125000Y-99365000D01*
X135430000Y-99365000D02*
X137972500Y-99365000D01*
X137972500Y-99365000D02*
X138570000Y-99962500D01*
X134125000Y-96825000D02*
X133807500Y-97142500D01*
X133807500Y-99047500D02*
X133807500Y-97142500D01*
X134125000Y-99365000D02*
X133807500Y-99047500D01*
X172860000Y-100000000D02*
X172495000Y-99635000D01*
X171907500Y-98730000D02*
X170990000Y-98730000D01*
X175400000Y-103810000D02*
X175400000Y-100635000D01*
X161430000Y-107555000D02*
X161430000Y-106797500D01*
X173772500Y-105755000D02*
X175400000Y-104127500D01*
X175400000Y-100635000D02*
X174765000Y-100000000D01*
X161430000Y-106797500D02*
X162065000Y-106162500D01*
X172495000Y-99317500D02*
X171907500Y-98730000D01*
X172495000Y-99635000D02*
X172495000Y-99317500D01*
X175400000Y-104127500D02*
X175400000Y-103810000D01*
X176315000Y-103810000D02*
X175400000Y-103810000D01*
X174765000Y-100000000D02*
X172860000Y-100000000D01*
X170320000Y-112065000D02*
X171907500Y-112065000D01*
X171907500Y-112065000D02*
X173772500Y-110200000D01*
X173772500Y-110200000D02*
X173772500Y-105755000D01*
X170002500Y-93650000D02*
X169367500Y-94285000D01*
X128687500Y-94880000D02*
X127140000Y-94880000D01*
X129362500Y-95555000D02*
X128687500Y-94880000D01*
X130280000Y-95555000D02*
X129362500Y-95555000D01*
X130280000Y-95555000D02*
X131302500Y-95555000D01*
X170990000Y-93650000D02*
X170002500Y-93650000D01*
X130280000Y-94285000D02*
X129362500Y-94285000D01*
X127775000Y-102895000D02*
X125272500Y-102895000D01*
X129362500Y-94285000D02*
X128727500Y-93650000D01*
X125272500Y-102895000D02*
X124600000Y-102222500D01*
X130280000Y-96825000D02*
X128690000Y-96825000D01*
X130280000Y-100635000D02*
X128052500Y-100635000D01*
X133490000Y-101270000D02*
X133490000Y-104165000D01*
X134125000Y-100635000D02*
X133490000Y-101270000D01*
X135430000Y-100635000D02*
X134125000Y-100635000D01*
X128727500Y-91462500D02*
X128727500Y-89167500D01*
X130280000Y-93015000D02*
X130315000Y-93015000D01*
X130280000Y-93015000D02*
X128727500Y-91462500D01*
X130280000Y-98095000D02*
X131267500Y-98095000D01*
X131902500Y-97460000D02*
X131902500Y-90475000D01*
X131902500Y-90475000D02*
X131267500Y-89840000D01*
X131267500Y-98095000D02*
X131902500Y-97460000D01*
X131267500Y-89840000D02*
X131267500Y-89167500D01*
X132537500Y-92697500D02*
X133807500Y-91427500D01*
X133807500Y-91427500D02*
X133807500Y-90755000D01*
X130280000Y-99365000D02*
X131267500Y-99365000D01*
X132537500Y-98095000D02*
X132537500Y-92697500D01*
X131267500Y-99365000D02*
X132537500Y-98095000D01*
X136030000Y-102505000D02*
X135430000Y-101905000D01*
X136030000Y-104165000D02*
X136030000Y-102505000D01*
X165840000Y-93650000D02*
X163615000Y-93650000D01*
X165840000Y-96190000D02*
X167062500Y-96190000D01*
X167062500Y-96190000D02*
X167380000Y-95872500D01*
X167380000Y-91662500D02*
X165240000Y-89522500D01*
X167380000Y-95872500D02*
X167380000Y-91662500D01*
X165240000Y-89522500D02*
X165240000Y-88850000D01*
X167145000Y-100000000D02*
X167780000Y-99365000D01*
X165840000Y-100000000D02*
X167145000Y-100000000D01*
X167780000Y-99365000D02*
X167780000Y-88850000D01*
X168415000Y-99365000D02*
X168415000Y-91427500D01*
X169050000Y-100000000D02*
X168415000Y-99365000D01*
X169050000Y-90792500D02*
X170002500Y-90792500D01*
X170002500Y-90792500D02*
X170320000Y-90475000D01*
X168415000Y-91427500D02*
X169050000Y-90792500D01*
X170990000Y-100000000D02*
X169050000Y-100000000D01*
X170320000Y-90475000D02*
X170320000Y-88850000D01*
X164885000Y-92380000D02*
X163615000Y-91110000D01*
X165840000Y-92380000D02*
X164885000Y-92380000D01*
X164567500Y-97460000D02*
X163615000Y-96507500D01*
X165840000Y-97460000D02*
X164567500Y-97460000D01*
X165840000Y-98730000D02*
X163932500Y-98730000D01*
X163932500Y-98730000D02*
X163615000Y-99047500D01*
X168135000Y-101905000D02*
X168770000Y-101270000D01*
X170990000Y-101270000D02*
X168770000Y-101270000D01*
X168135000Y-103492500D02*
X168135000Y-101905000D01*
X159525000Y-99989315D02*
X159525000Y-90792500D01*
X161430000Y-103810000D02*
X161430000Y-102605000D01*
X148730000Y-89409999D02*
X148730000Y-88535000D01*
X160160000Y-106797500D02*
X160160000Y-107555000D01*
X159525000Y-90792500D02*
X159207500Y-90475000D01*
X149160001Y-89840000D02*
X148730000Y-89409999D01*
X156667500Y-89840000D02*
X149160001Y-89840000D01*
X159207500Y-90475000D02*
X158290000Y-90475000D01*
X161112500Y-104127500D02*
X161430000Y-103810000D01*
X160795000Y-106162500D02*
X160160000Y-106797500D01*
X157302500Y-90475000D02*
X156667500Y-89840000D01*
X161430000Y-101894315D02*
X159525000Y-99989315D01*
X161430000Y-102605000D02*
X161430000Y-101894315D01*
X158290000Y-90475000D02*
X157302500Y-90475000D01*
X146482500Y-80632500D02*
X146457500Y-80607500D01*
X146457500Y-80607500D02*
X144920000Y-80607500D01*
X152347500Y-81672500D02*
X152895000Y-82220000D01*
X148500000Y-84750000D02*
X148500000Y-81672500D01*
X147885000Y-85365000D02*
X148500000Y-84750000D01*
X147225000Y-85365000D02*
X147885000Y-85365000D01*
X148500000Y-81672500D02*
X147460000Y-80632500D01*
X147460000Y-80632500D02*
X146482500Y-80632500D01*
X148500000Y-81672500D02*
X152347500Y-81672500D01*
X157937500Y-104762500D02*
X162382500Y-104762500D01*
X150480000Y-107620000D02*
X150480000Y-108727500D01*
X150480000Y-107620000D02*
X150952500Y-107620000D01*
X141745000Y-105560000D02*
X144285000Y-105560000D01*
X162382500Y-104762500D02*
X162700000Y-104445000D01*
X152857500Y-107937500D02*
X154762500Y-106032500D01*
X144882500Y-107620000D02*
X144882500Y-108575000D01*
X150480000Y-108727500D02*
X150000000Y-109207500D01*
X144882500Y-108575000D02*
X145515000Y-109207500D01*
X162700000Y-104445000D02*
X162700000Y-102605000D01*
X156667500Y-106032500D02*
X157937500Y-104762500D01*
X144882500Y-107620000D02*
X144882500Y-106157500D01*
X139205000Y-105560000D02*
X141745000Y-105560000D01*
X154762500Y-106032500D02*
X156667500Y-106032500D01*
X150000000Y-109207500D02*
X145515000Y-109207500D01*
X150952500Y-107620000D02*
X151550000Y-108217500D01*
X144882500Y-106157500D02*
X144285000Y-105560000D01*
X151550000Y-108217500D02*
X152857500Y-108217500D01*
X152857500Y-108217500D02*
X152857500Y-107937500D01*
M02*
