G04 #@! TF.GenerationSoftware,KiCad,Pcbnew,8.0.6*
G04 #@! TF.CreationDate,2024-12-27T14:26:58+01:00*
G04 #@! TF.ProjectId,Minutka,4d696e75-746b-4612-9e6b-696361645f70,rev?*
G04 #@! TF.SameCoordinates,Original*
G04 #@! TF.FileFunction,Legend,Bot*
G04 #@! TF.FilePolarity,Positive*
%FSLAX46Y46*%
G04 Gerber Fmt 4.6, Leading zero omitted, Abs format (unit mm)*
G04 Created by KiCad (PCBNEW 8.0.6) date 2024-12-27 14:26:58*
%MOMM*%
%LPD*%
G01*
G04 APERTURE LIST*
G04 Aperture macros list*
%AMRoundRect*
0 Rectangle with rounded corners*
0 $1 Rounding radius*
0 $2 $3 $4 $5 $6 $7 $8 $9 X,Y pos of 4 corners*
0 Add a 4 corners polygon primitive as box body*
4,1,4,$2,$3,$4,$5,$6,$7,$8,$9,$2,$3,0*
0 Add four circle primitives for the rounded corners*
1,1,$1+$1,$2,$3*
1,1,$1+$1,$4,$5*
1,1,$1+$1,$6,$7*
1,1,$1+$1,$8,$9*
0 Add four rect primitives between the rounded corners*
20,1,$1+$1,$2,$3,$4,$5,0*
20,1,$1+$1,$4,$5,$6,$7,0*
20,1,$1+$1,$6,$7,$8,$9,0*
20,1,$1+$1,$8,$9,$2,$3,0*%
%AMRotRect*
0 Rectangle, with rotation*
0 The origin of the aperture is its center*
0 $1 length*
0 $2 width*
0 $3 Rotation angle, in degrees counterclockwise*
0 Add horizontal line*
21,1,$1,$2,0,0,$3*%
G04 Aperture macros list end*
%ADD10C,0.300000*%
%ADD11C,0.150000*%
%ADD12C,0.120000*%
%ADD13C,3.050000*%
%ADD14RotRect,1.800000X1.800000X150.000000*%
%ADD15C,1.800000*%
%ADD16RotRect,1.800000X1.800000X315.000000*%
%ADD17RotRect,1.800000X1.800000X240.000000*%
%ADD18R,1.800000X1.800000*%
%ADD19R,1.600000X1.600000*%
%ADD20C,1.600000*%
%ADD21RotRect,1.800000X1.800000X15.000000*%
%ADD22RotRect,1.800000X1.800000X210.000000*%
%ADD23RotRect,1.800000X1.800000X285.000000*%
%ADD24RotRect,1.800000X1.800000X165.000000*%
%ADD25RotRect,1.800000X1.800000X225.000000*%
%ADD26C,1.000000*%
%ADD27RotRect,1.800000X1.800000X30.000000*%
%ADD28RotRect,1.800000X1.800000X195.000000*%
%ADD29RotRect,1.800000X1.800000X300.000000*%
%ADD30RotRect,1.800000X1.800000X345.000000*%
%ADD31C,2.000000*%
%ADD32RotRect,1.800000X1.800000X255.000000*%
%ADD33RotRect,1.800000X1.800000X330.000000*%
%ADD34RotRect,1.800000X1.800000X135.000000*%
%ADD35RoundRect,0.200000X1.550000X-1.100000X1.550000X1.100000X-1.550000X1.100000X-1.550000X-1.100000X0*%
%ADD36RoundRect,0.200000X-1.550000X1.100000X-1.550000X-1.100000X1.550000X-1.100000X1.550000X1.100000X0*%
G04 APERTURE END LIST*
D10*
X161653346Y-130233328D02*
X161367632Y-131233328D01*
X161367632Y-131233328D02*
X161081917Y-130519042D01*
X161081917Y-130519042D02*
X160796203Y-131233328D01*
X160796203Y-131233328D02*
X160510489Y-130233328D01*
X160081917Y-130233328D02*
X159796203Y-131233328D01*
X159796203Y-131233328D02*
X159510488Y-130519042D01*
X159510488Y-130519042D02*
X159224774Y-131233328D01*
X159224774Y-131233328D02*
X158939060Y-130233328D01*
X158510488Y-130233328D02*
X158224774Y-131233328D01*
X158224774Y-131233328D02*
X157939059Y-130519042D01*
X157939059Y-130519042D02*
X157653345Y-131233328D01*
X157653345Y-131233328D02*
X157367631Y-130233328D01*
X156796202Y-131090471D02*
X156724773Y-131161900D01*
X156724773Y-131161900D02*
X156796202Y-131233328D01*
X156796202Y-131233328D02*
X156867630Y-131161900D01*
X156867630Y-131161900D02*
X156796202Y-131090471D01*
X156796202Y-131090471D02*
X156796202Y-131233328D01*
X155510487Y-131161900D02*
X155653344Y-131233328D01*
X155653344Y-131233328D02*
X155939059Y-131233328D01*
X155939059Y-131233328D02*
X156081916Y-131161900D01*
X156081916Y-131161900D02*
X156153344Y-131019042D01*
X156153344Y-131019042D02*
X156153344Y-130447614D01*
X156153344Y-130447614D02*
X156081916Y-130304757D01*
X156081916Y-130304757D02*
X155939059Y-130233328D01*
X155939059Y-130233328D02*
X155653344Y-130233328D01*
X155653344Y-130233328D02*
X155510487Y-130304757D01*
X155510487Y-130304757D02*
X155439059Y-130447614D01*
X155439059Y-130447614D02*
X155439059Y-130590471D01*
X155439059Y-130590471D02*
X156153344Y-130733328D01*
X154581916Y-131233328D02*
X154724773Y-131161900D01*
X154724773Y-131161900D02*
X154796202Y-131019042D01*
X154796202Y-131019042D02*
X154796202Y-129733328D01*
X153439059Y-131161900D02*
X153581916Y-131233328D01*
X153581916Y-131233328D02*
X153867631Y-131233328D01*
X153867631Y-131233328D02*
X154010488Y-131161900D01*
X154010488Y-131161900D02*
X154081916Y-131019042D01*
X154081916Y-131019042D02*
X154081916Y-130447614D01*
X154081916Y-130447614D02*
X154010488Y-130304757D01*
X154010488Y-130304757D02*
X153867631Y-130233328D01*
X153867631Y-130233328D02*
X153581916Y-130233328D01*
X153581916Y-130233328D02*
X153439059Y-130304757D01*
X153439059Y-130304757D02*
X153367631Y-130447614D01*
X153367631Y-130447614D02*
X153367631Y-130590471D01*
X153367631Y-130590471D02*
X154081916Y-130733328D01*
X152724774Y-131233328D02*
X152724774Y-129733328D01*
X152581917Y-130661900D02*
X152153345Y-131233328D01*
X152153345Y-130233328D02*
X152724774Y-130804757D01*
X151724773Y-130233328D02*
X151153345Y-130233328D01*
X151510488Y-129733328D02*
X151510488Y-131019042D01*
X151510488Y-131019042D02*
X151439059Y-131161900D01*
X151439059Y-131161900D02*
X151296202Y-131233328D01*
X151296202Y-131233328D02*
X151153345Y-131233328D01*
X150653345Y-131233328D02*
X150653345Y-130233328D01*
X150653345Y-130519042D02*
X150581916Y-130376185D01*
X150581916Y-130376185D02*
X150510488Y-130304757D01*
X150510488Y-130304757D02*
X150367630Y-130233328D01*
X150367630Y-130233328D02*
X150224773Y-130233328D01*
X149510488Y-131233328D02*
X149653345Y-131161900D01*
X149653345Y-131161900D02*
X149724774Y-131090471D01*
X149724774Y-131090471D02*
X149796202Y-130947614D01*
X149796202Y-130947614D02*
X149796202Y-130519042D01*
X149796202Y-130519042D02*
X149724774Y-130376185D01*
X149724774Y-130376185D02*
X149653345Y-130304757D01*
X149653345Y-130304757D02*
X149510488Y-130233328D01*
X149510488Y-130233328D02*
X149296202Y-130233328D01*
X149296202Y-130233328D02*
X149153345Y-130304757D01*
X149153345Y-130304757D02*
X149081917Y-130376185D01*
X149081917Y-130376185D02*
X149010488Y-130519042D01*
X149010488Y-130519042D02*
X149010488Y-130947614D01*
X149010488Y-130947614D02*
X149081917Y-131090471D01*
X149081917Y-131090471D02*
X149153345Y-131161900D01*
X149153345Y-131161900D02*
X149296202Y-131233328D01*
X149296202Y-131233328D02*
X149510488Y-131233328D01*
X148367631Y-131233328D02*
X148367631Y-129733328D01*
X148224774Y-130661900D02*
X147796202Y-131233328D01*
X147796202Y-130233328D02*
X148367631Y-130804757D01*
X147153345Y-131233328D02*
X147153345Y-130233328D01*
X147153345Y-130519042D02*
X147081916Y-130376185D01*
X147081916Y-130376185D02*
X147010488Y-130304757D01*
X147010488Y-130304757D02*
X146867630Y-130233328D01*
X146867630Y-130233328D02*
X146724773Y-130233328D01*
X146010488Y-131233328D02*
X146153345Y-131161900D01*
X146153345Y-131161900D02*
X146224774Y-131090471D01*
X146224774Y-131090471D02*
X146296202Y-130947614D01*
X146296202Y-130947614D02*
X146296202Y-130519042D01*
X146296202Y-130519042D02*
X146224774Y-130376185D01*
X146224774Y-130376185D02*
X146153345Y-130304757D01*
X146153345Y-130304757D02*
X146010488Y-130233328D01*
X146010488Y-130233328D02*
X145796202Y-130233328D01*
X145796202Y-130233328D02*
X145653345Y-130304757D01*
X145653345Y-130304757D02*
X145581917Y-130376185D01*
X145581917Y-130376185D02*
X145510488Y-130519042D01*
X145510488Y-130519042D02*
X145510488Y-130947614D01*
X145510488Y-130947614D02*
X145581917Y-131090471D01*
X145581917Y-131090471D02*
X145653345Y-131161900D01*
X145653345Y-131161900D02*
X145796202Y-131233328D01*
X145796202Y-131233328D02*
X146010488Y-131233328D01*
X144224774Y-130233328D02*
X144224774Y-131233328D01*
X144867631Y-130233328D02*
X144867631Y-131019042D01*
X144867631Y-131019042D02*
X144796202Y-131161900D01*
X144796202Y-131161900D02*
X144653345Y-131233328D01*
X144653345Y-131233328D02*
X144439059Y-131233328D01*
X144439059Y-131233328D02*
X144296202Y-131161900D01*
X144296202Y-131161900D02*
X144224774Y-131090471D01*
X143653345Y-130233328D02*
X142867631Y-130233328D01*
X142867631Y-130233328D02*
X143653345Y-131233328D01*
X143653345Y-131233328D02*
X142867631Y-131233328D01*
X141724773Y-131161900D02*
X141867630Y-131233328D01*
X141867630Y-131233328D02*
X142153345Y-131233328D01*
X142153345Y-131233328D02*
X142296202Y-131161900D01*
X142296202Y-131161900D02*
X142367630Y-131019042D01*
X142367630Y-131019042D02*
X142367630Y-130447614D01*
X142367630Y-130447614D02*
X142296202Y-130304757D01*
X142296202Y-130304757D02*
X142153345Y-130233328D01*
X142153345Y-130233328D02*
X141867630Y-130233328D01*
X141867630Y-130233328D02*
X141724773Y-130304757D01*
X141724773Y-130304757D02*
X141653345Y-130447614D01*
X141653345Y-130447614D02*
X141653345Y-130590471D01*
X141653345Y-130590471D02*
X142367630Y-130733328D01*
X141010488Y-131233328D02*
X141010488Y-129733328D01*
X140867631Y-130661900D02*
X140439059Y-131233328D01*
X140439059Y-130233328D02*
X141010488Y-130804757D01*
X139796202Y-131090471D02*
X139724773Y-131161900D01*
X139724773Y-131161900D02*
X139796202Y-131233328D01*
X139796202Y-131233328D02*
X139867630Y-131161900D01*
X139867630Y-131161900D02*
X139796202Y-131090471D01*
X139796202Y-131090471D02*
X139796202Y-131233328D01*
X138439059Y-131161900D02*
X138581916Y-131233328D01*
X138581916Y-131233328D02*
X138867630Y-131233328D01*
X138867630Y-131233328D02*
X139010487Y-131161900D01*
X139010487Y-131161900D02*
X139081916Y-131090471D01*
X139081916Y-131090471D02*
X139153344Y-130947614D01*
X139153344Y-130947614D02*
X139153344Y-130519042D01*
X139153344Y-130519042D02*
X139081916Y-130376185D01*
X139081916Y-130376185D02*
X139010487Y-130304757D01*
X139010487Y-130304757D02*
X138867630Y-130233328D01*
X138867630Y-130233328D02*
X138581916Y-130233328D01*
X138581916Y-130233328D02*
X138439059Y-130304757D01*
X137939059Y-130233328D02*
X137153345Y-130233328D01*
X137153345Y-130233328D02*
X137939059Y-131233328D01*
X137939059Y-131233328D02*
X137153345Y-131233328D01*
X128950846Y-122930828D02*
X128593703Y-123930828D01*
X128593703Y-123930828D02*
X128236560Y-122930828D01*
X127736560Y-122573685D02*
X127665132Y-122502257D01*
X127665132Y-122502257D02*
X127522275Y-122430828D01*
X127522275Y-122430828D02*
X127165132Y-122430828D01*
X127165132Y-122430828D02*
X127022275Y-122502257D01*
X127022275Y-122502257D02*
X126950846Y-122573685D01*
X126950846Y-122573685D02*
X126879417Y-122716542D01*
X126879417Y-122716542D02*
X126879417Y-122859400D01*
X126879417Y-122859400D02*
X126950846Y-123073685D01*
X126950846Y-123073685D02*
X127807989Y-123930828D01*
X127807989Y-123930828D02*
X126879417Y-123930828D01*
X128307989Y-120922614D02*
X128093703Y-120994042D01*
X128093703Y-120994042D02*
X128022274Y-121065471D01*
X128022274Y-121065471D02*
X127950846Y-121208328D01*
X127950846Y-121208328D02*
X127950846Y-121422614D01*
X127950846Y-121422614D02*
X128022274Y-121565471D01*
X128022274Y-121565471D02*
X128093703Y-121636900D01*
X128093703Y-121636900D02*
X128236560Y-121708328D01*
X128236560Y-121708328D02*
X128807989Y-121708328D01*
X128807989Y-121708328D02*
X128807989Y-120208328D01*
X128807989Y-120208328D02*
X128307989Y-120208328D01*
X128307989Y-120208328D02*
X128165132Y-120279757D01*
X128165132Y-120279757D02*
X128093703Y-120351185D01*
X128093703Y-120351185D02*
X128022274Y-120494042D01*
X128022274Y-120494042D02*
X128022274Y-120636900D01*
X128022274Y-120636900D02*
X128093703Y-120779757D01*
X128093703Y-120779757D02*
X128165132Y-120851185D01*
X128165132Y-120851185D02*
X128307989Y-120922614D01*
X128307989Y-120922614D02*
X128807989Y-120922614D01*
X127522274Y-120208328D02*
X126665132Y-120208328D01*
X127093703Y-121708328D02*
X127093703Y-120208328D01*
X126165132Y-121708328D02*
X126165132Y-120208328D01*
X126165132Y-120208328D02*
X125665132Y-121279757D01*
X125665132Y-121279757D02*
X125165132Y-120208328D01*
X125165132Y-120208328D02*
X125165132Y-121708328D01*
D11*
X137785714Y-76931009D02*
X137642857Y-76978628D01*
X137642857Y-76978628D02*
X137595238Y-77026247D01*
X137595238Y-77026247D02*
X137547619Y-77121485D01*
X137547619Y-77121485D02*
X137547619Y-77264342D01*
X137547619Y-77264342D02*
X137595238Y-77359580D01*
X137595238Y-77359580D02*
X137642857Y-77407200D01*
X137642857Y-77407200D02*
X137738095Y-77454819D01*
X137738095Y-77454819D02*
X138119047Y-77454819D01*
X138119047Y-77454819D02*
X138119047Y-76454819D01*
X138119047Y-76454819D02*
X137785714Y-76454819D01*
X137785714Y-76454819D02*
X137690476Y-76502438D01*
X137690476Y-76502438D02*
X137642857Y-76550057D01*
X137642857Y-76550057D02*
X137595238Y-76645295D01*
X137595238Y-76645295D02*
X137595238Y-76740533D01*
X137595238Y-76740533D02*
X137642857Y-76835771D01*
X137642857Y-76835771D02*
X137690476Y-76883390D01*
X137690476Y-76883390D02*
X137785714Y-76931009D01*
X137785714Y-76931009D02*
X138119047Y-76931009D01*
X137261904Y-76454819D02*
X136690476Y-76454819D01*
X136976190Y-77454819D02*
X136976190Y-76454819D01*
X135833333Y-77454819D02*
X136404761Y-77454819D01*
X136119047Y-77454819D02*
X136119047Y-76454819D01*
X136119047Y-76454819D02*
X136214285Y-76597676D01*
X136214285Y-76597676D02*
X136309523Y-76692914D01*
X136309523Y-76692914D02*
X136404761Y-76740533D01*
X139206366Y-109426548D02*
X139206366Y-110188453D01*
X139587319Y-109807500D02*
X138825414Y-109807500D01*
X166650714Y-76931009D02*
X166507857Y-76978628D01*
X166507857Y-76978628D02*
X166460238Y-77026247D01*
X166460238Y-77026247D02*
X166412619Y-77121485D01*
X166412619Y-77121485D02*
X166412619Y-77264342D01*
X166412619Y-77264342D02*
X166460238Y-77359580D01*
X166460238Y-77359580D02*
X166507857Y-77407200D01*
X166507857Y-77407200D02*
X166603095Y-77454819D01*
X166603095Y-77454819D02*
X166984047Y-77454819D01*
X166984047Y-77454819D02*
X166984047Y-76454819D01*
X166984047Y-76454819D02*
X166650714Y-76454819D01*
X166650714Y-76454819D02*
X166555476Y-76502438D01*
X166555476Y-76502438D02*
X166507857Y-76550057D01*
X166507857Y-76550057D02*
X166460238Y-76645295D01*
X166460238Y-76645295D02*
X166460238Y-76740533D01*
X166460238Y-76740533D02*
X166507857Y-76835771D01*
X166507857Y-76835771D02*
X166555476Y-76883390D01*
X166555476Y-76883390D02*
X166650714Y-76931009D01*
X166650714Y-76931009D02*
X166984047Y-76931009D01*
X166126904Y-76454819D02*
X165555476Y-76454819D01*
X165841190Y-77454819D02*
X165841190Y-76454819D01*
X165269761Y-76550057D02*
X165222142Y-76502438D01*
X165222142Y-76502438D02*
X165126904Y-76454819D01*
X165126904Y-76454819D02*
X164888809Y-76454819D01*
X164888809Y-76454819D02*
X164793571Y-76502438D01*
X164793571Y-76502438D02*
X164745952Y-76550057D01*
X164745952Y-76550057D02*
X164698333Y-76645295D01*
X164698333Y-76645295D02*
X164698333Y-76740533D01*
X164698333Y-76740533D02*
X164745952Y-76883390D01*
X164745952Y-76883390D02*
X165317380Y-77454819D01*
X165317380Y-77454819D02*
X164698333Y-77454819D01*
X162211366Y-78826548D02*
X162211366Y-79588453D01*
X162592319Y-79207500D02*
X161830414Y-79207500D01*
D12*
X128177500Y-102051100D02*
X128177500Y-86963900D01*
X132727500Y-80137500D02*
X134337500Y-80137500D01*
X132727500Y-83993200D02*
X132727500Y-80137500D01*
X132727500Y-108877500D02*
X132727500Y-105021800D01*
X134337500Y-108877500D02*
X132727500Y-108877500D01*
X138357500Y-80137500D02*
X139967500Y-80137500D01*
X139967500Y-80137500D02*
X139967500Y-83993200D01*
X139967500Y-105021800D02*
X139967500Y-108877500D01*
X139967500Y-108877500D02*
X138357500Y-108877500D01*
X144517500Y-86963900D02*
X144517500Y-102051100D01*
X128177500Y-86963900D02*
G75*
G02*
X132727500Y-83993200I8210336J-7605362D01*
G01*
X132727500Y-105021800D02*
G75*
G02*
X128177499Y-102051101I3660350J10576090D01*
G01*
X139967500Y-83993200D02*
G75*
G02*
X144517500Y-86963900I-3660336J-10576062D01*
G01*
X144517500Y-102051100D02*
G75*
G02*
X139967500Y-105021801I-8210310J7605320D01*
G01*
X156752500Y-102051100D02*
X156752500Y-86963900D01*
X161302500Y-80137500D02*
X162912500Y-80137500D01*
X161302500Y-83993200D02*
X161302500Y-80137500D01*
X161302500Y-108877500D02*
X161302500Y-105021800D01*
X162912500Y-108877500D02*
X161302500Y-108877500D01*
X166932500Y-80137500D02*
X168542500Y-80137500D01*
X168542500Y-80137500D02*
X168542500Y-83993200D01*
X168542500Y-105021800D02*
X168542500Y-108877500D01*
X168542500Y-108877500D02*
X166932500Y-108877500D01*
X173092500Y-86963900D02*
X173092500Y-102051100D01*
X156752500Y-86963900D02*
G75*
G02*
X161302500Y-83993199I8210310J-7605320D01*
G01*
X161302500Y-105021800D02*
G75*
G02*
X156752500Y-102051100I3660336J10576062D01*
G01*
X168542500Y-83993200D02*
G75*
G02*
X173092501Y-86963899I-3660350J-10576090D01*
G01*
X173092500Y-102051100D02*
G75*
G02*
X168542500Y-105021800I-8210336J7605362D01*
G01*
%LPC*%
D13*
X141525000Y-122500000D02*
G75*
G02*
X138475000Y-122500000I-1525000J0D01*
G01*
X138475000Y-122500000D02*
G75*
G02*
X141525000Y-122500000I1525000J0D01*
G01*
X159525000Y-77000000D02*
G75*
G02*
X156475000Y-77000000I-1525000J0D01*
G01*
X156475000Y-77000000D02*
G75*
G02*
X159525000Y-77000000I1525000J0D01*
G01*
D14*
X177367177Y-115749290D03*
D15*
X175167472Y-114479290D03*
D16*
X127690546Y-77653979D03*
D15*
X129486597Y-79450030D03*
D17*
X165760447Y-72640824D03*
D15*
X164490447Y-74840529D03*
D18*
X181576304Y-99997920D03*
D15*
X179036304Y-99997920D03*
D19*
X146200000Y-127500000D03*
D20*
X153800000Y-127500000D03*
D21*
X119485510Y-108146180D03*
D15*
X121938962Y-107488780D03*
D22*
X177392289Y-84284720D03*
D15*
X175192584Y-85554720D03*
D23*
X141805045Y-69505345D03*
D15*
X142462445Y-71958797D03*
D24*
X180519677Y-108147432D03*
D15*
X178066225Y-107490032D03*
D18*
X150013150Y-68414566D03*
D15*
X150013150Y-70954566D03*
D25*
X172345872Y-77705545D03*
D15*
X170549821Y-79501596D03*
D26*
X147225000Y-82825000D03*
X147225000Y-85365000D03*
D18*
X118433664Y-100007179D03*
D15*
X120973664Y-100007179D03*
D27*
X122597444Y-115780636D03*
D15*
X124797149Y-114510636D03*
D28*
X180509297Y-91822963D03*
D15*
X178055845Y-92480363D03*
D18*
X148725000Y-100000000D03*
D15*
X151265000Y-100000000D03*
D29*
X134199774Y-72672169D03*
D15*
X135469774Y-74871874D03*
D30*
X119502084Y-91756294D03*
D15*
X121955536Y-92413694D03*
D31*
X134750000Y-112750000D03*
X141250000Y-112750000D03*
X134750000Y-117250000D03*
X141250000Y-117250000D03*
D19*
X148000000Y-112500000D03*
D20*
X150000000Y-112500000D03*
X152000000Y-112500000D03*
X148000000Y-117500000D03*
X150000000Y-117500000D03*
X152000000Y-117500000D03*
D32*
X158195977Y-69499485D03*
D15*
X157538577Y-71952937D03*
D33*
X122657374Y-84222850D03*
D15*
X124857079Y-85492850D03*
D34*
X172330322Y-122317492D03*
D15*
X170534271Y-120521441D03*
D31*
X158750000Y-112750000D03*
X165250000Y-112750000D03*
X158750000Y-117250000D03*
X165250000Y-117250000D03*
D35*
X136347500Y-109207500D03*
X136347500Y-79807500D03*
D36*
X164922500Y-79807500D03*
X164922500Y-109207500D03*
%LPD*%
M02*
