G04 #@! TF.GenerationSoftware,KiCad,Pcbnew,8.0.6*
G04 #@! TF.CreationDate,2024-12-27T14:26:58+01:00*
G04 #@! TF.ProjectId,Minutka,4d696e75-746b-4612-9e6b-696361645f70,rev?*
G04 #@! TF.SameCoordinates,Original*
G04 #@! TF.FileFunction,Copper,L4,Bot*
G04 #@! TF.FilePolarity,Positive*
%FSLAX46Y46*%
G04 Gerber Fmt 4.6, Leading zero omitted, Abs format (unit mm)*
G04 Created by KiCad (PCBNEW 8.0.6) date 2024-12-27 14:26:58*
%MOMM*%
%LPD*%
G01*
G04 APERTURE LIST*
G04 Aperture macros list*
%AMRoundRect*
0 Rectangle with rounded corners*
0 $1 Rounding radius*
0 $2 $3 $4 $5 $6 $7 $8 $9 X,Y pos of 4 corners*
0 Add a 4 corners polygon primitive as box body*
4,1,4,$2,$3,$4,$5,$6,$7,$8,$9,$2,$3,0*
0 Add four circle primitives for the rounded corners*
1,1,$1+$1,$2,$3*
1,1,$1+$1,$4,$5*
1,1,$1+$1,$6,$7*
1,1,$1+$1,$8,$9*
0 Add four rect primitives between the rounded corners*
20,1,$1+$1,$2,$3,$4,$5,0*
20,1,$1+$1,$4,$5,$6,$7,0*
20,1,$1+$1,$6,$7,$8,$9,0*
20,1,$1+$1,$8,$9,$2,$3,0*%
%AMRotRect*
0 Rectangle, with rotation*
0 The origin of the aperture is its center*
0 $1 length*
0 $2 width*
0 $3 Rotation angle, in degrees counterclockwise*
0 Add horizontal line*
21,1,$1,$2,0,0,$3*%
G04 Aperture macros list end*
G04 #@! TA.AperFunction,ComponentPad*
%ADD10RotRect,1.800000X1.800000X150.000000*%
G04 #@! TD*
G04 #@! TA.AperFunction,ComponentPad*
%ADD11C,1.800000*%
G04 #@! TD*
G04 #@! TA.AperFunction,ComponentPad*
%ADD12RotRect,1.800000X1.800000X315.000000*%
G04 #@! TD*
G04 #@! TA.AperFunction,ComponentPad*
%ADD13RotRect,1.800000X1.800000X240.000000*%
G04 #@! TD*
G04 #@! TA.AperFunction,ComponentPad*
%ADD14R,1.800000X1.800000*%
G04 #@! TD*
G04 #@! TA.AperFunction,ComponentPad*
%ADD15R,1.600000X1.600000*%
G04 #@! TD*
G04 #@! TA.AperFunction,ComponentPad*
%ADD16C,1.600000*%
G04 #@! TD*
G04 #@! TA.AperFunction,ComponentPad*
%ADD17RotRect,1.800000X1.800000X15.000000*%
G04 #@! TD*
G04 #@! TA.AperFunction,ComponentPad*
%ADD18RotRect,1.800000X1.800000X210.000000*%
G04 #@! TD*
G04 #@! TA.AperFunction,ComponentPad*
%ADD19RotRect,1.800000X1.800000X285.000000*%
G04 #@! TD*
G04 #@! TA.AperFunction,ComponentPad*
%ADD20RotRect,1.800000X1.800000X165.000000*%
G04 #@! TD*
G04 #@! TA.AperFunction,ComponentPad*
%ADD21RotRect,1.800000X1.800000X225.000000*%
G04 #@! TD*
G04 #@! TA.AperFunction,ComponentPad*
%ADD22C,1.000000*%
G04 #@! TD*
G04 #@! TA.AperFunction,ComponentPad*
%ADD23RotRect,1.800000X1.800000X30.000000*%
G04 #@! TD*
G04 #@! TA.AperFunction,ComponentPad*
%ADD24RotRect,1.800000X1.800000X195.000000*%
G04 #@! TD*
G04 #@! TA.AperFunction,ComponentPad*
%ADD25RotRect,1.800000X1.800000X300.000000*%
G04 #@! TD*
G04 #@! TA.AperFunction,ComponentPad*
%ADD26RotRect,1.800000X1.800000X345.000000*%
G04 #@! TD*
G04 #@! TA.AperFunction,ComponentPad*
%ADD27C,2.000000*%
G04 #@! TD*
G04 #@! TA.AperFunction,ComponentPad*
%ADD28RotRect,1.800000X1.800000X255.000000*%
G04 #@! TD*
G04 #@! TA.AperFunction,ComponentPad*
%ADD29RotRect,1.800000X1.800000X330.000000*%
G04 #@! TD*
G04 #@! TA.AperFunction,ComponentPad*
%ADD30RotRect,1.800000X1.800000X135.000000*%
G04 #@! TD*
G04 #@! TA.AperFunction,SMDPad,CuDef*
%ADD31RoundRect,0.200000X1.550000X-1.100000X1.550000X1.100000X-1.550000X1.100000X-1.550000X-1.100000X0*%
G04 #@! TD*
G04 #@! TA.AperFunction,SMDPad,CuDef*
%ADD32RoundRect,0.200000X-1.550000X1.100000X-1.550000X-1.100000X1.550000X-1.100000X1.550000X1.100000X0*%
G04 #@! TD*
G04 #@! TA.AperFunction,ViaPad*
%ADD33C,0.600000*%
G04 #@! TD*
G04 #@! TA.AperFunction,ViaPad*
%ADD34C,6.000000*%
G04 #@! TD*
G04 #@! TA.AperFunction,Conductor*
%ADD35C,0.400000*%
G04 #@! TD*
G04 APERTURE END LIST*
D10*
X177367177Y-115749290D03*
D11*
X175167472Y-114479290D03*
D12*
X127690546Y-77653979D03*
D11*
X129486597Y-79450030D03*
D13*
X165760447Y-72640824D03*
D11*
X164490447Y-74840529D03*
D14*
X181576304Y-99997920D03*
D11*
X179036304Y-99997920D03*
D15*
X146200000Y-127500000D03*
D16*
X153800000Y-127500000D03*
D17*
X119485510Y-108146180D03*
D11*
X121938962Y-107488780D03*
D18*
X177392289Y-84284720D03*
D11*
X175192584Y-85554720D03*
D19*
X141805045Y-69505345D03*
D11*
X142462445Y-71958797D03*
D20*
X180519677Y-108147432D03*
D11*
X178066225Y-107490032D03*
D14*
X150013150Y-68414566D03*
D11*
X150013150Y-70954566D03*
D21*
X172345872Y-77705545D03*
D11*
X170549821Y-79501596D03*
D22*
X147225000Y-82825000D03*
X147225000Y-85365000D03*
D14*
X118433664Y-100007179D03*
D11*
X120973664Y-100007179D03*
D23*
X122597444Y-115780636D03*
D11*
X124797149Y-114510636D03*
D24*
X180509297Y-91822963D03*
D11*
X178055845Y-92480363D03*
D14*
X148725000Y-100000000D03*
D11*
X151265000Y-100000000D03*
D25*
X134199774Y-72672169D03*
D11*
X135469774Y-74871874D03*
D26*
X119502084Y-91756294D03*
D11*
X121955536Y-92413694D03*
D27*
X134750000Y-112750000D03*
X141250000Y-112750000D03*
X134750000Y-117250000D03*
X141250000Y-117250000D03*
D15*
X148000000Y-112500000D03*
D16*
X150000000Y-112500000D03*
X152000000Y-112500000D03*
X148000000Y-117500000D03*
X150000000Y-117500000D03*
X152000000Y-117500000D03*
D28*
X158195977Y-69499485D03*
D11*
X157538577Y-71952937D03*
D29*
X122657374Y-84222850D03*
D11*
X124857079Y-85492850D03*
D30*
X172330322Y-122317492D03*
D11*
X170534271Y-120521441D03*
D27*
X158750000Y-112750000D03*
X165250000Y-112750000D03*
X158750000Y-117250000D03*
X165250000Y-117250000D03*
D31*
X136347500Y-109207500D03*
X136347500Y-79807500D03*
D32*
X164922500Y-79807500D03*
X164922500Y-109207500D03*
D33*
X169367500Y-93015000D03*
X143015000Y-110160000D03*
X155080000Y-92697500D03*
X143317500Y-97475000D03*
X137935000Y-92697500D03*
X163017500Y-112750000D03*
X172542500Y-110477500D03*
X150635000Y-102857500D03*
D34*
X158000000Y-77000000D03*
D33*
X176670000Y-117462500D03*
X172225000Y-108890000D03*
X118250000Y-101905000D03*
X135712500Y-111112500D03*
X175400000Y-94285000D03*
X180162500Y-109842500D03*
X173495000Y-79045000D03*
X155080000Y-87935000D03*
X136030000Y-89205000D03*
X165557500Y-102222500D03*
X160477500Y-110160000D03*
X143625000Y-77482500D03*
X160160000Y-84058897D03*
X167462500Y-73330000D03*
X148412500Y-68250000D03*
D34*
X140000000Y-122500000D03*
D33*
X119837500Y-90157500D03*
X132855000Y-73647500D03*
X171272500Y-123812500D03*
X126505000Y-78664432D03*
X181700000Y-101855000D03*
X153875000Y-102605000D03*
X150000000Y-92062500D03*
X176352500Y-82537500D03*
X124917500Y-109842500D03*
X154762500Y-94920000D03*
X159842500Y-69837500D03*
X119837500Y-110160000D03*
X179845000Y-89840000D03*
X121425000Y-114287500D03*
X121742500Y-85712500D03*
X130280000Y-102822500D03*
X165240000Y-125082500D03*
X139205000Y-94602500D03*
X140157500Y-69837500D03*
X157937500Y-95872500D03*
X158890000Y-99047500D03*
X150952500Y-95555000D03*
X143015000Y-113335000D03*
X165875000Y-105432500D03*
X148412500Y-108255000D03*
X168415000Y-113652500D03*
X156350000Y-105080000D03*
X122377500Y-95555000D03*
X132328425Y-108360097D03*
X124917500Y-88252500D03*
X136982500Y-105715000D03*
X147777500Y-72060000D03*
X161747500Y-93650000D03*
X162700000Y-76822500D03*
X162382500Y-95872500D03*
X176670000Y-100000000D03*
X162046275Y-100971225D03*
X176670000Y-101270000D03*
X174447500Y-106032500D03*
X172860000Y-105397500D03*
X169367500Y-98730000D03*
X168415000Y-100635000D03*
X143650000Y-99047500D03*
X174447500Y-103175000D03*
X163372500Y-126035000D03*
X151905000Y-95872500D03*
X152857500Y-106667500D03*
X153288355Y-97701596D03*
X158890000Y-104162500D03*
X174447500Y-101270000D03*
X141745000Y-95872500D03*
X154762500Y-100952500D03*
X162065000Y-106162500D03*
X170320000Y-112065000D03*
X131302500Y-95555000D03*
X169367500Y-94285000D03*
X124600000Y-102222500D03*
X128727500Y-93650000D03*
X161112500Y-104127500D03*
X160795000Y-106162500D03*
X130632500Y-108255000D03*
X164287500Y-77457500D03*
X139840000Y-78727500D03*
D35*
X130632500Y-108255000D02*
X131585000Y-109207500D01*
X131585000Y-109207500D02*
X136347500Y-109207500D01*
X164287500Y-78537500D02*
X164287500Y-77457500D01*
X138760000Y-79807500D02*
X139840000Y-78727500D01*
X165557500Y-79807500D02*
X164287500Y-78537500D01*
X136347500Y-79807500D02*
X138760000Y-79807500D01*
G04 #@! TA.AperFunction,Conductor*
G36*
X150584779Y-65505491D02*
G01*
X151745278Y-65544709D01*
X151749451Y-65544920D01*
X152908023Y-65623314D01*
X152912091Y-65623658D01*
X154038261Y-65738178D01*
X154067363Y-65741138D01*
X154071524Y-65741632D01*
X155222137Y-65898058D01*
X155226253Y-65898690D01*
X156370908Y-66093885D01*
X156374955Y-66094645D01*
X157512437Y-66328403D01*
X157516502Y-66329311D01*
X158645401Y-66601344D01*
X158649360Y-66602369D01*
X159768440Y-66912378D01*
X159772424Y-66913555D01*
X160880370Y-67261175D01*
X160884313Y-67262485D01*
X161979920Y-67647339D01*
X161983782Y-67648770D01*
X162822129Y-67975464D01*
X163065721Y-68070390D01*
X163069597Y-68071976D01*
X164136723Y-68529916D01*
X164140454Y-68531592D01*
X165023273Y-68946287D01*
X165191473Y-69025297D01*
X165195227Y-69027138D01*
X166228991Y-69556068D01*
X166232620Y-69558003D01*
X167247943Y-70121554D01*
X167251519Y-70123618D01*
X168029917Y-70590730D01*
X168247201Y-70721121D01*
X168250754Y-70723336D01*
X169225694Y-71354131D01*
X169229101Y-71356418D01*
X170182187Y-72019785D01*
X170185579Y-72022233D01*
X170953709Y-72596328D01*
X171115678Y-72717382D01*
X171118977Y-72719936D01*
X171980880Y-73410690D01*
X172025064Y-73446100D01*
X172028279Y-73448767D01*
X172817756Y-74126510D01*
X172909342Y-74205134D01*
X172912474Y-74207916D01*
X173529331Y-74774761D01*
X173767457Y-74993580D01*
X173770486Y-74996458D01*
X174598519Y-75810623D01*
X174601410Y-75813564D01*
X175241798Y-76487251D01*
X175401424Y-76655178D01*
X175404258Y-76658262D01*
X176162284Y-77511660D01*
X176175373Y-77526395D01*
X176178090Y-77529559D01*
X176617369Y-78059098D01*
X176919490Y-78423297D01*
X176922109Y-78426566D01*
X177632847Y-79344764D01*
X177635355Y-79348119D01*
X178009979Y-79867424D01*
X178291737Y-80257999D01*
X178314701Y-80289831D01*
X178317092Y-80293266D01*
X178945627Y-81229650D01*
X178964241Y-81257380D01*
X178966508Y-81260885D01*
X179517299Y-82144547D01*
X179580741Y-82246329D01*
X179582887Y-82249906D01*
X179985518Y-82947283D01*
X180163468Y-83255501D01*
X180165499Y-83259160D01*
X180707543Y-84275834D01*
X180711795Y-84283808D01*
X180713695Y-84287522D01*
X181215385Y-85310285D01*
X181225073Y-85330035D01*
X181226851Y-85333820D01*
X181298300Y-85492849D01*
X181702734Y-86393027D01*
X181704385Y-86396876D01*
X182144204Y-87471503D01*
X182145725Y-87475406D01*
X182549006Y-88564301D01*
X182550394Y-88568253D01*
X182916664Y-89670127D01*
X182917918Y-89674124D01*
X183246764Y-90787742D01*
X183247883Y-90791778D01*
X183538939Y-91915902D01*
X183539920Y-91919974D01*
X183792837Y-93053262D01*
X183793680Y-93057365D01*
X184008178Y-94198547D01*
X184008882Y-94202676D01*
X184184716Y-95350457D01*
X184185280Y-95354607D01*
X184322246Y-96507655D01*
X184322670Y-96511823D01*
X184420615Y-97668854D01*
X184420898Y-97673032D01*
X184479712Y-98832731D01*
X184479853Y-98836918D01*
X184499464Y-99997906D01*
X184499464Y-100002094D01*
X184479853Y-101163081D01*
X184479712Y-101167268D01*
X184420898Y-102326967D01*
X184420615Y-102331145D01*
X184322670Y-103488176D01*
X184322246Y-103492344D01*
X184185280Y-104645392D01*
X184184716Y-104649542D01*
X184008882Y-105797323D01*
X184008178Y-105801452D01*
X183793680Y-106942634D01*
X183792837Y-106946737D01*
X183539920Y-108080025D01*
X183538939Y-108084097D01*
X183247883Y-109208221D01*
X183246764Y-109212257D01*
X182917918Y-110325875D01*
X182916664Y-110329872D01*
X182817016Y-110629650D01*
X182710358Y-110950519D01*
X182550400Y-111431731D01*
X182549012Y-111435683D01*
X182145725Y-112524593D01*
X182144204Y-112528496D01*
X181704385Y-113603123D01*
X181702734Y-113606972D01*
X181226854Y-114666173D01*
X181225073Y-114669964D01*
X180713703Y-115712462D01*
X180711795Y-115716191D01*
X180165501Y-116740836D01*
X180163468Y-116744498D01*
X179582896Y-117750078D01*
X179580741Y-117753670D01*
X178966516Y-118739103D01*
X178964241Y-118742619D01*
X178317094Y-119706730D01*
X178314701Y-119710168D01*
X177635355Y-120651880D01*
X177632847Y-120655235D01*
X176922109Y-121573433D01*
X176919490Y-121576702D01*
X176178102Y-122470426D01*
X176175373Y-122473604D01*
X175404258Y-123341737D01*
X175401424Y-123344821D01*
X174601433Y-124186412D01*
X174598497Y-124189399D01*
X173770493Y-125003534D01*
X173767457Y-125006419D01*
X172912474Y-125792083D01*
X172909342Y-125794865D01*
X172028288Y-126551225D01*
X172025064Y-126553899D01*
X171118990Y-127280053D01*
X171115678Y-127282617D01*
X170185584Y-127977763D01*
X170182187Y-127980214D01*
X169229136Y-128643557D01*
X169225659Y-128645891D01*
X168250756Y-129276662D01*
X168247201Y-129278878D01*
X167251544Y-129876366D01*
X167247917Y-129878460D01*
X166232654Y-130441978D01*
X166228957Y-130443949D01*
X165195233Y-130972858D01*
X165191473Y-130974702D01*
X164140499Y-131468386D01*
X164136678Y-131470103D01*
X163069597Y-131928023D01*
X163065721Y-131929609D01*
X161983815Y-132351217D01*
X161979887Y-132352672D01*
X160884329Y-132737508D01*
X160880354Y-132738829D01*
X159772441Y-133086439D01*
X159768424Y-133087625D01*
X158649408Y-133397617D01*
X158645353Y-133398667D01*
X157516514Y-133670685D01*
X157512426Y-133671598D01*
X156374989Y-133905347D01*
X156370873Y-133906120D01*
X155226266Y-134101307D01*
X155222125Y-134101942D01*
X154071522Y-134258367D01*
X154067363Y-134258861D01*
X152912144Y-134376336D01*
X152907970Y-134376689D01*
X151749456Y-134455078D01*
X151745273Y-134455290D01*
X150584780Y-134494508D01*
X150580592Y-134494579D01*
X149419408Y-134494579D01*
X149415220Y-134494508D01*
X148254726Y-134455290D01*
X148250543Y-134455078D01*
X147092029Y-134376689D01*
X147087855Y-134376336D01*
X145932636Y-134258861D01*
X145928477Y-134258367D01*
X144777874Y-134101942D01*
X144773733Y-134101307D01*
X143629126Y-133906120D01*
X143625010Y-133905347D01*
X142487573Y-133671598D01*
X142483485Y-133670685D01*
X141354646Y-133398667D01*
X141350591Y-133397617D01*
X140231575Y-133087625D01*
X140227558Y-133086439D01*
X139119645Y-132738829D01*
X139115670Y-132737508D01*
X138020112Y-132352672D01*
X138016184Y-132351217D01*
X136934278Y-131929609D01*
X136930402Y-131928023D01*
X136193878Y-131611956D01*
X135863303Y-131470095D01*
X135859518Y-131468394D01*
X135152985Y-131136508D01*
X134808526Y-130974702D01*
X134804766Y-130972858D01*
X133771042Y-130443949D01*
X133767358Y-130441985D01*
X132752075Y-129878455D01*
X132748455Y-129876366D01*
X131752798Y-129278878D01*
X131749243Y-129276662D01*
X131366534Y-129029045D01*
X130774319Y-128645877D01*
X130770885Y-128643571D01*
X129817812Y-127980214D01*
X129814415Y-127977763D01*
X128884321Y-127282617D01*
X128881009Y-127280053D01*
X128651410Y-127096046D01*
X128126442Y-126675321D01*
X145149500Y-126675321D01*
X145149500Y-128324678D01*
X145164032Y-128397735D01*
X145164033Y-128397739D01*
X145164034Y-128397740D01*
X145219399Y-128480601D01*
X145301263Y-128535300D01*
X145302260Y-128535966D01*
X145302264Y-128535967D01*
X145375321Y-128550499D01*
X145375324Y-128550500D01*
X145375326Y-128550500D01*
X147024676Y-128550500D01*
X147024677Y-128550499D01*
X147097740Y-128535966D01*
X147180601Y-128480601D01*
X147235966Y-128397740D01*
X147250500Y-128324674D01*
X147250500Y-127500000D01*
X152744417Y-127500000D01*
X152764699Y-127705932D01*
X152764700Y-127705934D01*
X152824768Y-127903954D01*
X152922315Y-128086450D01*
X152922317Y-128086452D01*
X153053589Y-128246410D01*
X153148956Y-128324674D01*
X153213550Y-128377685D01*
X153396046Y-128475232D01*
X153594066Y-128535300D01*
X153594065Y-128535300D01*
X153612529Y-128537118D01*
X153800000Y-128555583D01*
X154005934Y-128535300D01*
X154203954Y-128475232D01*
X154386450Y-128377685D01*
X154546410Y-128246410D01*
X154677685Y-128086450D01*
X154775232Y-127903954D01*
X154835300Y-127705934D01*
X154855583Y-127500000D01*
X154835300Y-127294066D01*
X154775232Y-127096046D01*
X154677685Y-126913550D01*
X154625702Y-126850209D01*
X154546410Y-126753589D01*
X154386452Y-126622317D01*
X154386453Y-126622317D01*
X154386450Y-126622315D01*
X154203954Y-126524768D01*
X154005934Y-126464700D01*
X154005932Y-126464699D01*
X154005934Y-126464699D01*
X153800000Y-126444417D01*
X153594067Y-126464699D01*
X153396043Y-126524769D01*
X153344008Y-126552583D01*
X153213550Y-126622315D01*
X153213548Y-126622316D01*
X153213547Y-126622317D01*
X153053589Y-126753589D01*
X152922317Y-126913547D01*
X152824769Y-127096043D01*
X152764699Y-127294067D01*
X152744417Y-127500000D01*
X147250500Y-127500000D01*
X147250500Y-126675326D01*
X147250500Y-126675323D01*
X147250499Y-126675321D01*
X147235967Y-126602264D01*
X147235966Y-126602260D01*
X147227941Y-126590250D01*
X147180601Y-126519399D01*
X147098737Y-126464700D01*
X147097739Y-126464033D01*
X147097735Y-126464032D01*
X147024677Y-126449500D01*
X147024674Y-126449500D01*
X145375326Y-126449500D01*
X145375323Y-126449500D01*
X145302264Y-126464032D01*
X145302260Y-126464033D01*
X145219399Y-126519399D01*
X145164033Y-126602260D01*
X145164032Y-126602264D01*
X145149500Y-126675321D01*
X128126442Y-126675321D01*
X127974933Y-126553897D01*
X127971711Y-126551225D01*
X127940893Y-126524769D01*
X127090657Y-125794865D01*
X127087525Y-125792083D01*
X126232542Y-125006419D01*
X126229506Y-125003534D01*
X126130279Y-124905969D01*
X125401479Y-124189376D01*
X125398589Y-124186435D01*
X124598575Y-123344821D01*
X124595741Y-123341737D01*
X124462500Y-123191732D01*
X123848073Y-122500000D01*
X155994675Y-122500000D01*
X156013962Y-122892591D01*
X156013962Y-122892597D01*
X156013963Y-122892599D01*
X156071637Y-123281406D01*
X156167143Y-123662684D01*
X156299561Y-124032770D01*
X156299562Y-124032772D01*
X156467620Y-124388100D01*
X156491560Y-124428041D01*
X156669694Y-124725239D01*
X156878231Y-125006419D01*
X156903846Y-125040956D01*
X157167807Y-125332192D01*
X157377408Y-125522163D01*
X157459049Y-125596158D01*
X157774761Y-125830306D01*
X157774763Y-125830307D01*
X158111899Y-126032379D01*
X158111902Y-126032380D01*
X158111903Y-126032381D01*
X158467228Y-126200438D01*
X158837316Y-126332857D01*
X159218600Y-126428364D01*
X159607409Y-126486038D01*
X160000000Y-126505325D01*
X160392591Y-126486038D01*
X160781400Y-126428364D01*
X161162684Y-126332857D01*
X161532772Y-126200438D01*
X161882562Y-126034999D01*
X162817250Y-126034999D01*
X162817250Y-126035000D01*
X162836170Y-126178708D01*
X162836171Y-126178712D01*
X162891637Y-126312622D01*
X162891638Y-126312624D01*
X162891639Y-126312625D01*
X162979879Y-126427621D01*
X163094875Y-126515861D01*
X163094876Y-126515861D01*
X163094877Y-126515862D01*
X163116379Y-126524768D01*
X163228791Y-126571330D01*
X163355780Y-126588048D01*
X163372499Y-126590250D01*
X163372500Y-126590250D01*
X163372501Y-126590250D01*
X163387477Y-126588278D01*
X163516209Y-126571330D01*
X163650125Y-126515861D01*
X163765121Y-126427621D01*
X163853361Y-126312625D01*
X163908830Y-126178709D01*
X163927750Y-126035000D01*
X163908830Y-125891291D01*
X163853361Y-125757375D01*
X163765121Y-125642379D01*
X163650125Y-125554139D01*
X163650124Y-125554138D01*
X163650122Y-125554137D01*
X163516212Y-125498671D01*
X163516210Y-125498670D01*
X163516209Y-125498670D01*
X163444354Y-125489210D01*
X163372501Y-125479750D01*
X163372499Y-125479750D01*
X163228791Y-125498670D01*
X163228787Y-125498671D01*
X163094877Y-125554137D01*
X162979879Y-125642379D01*
X162891637Y-125757377D01*
X162836171Y-125891287D01*
X162836170Y-125891291D01*
X162817250Y-126034999D01*
X161882562Y-126034999D01*
X161888097Y-126032381D01*
X162225239Y-125830306D01*
X162540951Y-125596158D01*
X162832192Y-125332192D01*
X163096158Y-125040951D01*
X163330306Y-124725239D01*
X163532381Y-124388097D01*
X163700438Y-124032772D01*
X163832857Y-123662684D01*
X163928364Y-123281400D01*
X163986038Y-122892591D01*
X164005325Y-122500000D01*
X163986038Y-122107409D01*
X163928364Y-121718600D01*
X163832857Y-121337316D01*
X163700438Y-120967228D01*
X163532381Y-120611903D01*
X163501282Y-120560018D01*
X163478159Y-120521440D01*
X169378842Y-120521440D01*
X169378842Y-120521441D01*
X169398515Y-120733751D01*
X169456867Y-120938833D01*
X169456867Y-120938835D01*
X169551903Y-121129694D01*
X169570128Y-121153827D01*
X169680399Y-121299848D01*
X169837969Y-121443493D01*
X170019252Y-121555739D01*
X170218073Y-121632762D01*
X170427661Y-121671941D01*
X170427663Y-121671941D01*
X170640880Y-121671941D01*
X170640881Y-121671941D01*
X170683996Y-121663881D01*
X170753510Y-121670910D01*
X170808189Y-121714407D01*
X170830673Y-121780560D01*
X170813821Y-121848368D01*
X170794464Y-121873450D01*
X170670157Y-121997757D01*
X170632575Y-122044394D01*
X170572849Y-122175173D01*
X170572848Y-122175178D01*
X170552388Y-122317492D01*
X170572848Y-122459805D01*
X170572849Y-122459810D01*
X170632575Y-122590589D01*
X170670155Y-122637224D01*
X170670159Y-122637228D01*
X171163594Y-123130664D01*
X171163595Y-123130664D01*
X171888183Y-122406076D01*
X171910989Y-122491186D01*
X171970232Y-122593798D01*
X172054016Y-122677582D01*
X172156628Y-122736825D01*
X172241736Y-122759630D01*
X171517149Y-123484218D01*
X172010589Y-123977658D01*
X172057224Y-124015238D01*
X172188003Y-124074964D01*
X172188008Y-124074965D01*
X172330322Y-124095425D01*
X172472635Y-124074965D01*
X172472640Y-124074964D01*
X172603419Y-124015238D01*
X172650054Y-123977658D01*
X173143494Y-123484218D01*
X173143494Y-123484217D01*
X172418907Y-122759629D01*
X172504016Y-122736825D01*
X172606628Y-122677582D01*
X172690412Y-122593798D01*
X172749655Y-122491186D01*
X172772460Y-122406077D01*
X173497047Y-123130664D01*
X173990484Y-122637228D01*
X173990488Y-122637224D01*
X174028068Y-122590589D01*
X174087794Y-122459810D01*
X174087795Y-122459805D01*
X174108255Y-122317492D01*
X174087795Y-122175178D01*
X174087794Y-122175173D01*
X174028068Y-122044394D01*
X173990488Y-121997759D01*
X173497048Y-121504319D01*
X172772460Y-122228906D01*
X172749655Y-122143798D01*
X172690412Y-122041186D01*
X172606628Y-121957402D01*
X172504016Y-121898159D01*
X172418906Y-121875353D01*
X173143494Y-121150765D01*
X173143494Y-121150764D01*
X172650058Y-120657329D01*
X172650054Y-120657325D01*
X172603419Y-120619745D01*
X172472640Y-120560019D01*
X172472635Y-120560018D01*
X172330322Y-120539558D01*
X172188008Y-120560018D01*
X172188003Y-120560019D01*
X172057224Y-120619745D01*
X172010587Y-120657327D01*
X171885890Y-120782023D01*
X171824566Y-120815507D01*
X171754875Y-120810522D01*
X171698941Y-120768651D01*
X171674525Y-120703186D01*
X171674737Y-120682911D01*
X171689700Y-120521441D01*
X171670027Y-120309131D01*
X171611676Y-120104052D01*
X171611674Y-120104047D01*
X171611674Y-120104046D01*
X171516638Y-119913187D01*
X171388143Y-119743034D01*
X171350226Y-119708468D01*
X171230573Y-119599389D01*
X171049290Y-119487143D01*
X171049288Y-119487142D01*
X170949879Y-119448631D01*
X170850469Y-119410120D01*
X170640881Y-119370941D01*
X170427661Y-119370941D01*
X170218073Y-119410120D01*
X170218070Y-119410120D01*
X170218070Y-119410121D01*
X170019253Y-119487142D01*
X170019251Y-119487143D01*
X169837970Y-119599388D01*
X169680398Y-119743034D01*
X169551903Y-119913187D01*
X169456867Y-120104046D01*
X169456867Y-120104048D01*
X169398515Y-120309130D01*
X169378842Y-120521440D01*
X163478159Y-120521440D01*
X163356368Y-120318243D01*
X163330306Y-120274761D01*
X163096158Y-119959049D01*
X163096153Y-119959043D01*
X162832192Y-119667807D01*
X162540956Y-119403846D01*
X162225236Y-119169692D01*
X161888100Y-118967620D01*
X161532772Y-118799562D01*
X161532770Y-118799561D01*
X161162684Y-118667143D01*
X160781406Y-118571637D01*
X160781401Y-118571636D01*
X160781400Y-118571636D01*
X160637256Y-118550254D01*
X160392599Y-118513963D01*
X160392597Y-118513962D01*
X160392591Y-118513962D01*
X160000000Y-118494675D01*
X159607409Y-118513962D01*
X159607404Y-118513962D01*
X159607398Y-118513963D01*
X159515045Y-118527662D01*
X159445843Y-118518027D01*
X159392835Y-118472508D01*
X159372852Y-118405557D01*
X159392238Y-118338430D01*
X159425723Y-118303433D01*
X159556877Y-118211598D01*
X159711598Y-118056877D01*
X159837102Y-117877639D01*
X159929575Y-117679330D01*
X159986207Y-117467977D01*
X160005277Y-117250000D01*
X160005277Y-117249997D01*
X163994723Y-117249997D01*
X163994723Y-117250002D01*
X164013793Y-117467975D01*
X164013793Y-117467979D01*
X164070422Y-117679322D01*
X164070424Y-117679326D01*
X164070425Y-117679330D01*
X164082830Y-117705932D01*
X164162897Y-117877638D01*
X164162898Y-117877639D01*
X164288402Y-118056877D01*
X164443123Y-118211598D01*
X164622361Y-118337102D01*
X164820670Y-118429575D01*
X165032023Y-118486207D01*
X165214926Y-118502208D01*
X165249998Y-118505277D01*
X165250000Y-118505277D01*
X165250002Y-118505277D01*
X165278254Y-118502805D01*
X165467977Y-118486207D01*
X165679330Y-118429575D01*
X165877639Y-118337102D01*
X166056877Y-118211598D01*
X166211598Y-118056877D01*
X166337102Y-117877639D01*
X166429575Y-117679330D01*
X166486207Y-117467977D01*
X166505277Y-117250000D01*
X166486207Y-117032023D01*
X166429575Y-116820670D01*
X166337102Y-116622362D01*
X166337100Y-116622359D01*
X166337099Y-116622357D01*
X166211599Y-116443124D01*
X166141446Y-116372971D01*
X166056877Y-116288402D01*
X165877639Y-116162898D01*
X165877640Y-116162898D01*
X165877638Y-116162897D01*
X165738542Y-116098036D01*
X165679330Y-116070425D01*
X165679326Y-116070424D01*
X165679322Y-116070422D01*
X165467977Y-116013793D01*
X165250002Y-115994723D01*
X165249998Y-115994723D01*
X165104682Y-116007436D01*
X165032023Y-116013793D01*
X165032020Y-116013793D01*
X164820677Y-116070422D01*
X164820668Y-116070426D01*
X164622361Y-116162898D01*
X164622357Y-116162900D01*
X164443121Y-116288402D01*
X164288402Y-116443121D01*
X164162900Y-116622357D01*
X164162898Y-116622361D01*
X164070426Y-116820668D01*
X164070422Y-116820677D01*
X164013793Y-117032020D01*
X164013793Y-117032024D01*
X163994723Y-117249997D01*
X160005277Y-117249997D01*
X159986207Y-117032023D01*
X159929575Y-116820670D01*
X159837102Y-116622362D01*
X159837100Y-116622359D01*
X159837099Y-116622357D01*
X159711599Y-116443124D01*
X159641446Y-116372971D01*
X159556877Y-116288402D01*
X159377639Y-116162898D01*
X159377640Y-116162898D01*
X159377638Y-116162897D01*
X159238542Y-116098036D01*
X159179330Y-116070425D01*
X159179326Y-116070424D01*
X159179322Y-116070422D01*
X158967977Y-116013793D01*
X158750002Y-115994723D01*
X158749998Y-115994723D01*
X158604682Y-116007436D01*
X158532023Y-116013793D01*
X158532020Y-116013793D01*
X158320677Y-116070422D01*
X158320668Y-116070426D01*
X158122361Y-116162898D01*
X158122357Y-116162900D01*
X157943121Y-116288402D01*
X157788402Y-116443121D01*
X157662900Y-116622357D01*
X157662898Y-116622361D01*
X157570426Y-116820668D01*
X157570422Y-116820677D01*
X157513793Y-117032020D01*
X157513793Y-117032024D01*
X157494723Y-117249997D01*
X157494723Y-117250002D01*
X157513793Y-117467975D01*
X157513793Y-117467979D01*
X157570422Y-117679322D01*
X157570424Y-117679326D01*
X157570425Y-117679330D01*
X157582830Y-117705932D01*
X157662897Y-117877638D01*
X157662898Y-117877639D01*
X157788402Y-118056877D01*
X157943123Y-118211598D01*
X158122361Y-118337102D01*
X158320670Y-118429575D01*
X158532023Y-118486207D01*
X158619182Y-118493832D01*
X158684251Y-118519284D01*
X158725230Y-118575875D01*
X158729108Y-118645637D01*
X158694654Y-118706421D01*
X158650150Y-118734111D01*
X158467241Y-118799557D01*
X158467227Y-118799562D01*
X158111899Y-118967620D01*
X157774763Y-119169692D01*
X157459043Y-119403846D01*
X157167807Y-119667807D01*
X156903846Y-119959043D01*
X156669692Y-120274763D01*
X156467620Y-120611899D01*
X156299562Y-120967227D01*
X156299561Y-120967229D01*
X156167143Y-121337315D01*
X156071637Y-121718593D01*
X156029227Y-122004503D01*
X156013962Y-122107409D01*
X155994675Y-122500000D01*
X123848073Y-122500000D01*
X123824610Y-122473585D01*
X123821913Y-122470444D01*
X123080509Y-121576702D01*
X123077890Y-121573433D01*
X122367152Y-120655235D01*
X122364644Y-120651880D01*
X121969441Y-120104048D01*
X121685287Y-119710153D01*
X121682905Y-119706730D01*
X121035741Y-118742593D01*
X121033500Y-118739129D01*
X120419238Y-117753637D01*
X120417123Y-117750111D01*
X119836518Y-116744475D01*
X119834511Y-116740860D01*
X119288184Y-115716153D01*
X119286315Y-115712500D01*
X119164044Y-115463233D01*
X120863021Y-115463233D01*
X120863022Y-115463235D01*
X120886863Y-115605017D01*
X120886865Y-115605023D01*
X120911097Y-115659800D01*
X121260007Y-116264128D01*
X121260008Y-116264128D01*
X122147444Y-115751767D01*
X122147444Y-115839880D01*
X122178111Y-115954330D01*
X122237354Y-116056942D01*
X122321138Y-116140726D01*
X122397441Y-116184780D01*
X121510007Y-116697141D01*
X121510007Y-116697142D01*
X121858919Y-117301475D01*
X121858922Y-117301480D01*
X121894238Y-117349845D01*
X121894241Y-117349849D01*
X122005108Y-117441389D01*
X122137281Y-117497987D01*
X122280041Y-117515058D01*
X122280043Y-117515057D01*
X122421825Y-117491216D01*
X122421831Y-117491214D01*
X122476608Y-117466982D01*
X122852435Y-117249997D01*
X133494723Y-117249997D01*
X133494723Y-117250002D01*
X133513793Y-117467975D01*
X133513793Y-117467979D01*
X133570422Y-117679322D01*
X133570424Y-117679326D01*
X133570425Y-117679330D01*
X133582830Y-117705932D01*
X133662897Y-117877638D01*
X133662898Y-117877639D01*
X133788402Y-118056877D01*
X133943123Y-118211598D01*
X134122361Y-118337102D01*
X134320670Y-118429575D01*
X134532023Y-118486207D01*
X134714926Y-118502208D01*
X134749998Y-118505277D01*
X134750000Y-118505277D01*
X134750002Y-118505277D01*
X134778254Y-118502805D01*
X134967977Y-118486207D01*
X135179330Y-118429575D01*
X135377639Y-118337102D01*
X135556877Y-118211598D01*
X135711598Y-118056877D01*
X135837102Y-117877639D01*
X135929575Y-117679330D01*
X135986207Y-117467977D01*
X136005277Y-117250000D01*
X136005277Y-117249997D01*
X139994723Y-117249997D01*
X139994723Y-117250002D01*
X140013793Y-117467975D01*
X140013793Y-117467979D01*
X140070422Y-117679322D01*
X140070424Y-117679326D01*
X140070425Y-117679330D01*
X140082830Y-117705932D01*
X140162897Y-117877638D01*
X140162898Y-117877639D01*
X140288402Y-118056877D01*
X140443123Y-118211598D01*
X140622361Y-118337102D01*
X140820670Y-118429575D01*
X141032023Y-118486207D01*
X141214926Y-118502208D01*
X141249998Y-118505277D01*
X141250000Y-118505277D01*
X141250002Y-118505277D01*
X141278254Y-118502805D01*
X141467977Y-118486207D01*
X141679330Y-118429575D01*
X141877639Y-118337102D01*
X142056877Y-118211598D01*
X142211598Y-118056877D01*
X142337102Y-117877639D01*
X142429575Y-117679330D01*
X142477626Y-117500000D01*
X146944417Y-117500000D01*
X146964699Y-117705932D01*
X146979180Y-117753670D01*
X147024768Y-117903954D01*
X147122315Y-118086450D01*
X147156969Y-118128677D01*
X147253589Y-118246410D01*
X147323068Y-118303429D01*
X147413550Y-118377685D01*
X147596046Y-118475232D01*
X147794066Y-118535300D01*
X147794065Y-118535300D01*
X147812529Y-118537118D01*
X148000000Y-118555583D01*
X148205934Y-118535300D01*
X148403954Y-118475232D01*
X148586450Y-118377685D01*
X148746410Y-118246410D01*
X148877685Y-118086450D01*
X148890642Y-118062208D01*
X148939604Y-118012365D01*
X149007742Y-117996904D01*
X149073421Y-118020736D01*
X149109358Y-118062209D01*
X149122315Y-118086451D01*
X149253589Y-118246410D01*
X149323068Y-118303429D01*
X149413550Y-118377685D01*
X149596046Y-118475232D01*
X149794066Y-118535300D01*
X149794065Y-118535300D01*
X149812529Y-118537118D01*
X150000000Y-118555583D01*
X150205934Y-118535300D01*
X150403954Y-118475232D01*
X150586450Y-118377685D01*
X150746410Y-118246410D01*
X150877685Y-118086450D01*
X150890642Y-118062208D01*
X150939604Y-118012365D01*
X151007742Y-117996904D01*
X151073421Y-118020736D01*
X151109358Y-118062209D01*
X151122315Y-118086451D01*
X151253589Y-118246410D01*
X151323068Y-118303429D01*
X151413550Y-118377685D01*
X151596046Y-118475232D01*
X151794066Y-118535300D01*
X151794065Y-118535300D01*
X151812529Y-118537118D01*
X152000000Y-118555583D01*
X152205934Y-118535300D01*
X152403954Y-118475232D01*
X152586450Y-118377685D01*
X152746410Y-118246410D01*
X152877685Y-118086450D01*
X152975232Y-117903954D01*
X153035300Y-117705934D01*
X153055583Y-117500000D01*
X153035300Y-117294066D01*
X152975232Y-117096046D01*
X152877685Y-116913550D01*
X152801459Y-116820668D01*
X152746410Y-116753589D01*
X152586452Y-116622317D01*
X152586453Y-116622317D01*
X152586450Y-116622315D01*
X152403954Y-116524768D01*
X152205934Y-116464700D01*
X152205932Y-116464699D01*
X152205934Y-116464699D01*
X152000000Y-116444417D01*
X151794067Y-116464699D01*
X151596043Y-116524769D01*
X151485898Y-116583643D01*
X151413550Y-116622315D01*
X151413548Y-116622316D01*
X151413547Y-116622317D01*
X151253589Y-116753589D01*
X151122315Y-116913548D01*
X151109357Y-116937792D01*
X151060394Y-116987635D01*
X150992256Y-117003095D01*
X150926577Y-116979262D01*
X150890643Y-116937792D01*
X150877684Y-116913548D01*
X150746410Y-116753589D01*
X150586452Y-116622317D01*
X150586453Y-116622317D01*
X150586450Y-116622315D01*
X150403954Y-116524768D01*
X150205934Y-116464700D01*
X150205932Y-116464699D01*
X150205934Y-116464699D01*
X150000000Y-116444417D01*
X149794067Y-116464699D01*
X149596043Y-116524769D01*
X149485898Y-116583643D01*
X149413550Y-116622315D01*
X149413548Y-116622316D01*
X149413547Y-116622317D01*
X149253589Y-116753589D01*
X149122315Y-116913548D01*
X149109357Y-116937792D01*
X149060394Y-116987635D01*
X148992256Y-117003095D01*
X148926577Y-116979262D01*
X148890643Y-116937792D01*
X148877684Y-116913548D01*
X148746410Y-116753589D01*
X148586452Y-116622317D01*
X148586453Y-116622317D01*
X148586450Y-116622315D01*
X148403954Y-116524768D01*
X148205934Y-116464700D01*
X148205932Y-116464699D01*
X148205934Y-116464699D01*
X148000000Y-116444417D01*
X147794067Y-116464699D01*
X147596043Y-116524769D01*
X147485898Y-116583643D01*
X147413550Y-116622315D01*
X147413548Y-116622316D01*
X147413547Y-116622317D01*
X147253589Y-116753589D01*
X147122317Y-116913547D01*
X147122316Y-116913548D01*
X147122315Y-116913550D01*
X147087191Y-116979262D01*
X147024769Y-117096043D01*
X146964699Y-117294067D01*
X146944417Y-117500000D01*
X142477626Y-117500000D01*
X142486207Y-117467977D01*
X142505277Y-117250000D01*
X142486207Y-117032023D01*
X142429575Y-116820670D01*
X142337102Y-116622362D01*
X142337100Y-116622359D01*
X142337099Y-116622357D01*
X142211599Y-116443124D01*
X142141446Y-116372971D01*
X142056877Y-116288402D01*
X141877639Y-116162898D01*
X141877640Y-116162898D01*
X141877638Y-116162897D01*
X141738542Y-116098036D01*
X141679330Y-116070425D01*
X141679326Y-116070424D01*
X141679322Y-116070422D01*
X141467977Y-116013793D01*
X141250002Y-115994723D01*
X141249998Y-115994723D01*
X141104682Y-116007436D01*
X141032023Y-116013793D01*
X141032020Y-116013793D01*
X140820677Y-116070422D01*
X140820668Y-116070426D01*
X140622361Y-116162898D01*
X140622357Y-116162900D01*
X140443121Y-116288402D01*
X140288402Y-116443121D01*
X140162900Y-116622357D01*
X140162898Y-116622361D01*
X140070426Y-116820668D01*
X140070422Y-116820677D01*
X140013793Y-117032020D01*
X140013793Y-117032024D01*
X139994723Y-117249997D01*
X136005277Y-117249997D01*
X135986207Y-117032023D01*
X135929575Y-116820670D01*
X135837102Y-116622362D01*
X135837100Y-116622359D01*
X135837099Y-116622357D01*
X135711599Y-116443124D01*
X135641446Y-116372971D01*
X135556877Y-116288402D01*
X135377639Y-116162898D01*
X135377640Y-116162898D01*
X135377638Y-116162897D01*
X135238542Y-116098036D01*
X135179330Y-116070425D01*
X135179326Y-116070424D01*
X135179322Y-116070422D01*
X134967977Y-116013793D01*
X134750002Y-115994723D01*
X134749998Y-115994723D01*
X134604682Y-116007436D01*
X134532023Y-116013793D01*
X134532020Y-116013793D01*
X134320677Y-116070422D01*
X134320668Y-116070426D01*
X134122361Y-116162898D01*
X134122357Y-116162900D01*
X133943121Y-116288402D01*
X133788402Y-116443121D01*
X133662900Y-116622357D01*
X133662898Y-116622361D01*
X133570426Y-116820668D01*
X133570422Y-116820677D01*
X133513793Y-117032020D01*
X133513793Y-117032024D01*
X133494723Y-117249997D01*
X122852435Y-117249997D01*
X123080936Y-117118071D01*
X123080936Y-117118070D01*
X122568577Y-116230636D01*
X122656688Y-116230636D01*
X122771138Y-116199969D01*
X122873750Y-116140726D01*
X122957534Y-116056942D01*
X123001589Y-115980636D01*
X123513949Y-116868071D01*
X123513950Y-116868071D01*
X124118283Y-116519160D01*
X124118288Y-116519157D01*
X124166653Y-116483841D01*
X124166657Y-116483838D01*
X124258197Y-116372971D01*
X124314795Y-116240798D01*
X124331866Y-116098038D01*
X124331865Y-116098036D01*
X124308024Y-115956254D01*
X124308022Y-115956248D01*
X124283790Y-115901471D01*
X124195058Y-115747784D01*
X124178585Y-115679884D01*
X124201437Y-115613857D01*
X124256358Y-115570667D01*
X124325912Y-115564025D01*
X124347237Y-115570156D01*
X124480951Y-115621957D01*
X124690539Y-115661136D01*
X124690541Y-115661136D01*
X124903757Y-115661136D01*
X124903759Y-115661136D01*
X125113347Y-115621957D01*
X125312168Y-115544934D01*
X125493451Y-115432688D01*
X125651021Y-115289043D01*
X125779515Y-115118891D01*
X125795124Y-115087543D01*
X125874552Y-114928030D01*
X125874552Y-114928029D01*
X125874554Y-114928025D01*
X125932905Y-114722946D01*
X125952578Y-114510636D01*
X125949673Y-114479289D01*
X174012043Y-114479289D01*
X174012043Y-114479290D01*
X174031716Y-114691600D01*
X174090068Y-114896682D01*
X174090068Y-114896684D01*
X174185104Y-115087543D01*
X174261193Y-115188300D01*
X174313600Y-115257697D01*
X174471170Y-115401342D01*
X174652453Y-115513588D01*
X174851274Y-115590611D01*
X175060862Y-115629790D01*
X175060864Y-115629790D01*
X175274080Y-115629790D01*
X175274082Y-115629790D01*
X175483670Y-115590611D01*
X175617380Y-115538812D01*
X175687003Y-115532949D01*
X175748743Y-115565659D01*
X175782998Y-115626555D01*
X175778893Y-115696304D01*
X175769562Y-115716437D01*
X175680829Y-115870128D01*
X175656598Y-115924902D01*
X175656596Y-115924908D01*
X175632755Y-116066690D01*
X175632754Y-116066692D01*
X175649825Y-116209452D01*
X175706423Y-116341625D01*
X175797963Y-116452492D01*
X175797967Y-116452495D01*
X175846332Y-116487811D01*
X175846337Y-116487814D01*
X176450669Y-116836725D01*
X176450670Y-116836725D01*
X176963032Y-115949290D01*
X177007087Y-116025596D01*
X177090871Y-116109380D01*
X177193483Y-116168623D01*
X177307933Y-116199290D01*
X177396042Y-116199290D01*
X176883683Y-117086724D01*
X176883683Y-117086725D01*
X177488012Y-117435636D01*
X177542789Y-117459868D01*
X177542795Y-117459870D01*
X177684577Y-117483711D01*
X177684579Y-117483712D01*
X177827339Y-117466641D01*
X177959512Y-117410043D01*
X178070379Y-117318503D01*
X178070382Y-117318499D01*
X178105698Y-117270134D01*
X178105701Y-117270129D01*
X178454612Y-116665796D01*
X178454612Y-116665795D01*
X177567178Y-116153434D01*
X177643483Y-116109380D01*
X177727267Y-116025596D01*
X177786510Y-115922984D01*
X177817177Y-115808534D01*
X177817177Y-115720422D01*
X178704611Y-116232782D01*
X178704612Y-116232782D01*
X179053523Y-115628454D01*
X179077755Y-115573677D01*
X179077757Y-115573671D01*
X179101598Y-115431889D01*
X179101599Y-115431887D01*
X179084528Y-115289127D01*
X179027930Y-115156954D01*
X178936390Y-115046087D01*
X178936386Y-115046084D01*
X178888021Y-115010768D01*
X178888016Y-115010765D01*
X178283683Y-114661853D01*
X178283682Y-114661853D01*
X177771321Y-115549287D01*
X177727267Y-115472984D01*
X177643483Y-115389200D01*
X177540871Y-115329957D01*
X177426421Y-115299290D01*
X177338309Y-115299290D01*
X177850669Y-114411854D01*
X177850669Y-114411853D01*
X177246341Y-114062943D01*
X177191564Y-114038711D01*
X177191558Y-114038709D01*
X177049776Y-114014868D01*
X177049774Y-114014867D01*
X176907014Y-114031938D01*
X176774841Y-114088536D01*
X176663974Y-114180076D01*
X176663971Y-114180080D01*
X176628655Y-114228445D01*
X176628652Y-114228450D01*
X176540051Y-114381912D01*
X176489484Y-114430128D01*
X176420877Y-114443350D01*
X176356012Y-114417382D01*
X176315484Y-114360468D01*
X176309193Y-114331353D01*
X176308654Y-114325540D01*
X176303228Y-114266980D01*
X176244877Y-114061901D01*
X176244875Y-114061896D01*
X176244875Y-114061895D01*
X176149839Y-113871036D01*
X176021344Y-113700883D01*
X175863774Y-113557238D01*
X175682491Y-113444992D01*
X175682489Y-113444991D01*
X175560516Y-113397739D01*
X175483670Y-113367969D01*
X175274082Y-113328790D01*
X175060862Y-113328790D01*
X174851274Y-113367969D01*
X174851271Y-113367969D01*
X174851271Y-113367970D01*
X174652454Y-113444991D01*
X174652452Y-113444992D01*
X174471171Y-113557237D01*
X174313599Y-113700883D01*
X174185104Y-113871036D01*
X174090068Y-114061895D01*
X174090068Y-114061897D01*
X174031716Y-114266979D01*
X174012043Y-114479289D01*
X125949673Y-114479289D01*
X125932905Y-114298326D01*
X125874554Y-114093247D01*
X125874552Y-114093242D01*
X125874552Y-114093241D01*
X125779516Y-113902382D01*
X125651021Y-113732229D01*
X125628390Y-113711598D01*
X125493451Y-113588584D01*
X125312168Y-113476338D01*
X125312166Y-113476337D01*
X125173192Y-113422499D01*
X125113347Y-113399315D01*
X124903759Y-113360136D01*
X124690539Y-113360136D01*
X124480951Y-113399315D01*
X124480948Y-113399315D01*
X124480948Y-113399316D01*
X124282131Y-113476337D01*
X124282129Y-113476338D01*
X124100848Y-113588583D01*
X123943276Y-113732229D01*
X123814781Y-113902382D01*
X123719745Y-114093241D01*
X123719745Y-114093243D01*
X123661393Y-114298325D01*
X123655427Y-114362702D01*
X123629640Y-114427639D01*
X123572839Y-114468326D01*
X123503058Y-114471845D01*
X123442452Y-114437079D01*
X123424569Y-114413258D01*
X123335973Y-114259803D01*
X123335965Y-114259791D01*
X123300649Y-114211426D01*
X123300646Y-114211422D01*
X123189779Y-114119882D01*
X123057606Y-114063284D01*
X122914846Y-114046213D01*
X122914844Y-114046214D01*
X122773062Y-114070055D01*
X122773056Y-114070057D01*
X122718279Y-114094289D01*
X122113950Y-114443199D01*
X122113950Y-114443200D01*
X122626312Y-115330636D01*
X122538200Y-115330636D01*
X122423750Y-115361303D01*
X122321138Y-115420546D01*
X122237354Y-115504330D01*
X122193298Y-115580635D01*
X121680937Y-114693199D01*
X121680936Y-114693199D01*
X121076595Y-115042117D01*
X121028234Y-115077430D01*
X121028230Y-115077433D01*
X120936690Y-115188300D01*
X120880092Y-115320473D01*
X120863021Y-115463233D01*
X119164044Y-115463233D01*
X118774911Y-114669933D01*
X118773160Y-114666205D01*
X118297264Y-113606969D01*
X118295614Y-113603123D01*
X118276688Y-113556881D01*
X117946450Y-112749997D01*
X133494723Y-112749997D01*
X133494723Y-112750002D01*
X133502888Y-112843330D01*
X133512403Y-112952094D01*
X133513793Y-112967975D01*
X133513793Y-112967979D01*
X133570422Y-113179322D01*
X133570424Y-113179326D01*
X133570425Y-113179330D01*
X133594455Y-113230862D01*
X133662897Y-113377638D01*
X133662898Y-113377639D01*
X133788402Y-113556877D01*
X133943123Y-113711598D01*
X134122361Y-113837102D01*
X134320670Y-113929575D01*
X134320676Y-113929576D01*
X134320677Y-113929577D01*
X134351364Y-113937799D01*
X134532023Y-113986207D01*
X134714926Y-114002208D01*
X134749998Y-114005277D01*
X134750000Y-114005277D01*
X134750002Y-114005277D01*
X134778254Y-114002805D01*
X134967977Y-113986207D01*
X135179330Y-113929575D01*
X135377639Y-113837102D01*
X135556877Y-113711598D01*
X135711598Y-113556877D01*
X135837102Y-113377639D01*
X135929575Y-113179330D01*
X135986207Y-112967977D01*
X136005277Y-112750000D01*
X136005277Y-112749997D01*
X139994723Y-112749997D01*
X139994723Y-112750002D01*
X140002888Y-112843330D01*
X140012403Y-112952094D01*
X140013793Y-112967975D01*
X140013793Y-112967979D01*
X140070422Y-113179322D01*
X140070424Y-113179326D01*
X140070425Y-113179330D01*
X140094455Y-113230862D01*
X140162897Y-113377638D01*
X140162898Y-113377639D01*
X140288402Y-113556877D01*
X140443123Y-113711598D01*
X140622361Y-113837102D01*
X140820670Y-113929575D01*
X140820676Y-113929576D01*
X140820677Y-113929577D01*
X140851364Y-113937799D01*
X141032023Y-113986207D01*
X141214926Y-114002208D01*
X141249998Y-114005277D01*
X141250000Y-114005277D01*
X141250002Y-114005277D01*
X141278254Y-114002805D01*
X141467977Y-113986207D01*
X141679330Y-113929575D01*
X141877639Y-113837102D01*
X142056877Y-113711598D01*
X142211598Y-113556877D01*
X142270108Y-113473314D01*
X142324681Y-113429693D01*
X142394179Y-113422499D01*
X142456534Y-113454021D01*
X142486241Y-113496989D01*
X142531797Y-113606972D01*
X142534139Y-113612625D01*
X142622379Y-113727621D01*
X142737375Y-113815861D01*
X142871291Y-113871330D01*
X142998280Y-113888048D01*
X143014999Y-113890250D01*
X143015000Y-113890250D01*
X143015001Y-113890250D01*
X143029977Y-113888278D01*
X143158709Y-113871330D01*
X143292625Y-113815861D01*
X143407621Y-113727621D01*
X143495861Y-113612625D01*
X143551330Y-113478709D01*
X143570250Y-113335000D01*
X143569432Y-113328790D01*
X143563842Y-113286328D01*
X143551330Y-113191291D01*
X143507905Y-113086452D01*
X143495862Y-113057377D01*
X143495861Y-113057376D01*
X143495861Y-113057375D01*
X143407621Y-112942379D01*
X143292625Y-112854139D01*
X143292624Y-112854138D01*
X143292622Y-112854137D01*
X143158712Y-112798671D01*
X143158710Y-112798670D01*
X143158709Y-112798670D01*
X143086854Y-112789210D01*
X143015001Y-112779750D01*
X143014999Y-112779750D01*
X142871291Y-112798670D01*
X142871287Y-112798671D01*
X142737376Y-112854138D01*
X142737374Y-112854139D01*
X142702383Y-112880989D01*
X142637214Y-112906183D01*
X142568769Y-112892144D01*
X142518779Y-112843330D01*
X142503116Y-112775239D01*
X142503369Y-112771804D01*
X142505277Y-112749999D01*
X142505277Y-112749997D01*
X142501422Y-112705932D01*
X142486207Y-112532023D01*
X142429575Y-112320670D01*
X142337102Y-112122362D01*
X142337100Y-112122359D01*
X142337099Y-112122357D01*
X142211599Y-111943124D01*
X142182022Y-111913547D01*
X142056877Y-111788402D01*
X141895381Y-111675321D01*
X146949500Y-111675321D01*
X146949500Y-113324678D01*
X146964032Y-113397735D01*
X146964033Y-113397739D01*
X146964034Y-113397740D01*
X147019399Y-113480601D01*
X147101263Y-113535300D01*
X147102260Y-113535966D01*
X147102264Y-113535967D01*
X147175321Y-113550499D01*
X147175324Y-113550500D01*
X147175326Y-113550500D01*
X148824676Y-113550500D01*
X148824677Y-113550499D01*
X148897740Y-113535966D01*
X148980601Y-113480601D01*
X149035966Y-113397740D01*
X149039956Y-113377682D01*
X149051689Y-113318700D01*
X149054026Y-113319164D01*
X149076231Y-113264154D01*
X149133259Y-113223787D01*
X149203059Y-113220660D01*
X149252148Y-113245227D01*
X149302232Y-113286329D01*
X149413550Y-113377685D01*
X149596046Y-113475232D01*
X149794066Y-113535300D01*
X149794065Y-113535300D01*
X149812529Y-113537118D01*
X150000000Y-113555583D01*
X150205934Y-113535300D01*
X150403954Y-113475232D01*
X150586450Y-113377685D01*
X150746410Y-113246410D01*
X150877685Y-113086450D01*
X150890642Y-113062208D01*
X150939604Y-113012365D01*
X151007742Y-112996904D01*
X151073421Y-113020736D01*
X151109358Y-113062209D01*
X151122315Y-113086451D01*
X151253589Y-113246410D01*
X151348956Y-113324674D01*
X151413550Y-113377685D01*
X151596046Y-113475232D01*
X151794066Y-113535300D01*
X151794065Y-113535300D01*
X151812529Y-113537118D01*
X152000000Y-113555583D01*
X152205934Y-113535300D01*
X152403954Y-113475232D01*
X152586450Y-113377685D01*
X152746410Y-113246410D01*
X152877685Y-113086450D01*
X152975232Y-112903954D01*
X153021934Y-112749997D01*
X157494723Y-112749997D01*
X157494723Y-112750002D01*
X157502888Y-112843330D01*
X157512403Y-112952094D01*
X157513793Y-112967975D01*
X157513793Y-112967979D01*
X157570422Y-113179322D01*
X157570424Y-113179326D01*
X157570425Y-113179330D01*
X157594455Y-113230862D01*
X157662897Y-113377638D01*
X157662898Y-113377639D01*
X157788402Y-113556877D01*
X157943123Y-113711598D01*
X158122361Y-113837102D01*
X158320670Y-113929575D01*
X158320676Y-113929576D01*
X158320677Y-113929577D01*
X158351364Y-113937799D01*
X158532023Y-113986207D01*
X158714926Y-114002208D01*
X158749998Y-114005277D01*
X158750000Y-114005277D01*
X158750002Y-114005277D01*
X158778254Y-114002805D01*
X158967977Y-113986207D01*
X159179330Y-113929575D01*
X159377639Y-113837102D01*
X159556877Y-113711598D01*
X159711598Y-113556877D01*
X159837102Y-113377639D01*
X159929575Y-113179330D01*
X159986207Y-112967977D01*
X160005277Y-112750000D01*
X162462250Y-112750000D01*
X162475960Y-112854139D01*
X162481170Y-112893708D01*
X162481171Y-112893712D01*
X162536637Y-113027622D01*
X162536638Y-113027624D01*
X162536639Y-113027625D01*
X162624879Y-113142621D01*
X162739875Y-113230861D01*
X162873791Y-113286330D01*
X163000780Y-113303048D01*
X163017499Y-113305250D01*
X163017500Y-113305250D01*
X163017501Y-113305250D01*
X163032477Y-113303278D01*
X163161209Y-113286330D01*
X163295125Y-113230861D01*
X163410121Y-113142621D01*
X163498361Y-113027625D01*
X163553830Y-112893709D01*
X163572750Y-112750000D01*
X163572750Y-112749997D01*
X163994723Y-112749997D01*
X163994723Y-112750002D01*
X164002888Y-112843330D01*
X164012403Y-112952094D01*
X164013793Y-112967975D01*
X164013793Y-112967979D01*
X164070422Y-113179322D01*
X164070424Y-113179326D01*
X164070425Y-113179330D01*
X164094455Y-113230862D01*
X164162897Y-113377638D01*
X164162898Y-113377639D01*
X164288402Y-113556877D01*
X164443123Y-113711598D01*
X164622361Y-113837102D01*
X164820670Y-113929575D01*
X164820676Y-113929576D01*
X164820677Y-113929577D01*
X164851364Y-113937799D01*
X165032023Y-113986207D01*
X165214926Y-114002208D01*
X165249998Y-114005277D01*
X165250000Y-114005277D01*
X165250002Y-114005277D01*
X165278254Y-114002805D01*
X165467977Y-113986207D01*
X165679330Y-113929575D01*
X165877639Y-113837102D01*
X166056877Y-113711598D01*
X166115976Y-113652499D01*
X167859750Y-113652499D01*
X167859750Y-113652500D01*
X167878670Y-113796208D01*
X167878671Y-113796212D01*
X167934137Y-113930122D01*
X167934138Y-113930124D01*
X167934139Y-113930125D01*
X168022379Y-114045121D01*
X168137375Y-114133361D01*
X168271291Y-114188830D01*
X168398280Y-114205548D01*
X168414999Y-114207750D01*
X168415000Y-114207750D01*
X168415001Y-114207750D01*
X168429977Y-114205778D01*
X168558709Y-114188830D01*
X168692625Y-114133361D01*
X168807621Y-114045121D01*
X168895861Y-113930125D01*
X168951330Y-113796209D01*
X168970250Y-113652500D01*
X168951330Y-113508791D01*
X168905332Y-113397740D01*
X168895862Y-113374877D01*
X168895861Y-113374876D01*
X168895861Y-113374875D01*
X168807621Y-113259879D01*
X168692625Y-113171639D01*
X168692624Y-113171638D01*
X168692622Y-113171637D01*
X168558712Y-113116171D01*
X168558710Y-113116170D01*
X168558709Y-113116170D01*
X168486854Y-113106710D01*
X168415001Y-113097250D01*
X168414999Y-113097250D01*
X168271291Y-113116170D01*
X168271287Y-113116171D01*
X168137377Y-113171637D01*
X168022379Y-113259879D01*
X167934137Y-113374877D01*
X167878671Y-113508787D01*
X167878670Y-113508791D01*
X167859750Y-113652499D01*
X166115976Y-113652499D01*
X166211598Y-113556877D01*
X166337102Y-113377639D01*
X166429575Y-113179330D01*
X166486207Y-112967977D01*
X166505277Y-112750000D01*
X166486207Y-112532023D01*
X166429575Y-112320670D01*
X166337102Y-112122362D01*
X166337100Y-112122359D01*
X166337099Y-112122357D01*
X166296937Y-112064999D01*
X169764750Y-112064999D01*
X169764750Y-112065000D01*
X169783670Y-112208708D01*
X169783671Y-112208712D01*
X169839137Y-112342622D01*
X169839138Y-112342624D01*
X169839139Y-112342625D01*
X169927379Y-112457621D01*
X170042375Y-112545861D01*
X170176291Y-112601330D01*
X170303280Y-112618048D01*
X170319999Y-112620250D01*
X170320000Y-112620250D01*
X170320001Y-112620250D01*
X170334977Y-112618278D01*
X170463709Y-112601330D01*
X170597625Y-112545861D01*
X170712621Y-112457621D01*
X170800861Y-112342625D01*
X170856330Y-112208709D01*
X170875250Y-112065000D01*
X170856330Y-111921291D01*
X170801287Y-111788403D01*
X170800862Y-111787377D01*
X170800861Y-111787376D01*
X170800861Y-111787375D01*
X170712621Y-111672379D01*
X170597625Y-111584139D01*
X170597624Y-111584138D01*
X170597622Y-111584137D01*
X170463712Y-111528671D01*
X170463710Y-111528670D01*
X170463709Y-111528670D01*
X170391854Y-111519210D01*
X170320001Y-111509750D01*
X170319999Y-111509750D01*
X170176291Y-111528670D01*
X170176287Y-111528671D01*
X170042377Y-111584137D01*
X169927379Y-111672379D01*
X169839137Y-111787377D01*
X169783671Y-111921287D01*
X169783670Y-111921291D01*
X169764750Y-112064999D01*
X166296937Y-112064999D01*
X166211599Y-111943124D01*
X166182022Y-111913547D01*
X166056877Y-111788402D01*
X165895381Y-111675321D01*
X165877638Y-111662897D01*
X165747600Y-111602260D01*
X165679330Y-111570425D01*
X165679326Y-111570424D01*
X165679322Y-111570422D01*
X165467977Y-111513793D01*
X165250002Y-111494723D01*
X165249998Y-111494723D01*
X165104682Y-111507436D01*
X165032023Y-111513793D01*
X165032020Y-111513793D01*
X164820677Y-111570422D01*
X164820668Y-111570426D01*
X164622361Y-111662898D01*
X164622357Y-111662900D01*
X164443121Y-111788402D01*
X164288402Y-111943121D01*
X164162900Y-112122357D01*
X164162898Y-112122361D01*
X164070426Y-112320668D01*
X164070422Y-112320677D01*
X164013793Y-112532020D01*
X164013793Y-112532024D01*
X163994723Y-112749997D01*
X163572750Y-112749997D01*
X163553830Y-112606291D01*
X163516850Y-112517013D01*
X163498362Y-112472377D01*
X163498361Y-112472376D01*
X163498361Y-112472375D01*
X163410121Y-112357379D01*
X163295125Y-112269139D01*
X163295124Y-112269138D01*
X163295122Y-112269137D01*
X163161212Y-112213671D01*
X163161210Y-112213670D01*
X163161209Y-112213670D01*
X163089354Y-112204210D01*
X163017501Y-112194750D01*
X163017499Y-112194750D01*
X162873791Y-112213670D01*
X162873787Y-112213671D01*
X162739877Y-112269137D01*
X162624879Y-112357379D01*
X162536637Y-112472377D01*
X162481171Y-112606287D01*
X162481170Y-112606291D01*
X162468052Y-112705934D01*
X162462250Y-112750000D01*
X160005277Y-112750000D01*
X159986207Y-112532023D01*
X159929575Y-112320670D01*
X159837102Y-112122362D01*
X159837100Y-112122359D01*
X159837099Y-112122357D01*
X159711599Y-111943124D01*
X159682022Y-111913547D01*
X159556877Y-111788402D01*
X159395381Y-111675321D01*
X159377638Y-111662897D01*
X159247600Y-111602260D01*
X159179330Y-111570425D01*
X159179326Y-111570424D01*
X159179322Y-111570422D01*
X158967977Y-111513793D01*
X158750002Y-111494723D01*
X158749998Y-111494723D01*
X158604682Y-111507436D01*
X158532023Y-111513793D01*
X158532020Y-111513793D01*
X158320677Y-111570422D01*
X158320668Y-111570426D01*
X158122361Y-111662898D01*
X158122357Y-111662900D01*
X157943121Y-111788402D01*
X157788402Y-111943121D01*
X157662900Y-112122357D01*
X157662898Y-112122361D01*
X157570426Y-112320668D01*
X157570422Y-112320677D01*
X157513793Y-112532020D01*
X157513793Y-112532024D01*
X157494723Y-112749997D01*
X153021934Y-112749997D01*
X153035300Y-112705934D01*
X153055583Y-112500000D01*
X153035300Y-112294066D01*
X152975232Y-112096046D01*
X152877685Y-111913550D01*
X152825702Y-111850209D01*
X152746410Y-111753589D01*
X152586452Y-111622317D01*
X152586453Y-111622317D01*
X152586450Y-111622315D01*
X152403954Y-111524768D01*
X152205934Y-111464700D01*
X152205932Y-111464699D01*
X152205934Y-111464699D01*
X152000000Y-111444417D01*
X151794067Y-111464699D01*
X151596043Y-111524769D01*
X151485898Y-111583643D01*
X151413550Y-111622315D01*
X151413548Y-111622316D01*
X151413547Y-111622317D01*
X151253589Y-111753589D01*
X151122315Y-111913548D01*
X151109357Y-111937792D01*
X151060394Y-111987635D01*
X150992256Y-112003095D01*
X150926577Y-111979262D01*
X150890643Y-111937792D01*
X150877684Y-111913548D01*
X150746410Y-111753589D01*
X150586452Y-111622317D01*
X150586453Y-111622317D01*
X150586450Y-111622315D01*
X150403954Y-111524768D01*
X150205934Y-111464700D01*
X150205932Y-111464699D01*
X150205934Y-111464699D01*
X150000000Y-111444417D01*
X149794067Y-111464699D01*
X149596043Y-111524769D01*
X149413546Y-111622317D01*
X149252148Y-111754772D01*
X149187838Y-111782084D01*
X149118971Y-111770293D01*
X149067411Y-111723140D01*
X149053375Y-111680964D01*
X149051689Y-111681300D01*
X149035967Y-111602264D01*
X149035966Y-111602260D01*
X149023857Y-111584137D01*
X148980601Y-111519399D01*
X148898737Y-111464700D01*
X148897739Y-111464033D01*
X148897735Y-111464032D01*
X148824677Y-111449500D01*
X148824674Y-111449500D01*
X147175326Y-111449500D01*
X147175323Y-111449500D01*
X147102264Y-111464032D01*
X147102260Y-111464033D01*
X147019399Y-111519399D01*
X146964033Y-111602260D01*
X146964032Y-111602264D01*
X146949500Y-111675321D01*
X141895381Y-111675321D01*
X141877638Y-111662897D01*
X141747600Y-111602260D01*
X141679330Y-111570425D01*
X141679326Y-111570424D01*
X141679322Y-111570422D01*
X141467977Y-111513793D01*
X141250002Y-111494723D01*
X141249998Y-111494723D01*
X141104682Y-111507436D01*
X141032023Y-111513793D01*
X141032020Y-111513793D01*
X140820677Y-111570422D01*
X140820668Y-111570426D01*
X140622361Y-111662898D01*
X140622357Y-111662900D01*
X140443121Y-111788402D01*
X140288402Y-111943121D01*
X140162900Y-112122357D01*
X140162898Y-112122361D01*
X140070426Y-112320668D01*
X140070422Y-112320677D01*
X140013793Y-112532020D01*
X140013793Y-112532024D01*
X139994723Y-112749997D01*
X136005277Y-112749997D01*
X135986207Y-112532023D01*
X135929575Y-112320670D01*
X135837102Y-112122362D01*
X135837100Y-112122359D01*
X135837099Y-112122357D01*
X135711599Y-111943124D01*
X135682022Y-111913547D01*
X135556877Y-111788402D01*
X135395381Y-111675321D01*
X135377638Y-111662897D01*
X135247600Y-111602260D01*
X135179330Y-111570425D01*
X135179326Y-111570424D01*
X135179322Y-111570422D01*
X134967977Y-111513793D01*
X134750002Y-111494723D01*
X134749998Y-111494723D01*
X134604682Y-111507436D01*
X134532023Y-111513793D01*
X134532020Y-111513793D01*
X134320677Y-111570422D01*
X134320668Y-111570426D01*
X134122361Y-111662898D01*
X134122357Y-111662900D01*
X133943121Y-111788402D01*
X133788402Y-111943121D01*
X133662900Y-112122357D01*
X133662898Y-112122361D01*
X133570426Y-112320668D01*
X133570422Y-112320677D01*
X133513793Y-112532020D01*
X133513793Y-112532024D01*
X133494723Y-112749997D01*
X117946450Y-112749997D01*
X117855783Y-112528466D01*
X117854286Y-112524624D01*
X117608196Y-111860160D01*
X117450988Y-111435683D01*
X117449600Y-111431731D01*
X117083321Y-110329828D01*
X117082089Y-110325903D01*
X116753230Y-109212242D01*
X116752124Y-109208252D01*
X116461056Y-108084081D01*
X116460079Y-108080025D01*
X116447308Y-108022801D01*
X116338181Y-107533819D01*
X117878670Y-107533819D01*
X117878670Y-107533820D01*
X117887895Y-107592982D01*
X118068509Y-108267043D01*
X119058315Y-108001825D01*
X119035510Y-108086936D01*
X119035510Y-108205424D01*
X119066177Y-108319874D01*
X119125420Y-108422486D01*
X119187723Y-108484789D01*
X118197918Y-108750007D01*
X118378529Y-109424052D01*
X118378534Y-109424070D01*
X118400124Y-109479916D01*
X118483527Y-109597041D01*
X118483528Y-109597042D01*
X118596543Y-109685916D01*
X118730020Y-109739353D01*
X118873149Y-109753019D01*
X118873150Y-109753019D01*
X118932312Y-109743794D01*
X119606373Y-109563179D01*
X119341156Y-108573374D01*
X119426266Y-108596180D01*
X119544754Y-108596180D01*
X119659204Y-108565513D01*
X119761816Y-108506270D01*
X119824120Y-108443965D01*
X120089337Y-109433770D01*
X120763378Y-109253162D01*
X120763400Y-109253155D01*
X120819246Y-109231565D01*
X120936371Y-109148162D01*
X120936372Y-109148161D01*
X121025246Y-109035146D01*
X121078683Y-108901669D01*
X121092349Y-108758540D01*
X121092349Y-108758539D01*
X121083124Y-108699377D01*
X121038838Y-108534100D01*
X121040501Y-108464250D01*
X121079663Y-108406388D01*
X121143891Y-108378883D01*
X121212794Y-108390469D01*
X121237969Y-108407532D01*
X121238086Y-108407378D01*
X121241107Y-108409659D01*
X121242145Y-108410363D01*
X121242521Y-108410705D01*
X121242660Y-108410832D01*
X121423943Y-108523078D01*
X121622764Y-108600101D01*
X121832352Y-108639280D01*
X121832354Y-108639280D01*
X122045570Y-108639280D01*
X122045572Y-108639280D01*
X122255160Y-108600101D01*
X122453981Y-108523078D01*
X122635264Y-108410832D01*
X122792834Y-108267187D01*
X122802037Y-108255000D01*
X130077250Y-108255000D01*
X130094917Y-108389195D01*
X130096170Y-108398708D01*
X130096171Y-108398712D01*
X130151637Y-108532622D01*
X130151638Y-108532624D01*
X130151639Y-108532625D01*
X130239879Y-108647621D01*
X130354875Y-108735861D01*
X130378856Y-108745794D01*
X130488788Y-108791329D01*
X130488790Y-108791330D01*
X130492221Y-108791781D01*
X130496495Y-108792344D01*
X130560394Y-108820606D01*
X130568000Y-108827603D01*
X131308386Y-109567989D01*
X131358708Y-109597042D01*
X131367693Y-109602229D01*
X131367696Y-109602232D01*
X131401937Y-109622000D01*
X131411114Y-109627299D01*
X131525691Y-109658000D01*
X134223000Y-109658000D01*
X134290039Y-109677685D01*
X134335794Y-109730489D01*
X134347000Y-109782000D01*
X134347000Y-110361769D01*
X134349853Y-110392199D01*
X134349853Y-110392201D01*
X134394363Y-110519400D01*
X134394707Y-110520382D01*
X134475350Y-110629650D01*
X134584618Y-110710293D01*
X134627345Y-110725244D01*
X134712799Y-110755146D01*
X134743230Y-110758000D01*
X134743234Y-110758000D01*
X137951770Y-110758000D01*
X137982199Y-110755146D01*
X137982201Y-110755146D01*
X138046290Y-110732719D01*
X138110382Y-110710293D01*
X138219650Y-110629650D01*
X138300293Y-110520382D01*
X138330309Y-110434602D01*
X138345146Y-110392201D01*
X138345146Y-110392199D01*
X138348000Y-110361769D01*
X138348000Y-110159999D01*
X142459750Y-110159999D01*
X142459750Y-110160000D01*
X142478670Y-110303708D01*
X142478671Y-110303712D01*
X142534137Y-110437622D01*
X142534138Y-110437624D01*
X142534139Y-110437625D01*
X142622379Y-110552621D01*
X142737375Y-110640861D01*
X142871291Y-110696330D01*
X142998280Y-110713048D01*
X143014999Y-110715250D01*
X143015000Y-110715250D01*
X143015001Y-110715250D01*
X143029977Y-110713278D01*
X143158709Y-110696330D01*
X143292625Y-110640861D01*
X143407621Y-110552621D01*
X143495861Y-110437625D01*
X143526323Y-110364082D01*
X162672501Y-110364082D01*
X162678908Y-110434602D01*
X162678909Y-110434607D01*
X162729481Y-110596896D01*
X162817427Y-110742377D01*
X162937622Y-110862572D01*
X163083104Y-110950519D01*
X163083103Y-110950519D01*
X163245394Y-111001090D01*
X163245393Y-111001090D01*
X163315927Y-111007499D01*
X164672499Y-111007499D01*
X165172500Y-111007499D01*
X166529081Y-111007499D01*
X166599602Y-111001091D01*
X166599607Y-111001090D01*
X166761896Y-110950518D01*
X166907377Y-110862572D01*
X167027572Y-110742377D01*
X167115519Y-110596895D01*
X167152724Y-110477499D01*
X171987250Y-110477499D01*
X171987250Y-110477500D01*
X172006170Y-110621208D01*
X172006171Y-110621212D01*
X172061637Y-110755122D01*
X172061638Y-110755124D01*
X172061639Y-110755125D01*
X172149879Y-110870121D01*
X172264875Y-110958361D01*
X172398791Y-111013830D01*
X172525780Y-111030548D01*
X172542499Y-111032750D01*
X172542500Y-111032750D01*
X172542501Y-111032750D01*
X172557477Y-111030778D01*
X172686209Y-111013830D01*
X172820125Y-110958361D01*
X172935121Y-110870121D01*
X173023361Y-110755125D01*
X173078830Y-110621209D01*
X173097750Y-110477500D01*
X173078830Y-110333791D01*
X173023361Y-110199875D01*
X172935121Y-110084879D01*
X172820125Y-109996639D01*
X172820124Y-109996638D01*
X172820122Y-109996637D01*
X172686212Y-109941171D01*
X172686210Y-109941170D01*
X172686209Y-109941170D01*
X172614354Y-109931710D01*
X172542501Y-109922250D01*
X172542499Y-109922250D01*
X172398791Y-109941170D01*
X172398787Y-109941171D01*
X172264877Y-109996637D01*
X172149879Y-110084879D01*
X172061637Y-110199877D01*
X172006171Y-110333787D01*
X172006170Y-110333791D01*
X171987250Y-110477499D01*
X167152724Y-110477499D01*
X167166090Y-110434606D01*
X167172500Y-110364072D01*
X167172500Y-109457500D01*
X165172500Y-109457500D01*
X165172500Y-111007499D01*
X164672499Y-111007499D01*
X164672500Y-111007498D01*
X164672500Y-109457500D01*
X162672501Y-109457500D01*
X162672501Y-110364082D01*
X143526323Y-110364082D01*
X143551330Y-110303709D01*
X143570250Y-110160000D01*
X143551330Y-110016291D01*
X143495861Y-109882375D01*
X143407621Y-109767379D01*
X143292625Y-109679139D01*
X143292624Y-109679138D01*
X143292622Y-109679137D01*
X143158712Y-109623671D01*
X143158710Y-109623670D01*
X143158709Y-109623670D01*
X143086854Y-109614210D01*
X143015001Y-109604750D01*
X143014999Y-109604750D01*
X142871291Y-109623670D01*
X142871287Y-109623671D01*
X142737377Y-109679137D01*
X142622379Y-109767379D01*
X142534137Y-109882377D01*
X142478671Y-110016287D01*
X142478670Y-110016291D01*
X142459750Y-110159999D01*
X138348000Y-110159999D01*
X138348000Y-108255000D01*
X147857250Y-108255000D01*
X147874917Y-108389195D01*
X147876170Y-108398708D01*
X147876171Y-108398712D01*
X147931637Y-108532622D01*
X147931638Y-108532624D01*
X147931639Y-108532625D01*
X148019879Y-108647621D01*
X148134875Y-108735861D01*
X148268791Y-108791330D01*
X148395780Y-108808048D01*
X148412499Y-108810250D01*
X148412500Y-108810250D01*
X148412501Y-108810250D01*
X148427477Y-108808278D01*
X148556209Y-108791330D01*
X148690125Y-108735861D01*
X148805121Y-108647621D01*
X148893361Y-108532625D01*
X148948830Y-108398709D01*
X148967750Y-108255000D01*
X148948830Y-108111291D01*
X148923827Y-108050927D01*
X162672500Y-108050927D01*
X162672500Y-108957500D01*
X164672500Y-108957500D01*
X165172500Y-108957500D01*
X167172499Y-108957500D01*
X167172499Y-108050917D01*
X167166091Y-107980397D01*
X167166090Y-107980392D01*
X167115518Y-107818103D01*
X167027572Y-107672622D01*
X166907377Y-107552427D01*
X166804163Y-107490032D01*
X176910796Y-107490032D01*
X176930469Y-107702342D01*
X176985177Y-107894619D01*
X176988821Y-107907424D01*
X176988821Y-107907426D01*
X177083857Y-108098285D01*
X177212244Y-108268295D01*
X177212353Y-108268439D01*
X177369923Y-108412084D01*
X177551206Y-108524330D01*
X177750027Y-108601353D01*
X177959615Y-108640532D01*
X177959617Y-108640532D01*
X178172833Y-108640532D01*
X178172835Y-108640532D01*
X178382423Y-108601353D01*
X178581244Y-108524330D01*
X178762527Y-108412084D01*
X178763024Y-108411630D01*
X178763316Y-108411487D01*
X178767101Y-108408630D01*
X178767659Y-108409369D01*
X178825821Y-108381007D01*
X178895209Y-108389195D01*
X178949156Y-108433597D01*
X178970532Y-108500117D01*
X178966347Y-108535351D01*
X178922062Y-108700626D01*
X178912837Y-108759791D01*
X178912837Y-108759792D01*
X178926503Y-108902921D01*
X178979940Y-109036398D01*
X179068814Y-109149413D01*
X179068815Y-109149414D01*
X179185940Y-109232817D01*
X179185939Y-109232817D01*
X179241786Y-109254407D01*
X179241803Y-109254412D01*
X179915848Y-109435022D01*
X180181066Y-108445217D01*
X180243371Y-108507522D01*
X180345983Y-108566765D01*
X180460433Y-108597432D01*
X180578921Y-108597432D01*
X180664028Y-108574627D01*
X180398812Y-109564431D01*
X181072874Y-109745046D01*
X181132036Y-109754271D01*
X181132037Y-109754271D01*
X181275166Y-109740605D01*
X181408643Y-109687168D01*
X181521658Y-109598294D01*
X181521659Y-109598293D01*
X181605062Y-109481168D01*
X181626652Y-109425322D01*
X181626659Y-109425300D01*
X181807267Y-108751259D01*
X180817462Y-108486042D01*
X180879767Y-108423738D01*
X180939010Y-108321126D01*
X180969677Y-108206676D01*
X180969677Y-108088188D01*
X180946871Y-108003078D01*
X181936676Y-108268295D01*
X182117291Y-107594234D01*
X182126516Y-107535072D01*
X182126516Y-107535071D01*
X182112850Y-107391942D01*
X182059413Y-107258465D01*
X181970539Y-107145450D01*
X181970538Y-107145449D01*
X181853413Y-107062046D01*
X181853414Y-107062046D01*
X181797567Y-107040456D01*
X181797549Y-107040451D01*
X181123504Y-106859840D01*
X180858286Y-107849645D01*
X180795983Y-107787342D01*
X180693371Y-107728099D01*
X180578921Y-107697432D01*
X180460433Y-107697432D01*
X180375324Y-107720237D01*
X180640540Y-106730431D01*
X179966479Y-106549817D01*
X179907317Y-106540592D01*
X179907316Y-106540592D01*
X179764187Y-106554258D01*
X179630710Y-106607695D01*
X179517695Y-106696569D01*
X179517694Y-106696570D01*
X179434291Y-106813695D01*
X179412701Y-106869541D01*
X179412696Y-106869559D01*
X179367959Y-107036519D01*
X179331594Y-107096179D01*
X179268747Y-107126708D01*
X179199371Y-107118413D01*
X179145493Y-107073928D01*
X179137184Y-107059696D01*
X179048592Y-106881778D01*
X178920097Y-106711625D01*
X178906062Y-106698830D01*
X178762527Y-106567980D01*
X178581244Y-106455734D01*
X178581242Y-106455733D01*
X178411246Y-106389877D01*
X178382423Y-106378711D01*
X178172835Y-106339532D01*
X177959615Y-106339532D01*
X177750027Y-106378711D01*
X177750024Y-106378711D01*
X177750024Y-106378712D01*
X177551207Y-106455733D01*
X177551205Y-106455734D01*
X177369924Y-106567979D01*
X177212352Y-106711625D01*
X177083857Y-106881778D01*
X176988821Y-107072637D01*
X176988821Y-107072639D01*
X176930469Y-107277721D01*
X176918444Y-107407500D01*
X176910796Y-107490032D01*
X166804163Y-107490032D01*
X166761895Y-107464480D01*
X166761896Y-107464480D01*
X166599605Y-107413909D01*
X166599606Y-107413909D01*
X166529072Y-107407500D01*
X165172500Y-107407500D01*
X165172500Y-108957500D01*
X164672500Y-108957500D01*
X164672500Y-107407500D01*
X163315917Y-107407500D01*
X163245397Y-107413908D01*
X163245392Y-107413909D01*
X163083103Y-107464481D01*
X162937622Y-107552427D01*
X162817427Y-107672622D01*
X162729480Y-107818104D01*
X162678909Y-107980393D01*
X162672500Y-108050927D01*
X148923827Y-108050927D01*
X148893361Y-107977375D01*
X148805121Y-107862379D01*
X148690125Y-107774139D01*
X148690124Y-107774138D01*
X148690122Y-107774137D01*
X148556212Y-107718671D01*
X148556210Y-107718670D01*
X148556209Y-107718670D01*
X148484354Y-107709210D01*
X148412501Y-107699750D01*
X148412499Y-107699750D01*
X148268791Y-107718670D01*
X148268787Y-107718671D01*
X148134877Y-107774137D01*
X148019879Y-107862379D01*
X147931637Y-107977377D01*
X147876171Y-108111287D01*
X147876170Y-108111291D01*
X147860426Y-108230880D01*
X147857250Y-108255000D01*
X138348000Y-108255000D01*
X138348000Y-108053230D01*
X138345146Y-108022800D01*
X138345146Y-108022798D01*
X138311506Y-107926663D01*
X138300293Y-107894618D01*
X138219650Y-107785350D01*
X138110382Y-107704707D01*
X138110380Y-107704706D01*
X137982200Y-107659853D01*
X137951770Y-107657000D01*
X137951766Y-107657000D01*
X134743234Y-107657000D01*
X134743230Y-107657000D01*
X134712800Y-107659853D01*
X134712798Y-107659853D01*
X134584619Y-107704706D01*
X134584617Y-107704707D01*
X134475350Y-107785350D01*
X134394707Y-107894617D01*
X134394706Y-107894619D01*
X134349853Y-108022798D01*
X134349853Y-108022800D01*
X134347000Y-108053230D01*
X134347000Y-108633000D01*
X134327315Y-108700039D01*
X134274511Y-108745794D01*
X134223000Y-108757000D01*
X132945458Y-108757000D01*
X132878419Y-108737315D01*
X132832664Y-108684511D01*
X132822720Y-108615353D01*
X132830897Y-108585548D01*
X132838677Y-108566765D01*
X132864755Y-108503806D01*
X132883675Y-108360097D01*
X132864755Y-108216388D01*
X132809286Y-108082472D01*
X132721046Y-107967476D01*
X132606050Y-107879236D01*
X132606049Y-107879235D01*
X132606047Y-107879234D01*
X132472137Y-107823768D01*
X132472135Y-107823767D01*
X132472134Y-107823767D01*
X132400279Y-107814307D01*
X132328426Y-107804847D01*
X132328424Y-107804847D01*
X132184716Y-107823767D01*
X132184712Y-107823768D01*
X132050802Y-107879234D01*
X131935804Y-107967476D01*
X131847562Y-108082474D01*
X131792096Y-108216384D01*
X131792095Y-108216388D01*
X131773175Y-108360096D01*
X131773175Y-108360097D01*
X131785909Y-108456819D01*
X131775144Y-108525855D01*
X131728764Y-108578111D01*
X131661495Y-108596996D01*
X131594694Y-108576516D01*
X131575289Y-108560686D01*
X131205103Y-108190500D01*
X131171618Y-108129177D01*
X131169844Y-108118995D01*
X131168830Y-108111290D01*
X131168829Y-108111288D01*
X131132176Y-108022800D01*
X131113361Y-107977375D01*
X131025121Y-107862379D01*
X130910125Y-107774139D01*
X130910124Y-107774138D01*
X130910122Y-107774137D01*
X130776212Y-107718671D01*
X130776210Y-107718670D01*
X130776209Y-107718670D01*
X130704354Y-107709210D01*
X130632501Y-107699750D01*
X130632499Y-107699750D01*
X130488791Y-107718670D01*
X130488787Y-107718671D01*
X130354877Y-107774137D01*
X130239879Y-107862379D01*
X130151637Y-107977377D01*
X130096171Y-108111287D01*
X130096170Y-108111291D01*
X130080426Y-108230880D01*
X130077250Y-108255000D01*
X122802037Y-108255000D01*
X122921328Y-108097035D01*
X122958293Y-108022798D01*
X123016365Y-107906174D01*
X123016365Y-107906173D01*
X123016367Y-107906169D01*
X123074718Y-107701090D01*
X123094391Y-107488780D01*
X123074718Y-107276470D01*
X123016367Y-107071391D01*
X123016365Y-107071386D01*
X123016365Y-107071385D01*
X122921329Y-106880526D01*
X122792834Y-106710373D01*
X122777692Y-106696569D01*
X122745805Y-106667500D01*
X152302250Y-106667500D01*
X152306374Y-106698828D01*
X152321170Y-106811208D01*
X152321171Y-106811212D01*
X152376637Y-106945122D01*
X152376638Y-106945124D01*
X152376639Y-106945125D01*
X152464879Y-107060121D01*
X152579875Y-107148361D01*
X152713791Y-107203830D01*
X152840780Y-107220548D01*
X152857499Y-107222750D01*
X152857500Y-107222750D01*
X152857501Y-107222750D01*
X152872477Y-107220778D01*
X153001209Y-107203830D01*
X153135125Y-107148361D01*
X153250121Y-107060121D01*
X153338361Y-106945125D01*
X153393830Y-106811209D01*
X153412750Y-106667500D01*
X153393830Y-106523791D01*
X153338361Y-106389875D01*
X153250121Y-106274879D01*
X153135125Y-106186639D01*
X153135124Y-106186638D01*
X153135122Y-106186637D01*
X153076849Y-106162500D01*
X160239750Y-106162500D01*
X160256558Y-106290170D01*
X160258670Y-106306208D01*
X160258671Y-106306212D01*
X160314137Y-106440122D01*
X160314138Y-106440124D01*
X160314139Y-106440125D01*
X160402379Y-106555121D01*
X160517375Y-106643361D01*
X160651291Y-106698830D01*
X160778280Y-106715548D01*
X160794999Y-106717750D01*
X160795000Y-106717750D01*
X160795001Y-106717750D01*
X160809977Y-106715778D01*
X160938709Y-106698830D01*
X161072625Y-106643361D01*
X161187621Y-106555121D01*
X161275861Y-106440125D01*
X161315439Y-106344574D01*
X161359279Y-106290170D01*
X161425573Y-106268105D01*
X161493273Y-106285384D01*
X161540884Y-106336521D01*
X161544561Y-106344574D01*
X161584137Y-106440122D01*
X161584138Y-106440124D01*
X161584139Y-106440125D01*
X161672379Y-106555121D01*
X161787375Y-106643361D01*
X161921291Y-106698830D01*
X162048280Y-106715548D01*
X162064999Y-106717750D01*
X162065000Y-106717750D01*
X162065001Y-106717750D01*
X162079977Y-106715778D01*
X162208709Y-106698830D01*
X162342625Y-106643361D01*
X162457621Y-106555121D01*
X162545861Y-106440125D01*
X162601330Y-106306209D01*
X162620250Y-106162500D01*
X162603135Y-106032500D01*
X173892250Y-106032500D01*
X173902749Y-106112250D01*
X173911170Y-106176208D01*
X173911171Y-106176212D01*
X173966637Y-106310122D01*
X173966638Y-106310124D01*
X173966639Y-106310125D01*
X174054879Y-106425121D01*
X174169875Y-106513361D01*
X174169876Y-106513361D01*
X174169877Y-106513362D01*
X174214513Y-106531850D01*
X174303791Y-106568830D01*
X174430780Y-106585548D01*
X174447499Y-106587750D01*
X174447500Y-106587750D01*
X174447501Y-106587750D01*
X174462477Y-106585778D01*
X174591209Y-106568830D01*
X174725125Y-106513361D01*
X174840121Y-106425121D01*
X174928361Y-106310125D01*
X174983830Y-106176209D01*
X175002750Y-106032500D01*
X174983830Y-105888791D01*
X174928361Y-105754875D01*
X174840121Y-105639879D01*
X174725125Y-105551639D01*
X174725124Y-105551638D01*
X174725122Y-105551637D01*
X174591212Y-105496171D01*
X174591210Y-105496170D01*
X174591209Y-105496170D01*
X174519354Y-105486710D01*
X174447501Y-105477250D01*
X174447499Y-105477250D01*
X174303791Y-105496170D01*
X174303787Y-105496171D01*
X174169877Y-105551637D01*
X174054879Y-105639879D01*
X173966637Y-105754877D01*
X173911171Y-105888787D01*
X173911170Y-105888791D01*
X173898142Y-105987750D01*
X173892250Y-106032500D01*
X162603135Y-106032500D01*
X162601330Y-106018791D01*
X162557660Y-105913361D01*
X162545862Y-105884877D01*
X162545861Y-105884876D01*
X162545861Y-105884875D01*
X162457621Y-105769879D01*
X162342625Y-105681639D01*
X162342624Y-105681638D01*
X162342622Y-105681637D01*
X162208712Y-105626171D01*
X162208710Y-105626170D01*
X162208709Y-105626170D01*
X162133953Y-105616328D01*
X162065001Y-105607250D01*
X162064999Y-105607250D01*
X161921291Y-105626170D01*
X161921287Y-105626171D01*
X161787377Y-105681637D01*
X161743898Y-105715000D01*
X161672379Y-105769879D01*
X161589138Y-105878361D01*
X161584137Y-105884878D01*
X161544561Y-105980425D01*
X161500720Y-106034829D01*
X161434426Y-106056894D01*
X161366727Y-106039615D01*
X161319116Y-105988478D01*
X161315439Y-105980425D01*
X161289120Y-105916885D01*
X161275861Y-105884875D01*
X161187621Y-105769879D01*
X161072625Y-105681639D01*
X161072624Y-105681638D01*
X161072622Y-105681637D01*
X160938712Y-105626171D01*
X160938710Y-105626170D01*
X160938709Y-105626170D01*
X160863953Y-105616328D01*
X160795001Y-105607250D01*
X160794999Y-105607250D01*
X160651291Y-105626170D01*
X160651287Y-105626171D01*
X160517377Y-105681637D01*
X160402379Y-105769879D01*
X160314137Y-105884877D01*
X160258671Y-106018787D01*
X160258670Y-106018791D01*
X160239750Y-106162500D01*
X153076849Y-106162500D01*
X153001212Y-106131171D01*
X153001210Y-106131170D01*
X153001209Y-106131170D01*
X152929354Y-106121710D01*
X152857501Y-106112250D01*
X152857499Y-106112250D01*
X152713791Y-106131170D01*
X152713787Y-106131171D01*
X152579877Y-106186637D01*
X152464879Y-106274879D01*
X152376637Y-106389877D01*
X152321171Y-106523787D01*
X152321170Y-106523791D01*
X152315241Y-106568829D01*
X152302250Y-106667500D01*
X122745805Y-106667500D01*
X122635264Y-106566728D01*
X122616516Y-106555120D01*
X122453981Y-106454482D01*
X122453979Y-106454481D01*
X122354570Y-106415970D01*
X122255160Y-106377459D01*
X122045572Y-106338280D01*
X121832352Y-106338280D01*
X121622764Y-106377459D01*
X121622761Y-106377459D01*
X121622761Y-106377460D01*
X121423944Y-106454481D01*
X121423942Y-106454482D01*
X121261406Y-106555121D01*
X121242660Y-106566728D01*
X121199095Y-106606443D01*
X121085089Y-106710373D01*
X120956596Y-106880524D01*
X120868002Y-107058446D01*
X120820499Y-107109683D01*
X120752836Y-107127104D01*
X120686496Y-107105178D01*
X120642541Y-107050867D01*
X120637227Y-107035267D01*
X120592492Y-106868311D01*
X120592485Y-106868289D01*
X120570895Y-106812443D01*
X120487492Y-106695318D01*
X120487491Y-106695317D01*
X120374476Y-106606443D01*
X120240999Y-106553006D01*
X120097870Y-106539340D01*
X120097869Y-106539340D01*
X120038706Y-106548565D01*
X119364645Y-106729179D01*
X119629862Y-107718984D01*
X119544754Y-107696180D01*
X119426266Y-107696180D01*
X119311816Y-107726847D01*
X119209204Y-107786090D01*
X119146898Y-107848395D01*
X118881681Y-106858588D01*
X118207637Y-107039199D01*
X118207619Y-107039204D01*
X118151773Y-107060794D01*
X118034648Y-107144197D01*
X118034647Y-107144198D01*
X117945773Y-107257213D01*
X117892336Y-107390690D01*
X117878670Y-107533819D01*
X116338181Y-107533819D01*
X116207161Y-106946734D01*
X116206319Y-106942634D01*
X116190522Y-106858588D01*
X115991818Y-105801437D01*
X115991117Y-105797323D01*
X115984614Y-105754877D01*
X115978505Y-105714999D01*
X136427250Y-105714999D01*
X136427250Y-105715000D01*
X136446170Y-105858708D01*
X136446171Y-105858712D01*
X136501637Y-105992622D01*
X136501638Y-105992624D01*
X136501639Y-105992625D01*
X136589879Y-106107621D01*
X136704875Y-106195861D01*
X136838791Y-106251330D01*
X136965780Y-106268048D01*
X136982499Y-106270250D01*
X136982500Y-106270250D01*
X136982501Y-106270250D01*
X136998793Y-106268105D01*
X137126209Y-106251330D01*
X137260125Y-106195861D01*
X137375121Y-106107621D01*
X137463361Y-105992625D01*
X137518830Y-105858709D01*
X137537750Y-105715000D01*
X137518830Y-105571291D01*
X137463361Y-105437375D01*
X137375121Y-105322379D01*
X137260125Y-105234139D01*
X137260124Y-105234138D01*
X137260122Y-105234137D01*
X137126212Y-105178671D01*
X137126210Y-105178670D01*
X137126209Y-105178670D01*
X137054354Y-105169210D01*
X136982501Y-105159750D01*
X136982499Y-105159750D01*
X136838791Y-105178670D01*
X136838787Y-105178671D01*
X136704877Y-105234137D01*
X136589879Y-105322379D01*
X136501637Y-105437377D01*
X136446171Y-105571287D01*
X136446170Y-105571291D01*
X136427250Y-105714999D01*
X115978505Y-105714999D01*
X115881227Y-105080000D01*
X155794750Y-105080000D01*
X155805249Y-105159750D01*
X155813670Y-105223708D01*
X155813671Y-105223712D01*
X155869137Y-105357622D01*
X155869138Y-105357624D01*
X155869139Y-105357625D01*
X155957379Y-105472621D01*
X156072375Y-105560861D01*
X156072376Y-105560861D01*
X156072377Y-105560862D01*
X156109426Y-105576208D01*
X156206291Y-105616330D01*
X156333280Y-105633048D01*
X156349999Y-105635250D01*
X156350000Y-105635250D01*
X156350001Y-105635250D01*
X156364977Y-105633278D01*
X156493709Y-105616330D01*
X156627625Y-105560861D01*
X156742621Y-105472621D01*
X156773407Y-105432500D01*
X165319750Y-105432500D01*
X165336649Y-105560862D01*
X165338670Y-105576208D01*
X165338671Y-105576212D01*
X165394137Y-105710122D01*
X165394138Y-105710124D01*
X165394139Y-105710125D01*
X165482379Y-105825121D01*
X165597375Y-105913361D01*
X165731291Y-105968830D01*
X165858280Y-105985548D01*
X165874999Y-105987750D01*
X165875000Y-105987750D01*
X165875001Y-105987750D01*
X165889977Y-105985778D01*
X166018709Y-105968830D01*
X166152625Y-105913361D01*
X166267621Y-105825121D01*
X166355861Y-105710125D01*
X166411330Y-105576209D01*
X166430250Y-105432500D01*
X166425642Y-105397500D01*
X172304750Y-105397500D01*
X172315249Y-105477250D01*
X172323670Y-105541208D01*
X172323671Y-105541212D01*
X172379137Y-105675122D01*
X172379138Y-105675124D01*
X172379139Y-105675125D01*
X172467379Y-105790121D01*
X172582375Y-105878361D01*
X172582376Y-105878361D01*
X172582377Y-105878362D01*
X172627013Y-105896850D01*
X172716291Y-105933830D01*
X172843280Y-105950548D01*
X172859999Y-105952750D01*
X172860000Y-105952750D01*
X172860001Y-105952750D01*
X172874977Y-105950778D01*
X173003709Y-105933830D01*
X173137625Y-105878361D01*
X173252621Y-105790121D01*
X173340861Y-105675125D01*
X173396330Y-105541209D01*
X173415250Y-105397500D01*
X173396330Y-105253791D01*
X173340861Y-105119875D01*
X173252621Y-105004879D01*
X173137625Y-104916639D01*
X173137624Y-104916638D01*
X173137622Y-104916637D01*
X173003712Y-104861171D01*
X173003710Y-104861170D01*
X173003709Y-104861170D01*
X172931854Y-104851710D01*
X172860001Y-104842250D01*
X172859999Y-104842250D01*
X172716291Y-104861170D01*
X172716287Y-104861171D01*
X172582377Y-104916637D01*
X172467379Y-105004879D01*
X172379137Y-105119877D01*
X172323671Y-105253787D01*
X172323670Y-105253791D01*
X172304750Y-105397500D01*
X166425642Y-105397500D01*
X166411330Y-105288791D01*
X166374350Y-105199513D01*
X166355862Y-105154877D01*
X166355861Y-105154876D01*
X166355861Y-105154875D01*
X166267621Y-105039879D01*
X166152625Y-104951639D01*
X166152624Y-104951638D01*
X166152622Y-104951637D01*
X166018712Y-104896171D01*
X166018710Y-104896170D01*
X166018709Y-104896170D01*
X165946854Y-104886710D01*
X165875001Y-104877250D01*
X165874999Y-104877250D01*
X165731291Y-104896170D01*
X165731287Y-104896171D01*
X165597377Y-104951637D01*
X165482379Y-105039879D01*
X165394137Y-105154877D01*
X165338671Y-105288787D01*
X165338670Y-105288791D01*
X165319750Y-105432500D01*
X156773407Y-105432500D01*
X156830861Y-105357625D01*
X156886330Y-105223709D01*
X156905250Y-105080000D01*
X156886330Y-104936291D01*
X156830861Y-104802375D01*
X156742621Y-104687379D01*
X156627625Y-104599139D01*
X156627624Y-104599138D01*
X156627622Y-104599137D01*
X156493712Y-104543671D01*
X156493710Y-104543670D01*
X156493709Y-104543670D01*
X156421854Y-104534210D01*
X156350001Y-104524750D01*
X156349999Y-104524750D01*
X156206291Y-104543670D01*
X156206287Y-104543671D01*
X156072377Y-104599137D01*
X155957379Y-104687379D01*
X155869137Y-104802377D01*
X155813671Y-104936287D01*
X155813670Y-104936291D01*
X155794750Y-105080000D01*
X115881227Y-105080000D01*
X115815281Y-104649530D01*
X115814719Y-104645392D01*
X115814478Y-104643361D01*
X115757358Y-104162500D01*
X158334750Y-104162500D01*
X158349062Y-104271212D01*
X158353670Y-104306208D01*
X158353671Y-104306212D01*
X158409137Y-104440122D01*
X158409138Y-104440124D01*
X158409139Y-104440125D01*
X158497379Y-104555121D01*
X158612375Y-104643361D01*
X158746291Y-104698830D01*
X158873280Y-104715548D01*
X158889999Y-104717750D01*
X158890000Y-104717750D01*
X158890001Y-104717750D01*
X158904977Y-104715778D01*
X159033709Y-104698830D01*
X159167625Y-104643361D01*
X159282621Y-104555121D01*
X159370861Y-104440125D01*
X159426330Y-104306209D01*
X159445250Y-104162500D01*
X159440642Y-104127499D01*
X160557250Y-104127499D01*
X160557250Y-104127500D01*
X160576170Y-104271208D01*
X160576171Y-104271212D01*
X160631637Y-104405122D01*
X160631638Y-104405124D01*
X160631639Y-104405125D01*
X160719879Y-104520121D01*
X160834875Y-104608361D01*
X160968791Y-104663830D01*
X161095780Y-104680548D01*
X161112499Y-104682750D01*
X161112500Y-104682750D01*
X161112501Y-104682750D01*
X161127477Y-104680778D01*
X161256209Y-104663830D01*
X161390125Y-104608361D01*
X161505121Y-104520121D01*
X161593361Y-104405125D01*
X161648830Y-104271209D01*
X161667750Y-104127500D01*
X161648830Y-103983791D01*
X161593361Y-103849875D01*
X161505121Y-103734879D01*
X161390125Y-103646639D01*
X161390124Y-103646638D01*
X161390122Y-103646637D01*
X161256212Y-103591171D01*
X161256210Y-103591170D01*
X161256209Y-103591170D01*
X161184354Y-103581710D01*
X161112501Y-103572250D01*
X161112499Y-103572250D01*
X160968791Y-103591170D01*
X160968787Y-103591171D01*
X160834877Y-103646637D01*
X160719879Y-103734879D01*
X160631637Y-103849877D01*
X160576171Y-103983787D01*
X160576170Y-103983791D01*
X160557250Y-104127499D01*
X159440642Y-104127499D01*
X159426330Y-104018791D01*
X159370861Y-103884875D01*
X159282621Y-103769879D01*
X159167625Y-103681639D01*
X159167624Y-103681638D01*
X159167622Y-103681637D01*
X159033712Y-103626171D01*
X159033710Y-103626170D01*
X159033709Y-103626170D01*
X158961854Y-103616710D01*
X158890001Y-103607250D01*
X158889999Y-103607250D01*
X158746291Y-103626170D01*
X158746287Y-103626171D01*
X158612377Y-103681637D01*
X158497379Y-103769879D01*
X158409137Y-103884877D01*
X158353671Y-104018787D01*
X158353670Y-104018791D01*
X158334750Y-104162500D01*
X115757358Y-104162500D01*
X115677747Y-103492290D01*
X115677333Y-103488225D01*
X115623941Y-102857499D01*
X150079750Y-102857499D01*
X150079750Y-102857500D01*
X150098670Y-103001208D01*
X150098671Y-103001212D01*
X150154137Y-103135122D01*
X150154138Y-103135124D01*
X150154139Y-103135125D01*
X150242379Y-103250121D01*
X150357375Y-103338361D01*
X150491291Y-103393830D01*
X150618280Y-103410548D01*
X150634999Y-103412750D01*
X150635000Y-103412750D01*
X150635001Y-103412750D01*
X150649977Y-103410778D01*
X150778709Y-103393830D01*
X150912625Y-103338361D01*
X151027621Y-103250121D01*
X151085264Y-103174999D01*
X173892250Y-103174999D01*
X173892250Y-103175000D01*
X173911170Y-103318708D01*
X173911171Y-103318712D01*
X173966637Y-103452622D01*
X173966638Y-103452624D01*
X173966639Y-103452625D01*
X174054879Y-103567621D01*
X174169875Y-103655861D01*
X174303791Y-103711330D01*
X174430780Y-103728048D01*
X174447499Y-103730250D01*
X174447500Y-103730250D01*
X174447501Y-103730250D01*
X174462477Y-103728278D01*
X174591209Y-103711330D01*
X174725125Y-103655861D01*
X174840121Y-103567621D01*
X174928361Y-103452625D01*
X174983830Y-103318709D01*
X175002750Y-103175000D01*
X174983830Y-103031291D01*
X174928361Y-102897375D01*
X174840121Y-102782379D01*
X174725125Y-102694139D01*
X174725124Y-102694138D01*
X174725122Y-102694137D01*
X174591212Y-102638671D01*
X174591210Y-102638670D01*
X174591209Y-102638670D01*
X174519354Y-102629210D01*
X174447501Y-102619750D01*
X174447499Y-102619750D01*
X174303791Y-102638670D01*
X174303787Y-102638671D01*
X174169877Y-102694137D01*
X174054879Y-102782379D01*
X173966637Y-102897377D01*
X173911171Y-103031287D01*
X173911170Y-103031291D01*
X173892250Y-103174999D01*
X151085264Y-103174999D01*
X151115861Y-103135125D01*
X151171330Y-103001209D01*
X151190250Y-102857500D01*
X151171330Y-102713791D01*
X151115861Y-102579875D01*
X151027621Y-102464879D01*
X150912625Y-102376639D01*
X150912624Y-102376638D01*
X150912622Y-102376637D01*
X150778712Y-102321171D01*
X150778710Y-102321170D01*
X150778709Y-102321170D01*
X150706854Y-102311710D01*
X150635001Y-102302250D01*
X150634999Y-102302250D01*
X150491291Y-102321170D01*
X150491287Y-102321171D01*
X150357377Y-102376637D01*
X150242379Y-102464879D01*
X150154137Y-102579877D01*
X150098671Y-102713787D01*
X150098670Y-102713791D01*
X150079750Y-102857499D01*
X115623941Y-102857499D01*
X115579383Y-102331139D01*
X115579101Y-102326967D01*
X115578807Y-102321170D01*
X115573803Y-102222500D01*
X124044750Y-102222500D01*
X124055249Y-102302250D01*
X124063670Y-102366208D01*
X124063671Y-102366212D01*
X124119137Y-102500122D01*
X124119138Y-102500124D01*
X124119139Y-102500125D01*
X124207379Y-102615121D01*
X124322375Y-102703361D01*
X124322376Y-102703361D01*
X124322377Y-102703362D01*
X124367013Y-102721850D01*
X124456291Y-102758830D01*
X124583280Y-102775548D01*
X124599999Y-102777750D01*
X124600000Y-102777750D01*
X124600001Y-102777750D01*
X124614977Y-102775778D01*
X124743709Y-102758830D01*
X124877625Y-102703361D01*
X124992621Y-102615121D01*
X125080861Y-102500125D01*
X125136330Y-102366209D01*
X125155250Y-102222500D01*
X125136330Y-102078791D01*
X125080861Y-101944875D01*
X124992621Y-101829879D01*
X124877625Y-101741639D01*
X124877624Y-101741638D01*
X124877622Y-101741637D01*
X124743712Y-101686171D01*
X124743710Y-101686170D01*
X124743709Y-101686170D01*
X124671854Y-101676710D01*
X124600001Y-101667250D01*
X124599999Y-101667250D01*
X124456291Y-101686170D01*
X124456287Y-101686171D01*
X124322377Y-101741637D01*
X124207379Y-101829879D01*
X124119137Y-101944877D01*
X124063671Y-102078787D01*
X124063670Y-102078791D01*
X124044750Y-102222500D01*
X115573803Y-102222500D01*
X115520286Y-101167248D01*
X115520146Y-101163081D01*
X115520055Y-101157679D01*
X115500535Y-100002072D01*
X115500535Y-99997906D01*
X115501099Y-99964532D01*
X115516389Y-99059334D01*
X117033664Y-99059334D01*
X117033664Y-99757179D01*
X118058386Y-99757179D01*
X118014331Y-99833485D01*
X117983664Y-99947935D01*
X117983664Y-100066423D01*
X118014331Y-100180873D01*
X118058386Y-100257179D01*
X117033664Y-100257179D01*
X117033664Y-100955023D01*
X117040065Y-101014551D01*
X117040067Y-101014558D01*
X117090309Y-101149265D01*
X117090313Y-101149272D01*
X117176473Y-101264366D01*
X117176476Y-101264369D01*
X117291570Y-101350529D01*
X117291577Y-101350533D01*
X117426284Y-101400775D01*
X117426291Y-101400777D01*
X117485819Y-101407178D01*
X117485836Y-101407179D01*
X118183664Y-101407179D01*
X118183664Y-100382456D01*
X118259970Y-100426512D01*
X118374420Y-100457179D01*
X118492908Y-100457179D01*
X118607358Y-100426512D01*
X118683664Y-100382456D01*
X118683664Y-101407179D01*
X119381492Y-101407179D01*
X119381508Y-101407178D01*
X119441036Y-101400777D01*
X119441043Y-101400775D01*
X119575750Y-101350533D01*
X119575757Y-101350529D01*
X119690851Y-101264369D01*
X119690854Y-101264366D01*
X119777014Y-101149272D01*
X119777018Y-101149265D01*
X119827260Y-101014558D01*
X119827262Y-101014551D01*
X119833663Y-100955023D01*
X119833664Y-100955006D01*
X119833664Y-100776657D01*
X119853349Y-100709618D01*
X119906153Y-100663863D01*
X119975311Y-100653919D01*
X120038867Y-100682944D01*
X120056614Y-100701926D01*
X120089810Y-100745884D01*
X120114370Y-100778407D01*
X120119792Y-100785586D01*
X120277362Y-100929231D01*
X120458645Y-101041477D01*
X120657466Y-101118500D01*
X120867054Y-101157679D01*
X120867056Y-101157679D01*
X121080272Y-101157679D01*
X121080274Y-101157679D01*
X121289862Y-101118500D01*
X121488683Y-101041477D01*
X121669966Y-100929231D01*
X121827536Y-100785586D01*
X121956030Y-100615434D01*
X121977793Y-100571727D01*
X122051067Y-100424573D01*
X122051067Y-100424572D01*
X122051069Y-100424568D01*
X122109420Y-100219489D01*
X122129093Y-100007179D01*
X122109420Y-99794869D01*
X122051069Y-99589790D01*
X122051067Y-99589785D01*
X122051067Y-99589784D01*
X121956031Y-99398925D01*
X121827536Y-99228772D01*
X121786335Y-99191212D01*
X121669966Y-99085127D01*
X121609196Y-99047500D01*
X143094750Y-99047500D01*
X143098758Y-99077947D01*
X143113670Y-99191208D01*
X143113671Y-99191212D01*
X143169137Y-99325122D01*
X143169138Y-99325124D01*
X143169139Y-99325125D01*
X143257379Y-99440121D01*
X143372375Y-99528361D01*
X143506291Y-99583830D01*
X143633280Y-99600548D01*
X143649999Y-99602750D01*
X143650000Y-99602750D01*
X143650001Y-99602750D01*
X143664977Y-99600778D01*
X143793709Y-99583830D01*
X143927625Y-99528361D01*
X144042621Y-99440121D01*
X144130861Y-99325125D01*
X144186330Y-99191209D01*
X144201587Y-99075321D01*
X147574500Y-99075321D01*
X147574500Y-100924678D01*
X147589032Y-100997735D01*
X147589033Y-100997739D01*
X147600271Y-101014558D01*
X147644399Y-101080601D01*
X147697172Y-101115862D01*
X147727260Y-101135966D01*
X147727264Y-101135967D01*
X147800321Y-101150499D01*
X147800324Y-101150500D01*
X147800326Y-101150500D01*
X149649676Y-101150500D01*
X149649677Y-101150499D01*
X149722740Y-101135966D01*
X149805601Y-101080601D01*
X149860966Y-100997740D01*
X149875500Y-100924674D01*
X149875500Y-100156053D01*
X149895185Y-100089014D01*
X149947989Y-100043259D01*
X150017147Y-100033315D01*
X150080703Y-100062340D01*
X150118477Y-100121118D01*
X150122970Y-100144611D01*
X150129244Y-100212310D01*
X150187248Y-100416171D01*
X150187596Y-100417392D01*
X150187596Y-100417394D01*
X150282632Y-100608253D01*
X150389344Y-100749561D01*
X150411128Y-100778407D01*
X150568698Y-100922052D01*
X150749981Y-101034298D01*
X150948802Y-101111321D01*
X151158390Y-101150500D01*
X151158392Y-101150500D01*
X151371608Y-101150500D01*
X151371610Y-101150500D01*
X151581198Y-101111321D01*
X151780019Y-101034298D01*
X151912129Y-100952499D01*
X154207250Y-100952499D01*
X154207250Y-100952500D01*
X154226170Y-101096208D01*
X154226171Y-101096212D01*
X154281637Y-101230122D01*
X154281638Y-101230124D01*
X154281639Y-101230125D01*
X154369879Y-101345121D01*
X154484875Y-101433361D01*
X154618791Y-101488830D01*
X154745780Y-101505548D01*
X154762499Y-101507750D01*
X154762500Y-101507750D01*
X154762501Y-101507750D01*
X154777477Y-101505778D01*
X154906209Y-101488830D01*
X155040125Y-101433361D01*
X155155121Y-101345121D01*
X155243361Y-101230125D01*
X155298830Y-101096209D01*
X155315285Y-100971225D01*
X161491025Y-100971225D01*
X161509195Y-101109241D01*
X161509945Y-101114933D01*
X161509946Y-101114937D01*
X161565412Y-101248847D01*
X161565413Y-101248849D01*
X161565414Y-101248850D01*
X161653654Y-101363846D01*
X161768650Y-101452086D01*
X161902566Y-101507555D01*
X162029555Y-101524273D01*
X162046274Y-101526475D01*
X162046275Y-101526475D01*
X162046276Y-101526475D01*
X162061252Y-101524503D01*
X162189984Y-101507555D01*
X162323900Y-101452086D01*
X162438896Y-101363846D01*
X162510907Y-101270000D01*
X173892250Y-101270000D01*
X173909467Y-101400777D01*
X173911170Y-101413708D01*
X173911171Y-101413712D01*
X173966637Y-101547622D01*
X173966638Y-101547624D01*
X173966639Y-101547625D01*
X174054879Y-101662621D01*
X174169875Y-101750861D01*
X174303791Y-101806330D01*
X174430780Y-101823048D01*
X174447499Y-101825250D01*
X174447500Y-101825250D01*
X174447501Y-101825250D01*
X174462477Y-101823278D01*
X174591209Y-101806330D01*
X174725125Y-101750861D01*
X174840121Y-101662621D01*
X174928361Y-101547625D01*
X174983830Y-101413709D01*
X175002750Y-101270000D01*
X174983830Y-101126291D01*
X174937549Y-101014558D01*
X174928362Y-100992377D01*
X174928361Y-100992376D01*
X174928361Y-100992375D01*
X174840121Y-100877379D01*
X174725125Y-100789139D01*
X174725124Y-100789138D01*
X174725122Y-100789137D01*
X174591212Y-100733671D01*
X174591210Y-100733670D01*
X174591209Y-100733670D01*
X174519354Y-100724210D01*
X174447501Y-100714750D01*
X174447499Y-100714750D01*
X174303791Y-100733670D01*
X174303787Y-100733671D01*
X174169877Y-100789137D01*
X174054879Y-100877379D01*
X173966637Y-100992377D01*
X173911171Y-101126287D01*
X173911170Y-101126291D01*
X173895035Y-101248850D01*
X173892250Y-101270000D01*
X162510907Y-101270000D01*
X162527136Y-101248850D01*
X162582605Y-101114934D01*
X162601525Y-100971225D01*
X162582605Y-100827516D01*
X162543733Y-100733670D01*
X162527137Y-100693602D01*
X162527136Y-100693601D01*
X162527136Y-100693600D01*
X162482170Y-100635000D01*
X167859750Y-100635000D01*
X167878356Y-100776327D01*
X167878670Y-100778708D01*
X167878671Y-100778712D01*
X167934137Y-100912622D01*
X167934138Y-100912624D01*
X167934139Y-100912625D01*
X168022379Y-101027621D01*
X168137375Y-101115861D01*
X168137376Y-101115861D01*
X168137377Y-101115862D01*
X168182013Y-101134350D01*
X168271291Y-101171330D01*
X168398280Y-101188048D01*
X168414999Y-101190250D01*
X168415000Y-101190250D01*
X168415001Y-101190250D01*
X168429977Y-101188278D01*
X168558709Y-101171330D01*
X168692625Y-101115861D01*
X168807621Y-101027621D01*
X168895861Y-100912625D01*
X168951330Y-100778709D01*
X168970250Y-100635000D01*
X168951330Y-100491291D01*
X168895861Y-100357375D01*
X168807621Y-100242379D01*
X168692625Y-100154139D01*
X168692624Y-100154138D01*
X168692622Y-100154137D01*
X168558712Y-100098671D01*
X168558710Y-100098670D01*
X168558709Y-100098670D01*
X168485366Y-100089014D01*
X168415001Y-100079750D01*
X168414999Y-100079750D01*
X168271291Y-100098670D01*
X168271287Y-100098671D01*
X168137377Y-100154137D01*
X168022379Y-100242379D01*
X167934137Y-100357377D01*
X167878671Y-100491287D01*
X167878670Y-100491291D01*
X167874833Y-100520439D01*
X167859750Y-100635000D01*
X162482170Y-100635000D01*
X162438896Y-100578604D01*
X162323900Y-100490364D01*
X162323899Y-100490363D01*
X162323897Y-100490362D01*
X162189987Y-100434896D01*
X162189985Y-100434895D01*
X162189984Y-100434895D01*
X162111544Y-100424568D01*
X162046276Y-100415975D01*
X162046274Y-100415975D01*
X161902566Y-100434895D01*
X161902562Y-100434896D01*
X161768652Y-100490362D01*
X161653654Y-100578604D01*
X161565412Y-100693602D01*
X161509946Y-100827512D01*
X161509945Y-100827516D01*
X161491025Y-100971225D01*
X155315285Y-100971225D01*
X155317750Y-100952500D01*
X155298830Y-100808791D01*
X155246703Y-100682944D01*
X155243362Y-100674877D01*
X155243361Y-100674876D01*
X155243361Y-100674875D01*
X155155121Y-100559879D01*
X155040125Y-100471639D01*
X155040124Y-100471638D01*
X155040122Y-100471637D01*
X154906212Y-100416171D01*
X154906210Y-100416170D01*
X154906209Y-100416170D01*
X154834354Y-100406710D01*
X154762501Y-100397250D01*
X154762499Y-100397250D01*
X154618791Y-100416170D01*
X154618787Y-100416171D01*
X154484877Y-100471637D01*
X154369879Y-100559879D01*
X154281637Y-100674877D01*
X154226171Y-100808787D01*
X154226170Y-100808791D01*
X154207250Y-100952499D01*
X151912129Y-100952499D01*
X151961302Y-100922052D01*
X152118872Y-100778407D01*
X152247366Y-100608255D01*
X152315393Y-100471637D01*
X152342403Y-100417394D01*
X152342403Y-100417393D01*
X152342405Y-100417389D01*
X152400756Y-100212310D01*
X152420429Y-100000000D01*
X176114750Y-100000000D01*
X176125249Y-100079750D01*
X176133670Y-100143708D01*
X176133671Y-100143712D01*
X176189137Y-100277622D01*
X176189138Y-100277624D01*
X176189139Y-100277625D01*
X176277379Y-100392621D01*
X176392375Y-100480861D01*
X176415313Y-100490362D01*
X176487925Y-100520439D01*
X176542329Y-100564280D01*
X176564394Y-100630574D01*
X176547115Y-100698273D01*
X176495978Y-100745884D01*
X176487925Y-100749561D01*
X176392378Y-100789137D01*
X176392375Y-100789138D01*
X176392375Y-100789139D01*
X176277379Y-100877379D01*
X176189137Y-100992377D01*
X176133671Y-101126287D01*
X176133670Y-101126291D01*
X176117535Y-101248850D01*
X176114750Y-101270000D01*
X176131967Y-101400777D01*
X176133670Y-101413708D01*
X176133671Y-101413712D01*
X176189137Y-101547622D01*
X176189138Y-101547624D01*
X176189139Y-101547625D01*
X176277379Y-101662621D01*
X176392375Y-101750861D01*
X176526291Y-101806330D01*
X176653280Y-101823048D01*
X176669999Y-101825250D01*
X176670000Y-101825250D01*
X176670001Y-101825250D01*
X176684977Y-101823278D01*
X176813709Y-101806330D01*
X176947625Y-101750861D01*
X177062621Y-101662621D01*
X177150861Y-101547625D01*
X177206330Y-101413709D01*
X177225250Y-101270000D01*
X177206330Y-101126291D01*
X177160049Y-101014558D01*
X177150862Y-100992377D01*
X177150861Y-100992376D01*
X177150861Y-100992375D01*
X177062621Y-100877379D01*
X176947625Y-100789139D01*
X176947624Y-100789138D01*
X176947622Y-100789137D01*
X176852074Y-100749561D01*
X176797670Y-100705721D01*
X176775605Y-100639427D01*
X176792884Y-100571727D01*
X176844021Y-100524116D01*
X176852074Y-100520439D01*
X176924687Y-100490362D01*
X176947625Y-100480861D01*
X177062621Y-100392621D01*
X177150861Y-100277625D01*
X177206330Y-100143709D01*
X177225250Y-100000000D01*
X177224976Y-99997919D01*
X177880875Y-99997919D01*
X177880875Y-99997920D01*
X177900548Y-100210230D01*
X177958900Y-100415312D01*
X177958900Y-100415314D01*
X178053936Y-100606173D01*
X178159442Y-100745884D01*
X178182432Y-100776327D01*
X178340002Y-100919972D01*
X178521285Y-101032218D01*
X178720106Y-101109241D01*
X178929694Y-101148420D01*
X178929696Y-101148420D01*
X179142912Y-101148420D01*
X179142914Y-101148420D01*
X179352502Y-101109241D01*
X179551323Y-101032218D01*
X179732606Y-100919972D01*
X179890176Y-100776327D01*
X179953351Y-100692669D01*
X180009459Y-100651035D01*
X180079171Y-100646344D01*
X180140353Y-100680086D01*
X180173580Y-100741549D01*
X180176304Y-100767398D01*
X180176304Y-100945764D01*
X180182705Y-101005292D01*
X180182707Y-101005299D01*
X180232949Y-101140006D01*
X180232953Y-101140013D01*
X180319113Y-101255107D01*
X180319116Y-101255110D01*
X180434210Y-101341270D01*
X180434217Y-101341274D01*
X180568924Y-101391516D01*
X180568931Y-101391518D01*
X180628459Y-101397919D01*
X180628476Y-101397920D01*
X181326304Y-101397920D01*
X181326304Y-100373197D01*
X181402610Y-100417253D01*
X181517060Y-100447920D01*
X181635548Y-100447920D01*
X181749998Y-100417253D01*
X181826304Y-100373197D01*
X181826304Y-101397920D01*
X182524132Y-101397920D01*
X182524148Y-101397919D01*
X182583676Y-101391518D01*
X182583683Y-101391516D01*
X182718390Y-101341274D01*
X182718397Y-101341270D01*
X182833491Y-101255110D01*
X182833494Y-101255107D01*
X182919654Y-101140013D01*
X182919658Y-101140006D01*
X182969900Y-101005299D01*
X182969902Y-101005292D01*
X182976303Y-100945764D01*
X182976304Y-100945747D01*
X182976304Y-100247920D01*
X181951582Y-100247920D01*
X181995637Y-100171614D01*
X182026304Y-100057164D01*
X182026304Y-99938676D01*
X181995637Y-99824226D01*
X181951582Y-99747920D01*
X182976304Y-99747920D01*
X182976304Y-99050092D01*
X182976303Y-99050075D01*
X182969902Y-98990547D01*
X182969900Y-98990540D01*
X182919658Y-98855833D01*
X182919654Y-98855826D01*
X182833494Y-98740732D01*
X182833491Y-98740729D01*
X182718397Y-98654569D01*
X182718390Y-98654565D01*
X182583683Y-98604323D01*
X182583676Y-98604321D01*
X182524148Y-98597920D01*
X181826304Y-98597920D01*
X181826304Y-99622642D01*
X181749998Y-99578587D01*
X181635548Y-99547920D01*
X181517060Y-99547920D01*
X181402610Y-99578587D01*
X181326304Y-99622642D01*
X181326304Y-98597920D01*
X180628459Y-98597920D01*
X180568931Y-98604321D01*
X180568924Y-98604323D01*
X180434217Y-98654565D01*
X180434210Y-98654569D01*
X180319116Y-98740729D01*
X180319113Y-98740732D01*
X180232953Y-98855826D01*
X180232949Y-98855833D01*
X180182707Y-98990540D01*
X180182705Y-98990547D01*
X180176304Y-99050075D01*
X180176304Y-99228441D01*
X180156619Y-99295480D01*
X180103815Y-99341235D01*
X180034657Y-99351179D01*
X179971101Y-99322154D01*
X179953350Y-99303168D01*
X179890176Y-99219513D01*
X179783890Y-99122620D01*
X179732606Y-99075868D01*
X179551323Y-98963622D01*
X179551321Y-98963621D01*
X179396880Y-98903791D01*
X179352502Y-98886599D01*
X179142914Y-98847420D01*
X178929694Y-98847420D01*
X178720106Y-98886599D01*
X178720103Y-98886599D01*
X178720103Y-98886600D01*
X178521286Y-98963621D01*
X178521284Y-98963622D01*
X178340003Y-99075867D01*
X178182431Y-99219513D01*
X178053936Y-99389666D01*
X177958900Y-99580525D01*
X177958900Y-99580527D01*
X177900548Y-99785609D01*
X177880875Y-99997919D01*
X177224976Y-99997919D01*
X177206330Y-99856291D01*
X177150861Y-99722375D01*
X177062621Y-99607379D01*
X176947625Y-99519139D01*
X176947624Y-99519138D01*
X176947622Y-99519137D01*
X176813712Y-99463671D01*
X176813710Y-99463670D01*
X176813709Y-99463670D01*
X176741854Y-99454210D01*
X176670001Y-99444750D01*
X176669999Y-99444750D01*
X176526291Y-99463670D01*
X176526287Y-99463671D01*
X176392377Y-99519137D01*
X176277379Y-99607379D01*
X176189137Y-99722377D01*
X176133671Y-99856287D01*
X176133670Y-99856291D01*
X176119420Y-99964532D01*
X176114750Y-100000000D01*
X152420429Y-100000000D01*
X152400756Y-99787690D01*
X152342405Y-99582611D01*
X152342403Y-99582606D01*
X152342403Y-99582605D01*
X152247367Y-99391746D01*
X152118872Y-99221593D01*
X152085546Y-99191212D01*
X151961302Y-99077948D01*
X151912127Y-99047500D01*
X158334750Y-99047500D01*
X158338758Y-99077947D01*
X158353670Y-99191208D01*
X158353671Y-99191212D01*
X158409137Y-99325122D01*
X158409138Y-99325124D01*
X158409139Y-99325125D01*
X158497379Y-99440121D01*
X158612375Y-99528361D01*
X158746291Y-99583830D01*
X158873280Y-99600548D01*
X158889999Y-99602750D01*
X158890000Y-99602750D01*
X158890001Y-99602750D01*
X158904977Y-99600778D01*
X159033709Y-99583830D01*
X159167625Y-99528361D01*
X159282621Y-99440121D01*
X159370861Y-99325125D01*
X159426330Y-99191209D01*
X159445250Y-99047500D01*
X159426330Y-98903791D01*
X159370861Y-98769875D01*
X159340263Y-98729999D01*
X168812250Y-98729999D01*
X168812250Y-98730000D01*
X168831170Y-98873708D01*
X168831171Y-98873712D01*
X168886637Y-99007622D01*
X168886638Y-99007624D01*
X168886639Y-99007625D01*
X168974879Y-99122621D01*
X169089875Y-99210861D01*
X169089876Y-99210861D01*
X169089877Y-99210862D01*
X169133117Y-99228772D01*
X169223791Y-99266330D01*
X169350780Y-99283048D01*
X169367499Y-99285250D01*
X169367500Y-99285250D01*
X169367501Y-99285250D01*
X169382477Y-99283278D01*
X169511209Y-99266330D01*
X169645125Y-99210861D01*
X169760121Y-99122621D01*
X169848361Y-99007625D01*
X169903830Y-98873709D01*
X169922750Y-98730000D01*
X169903830Y-98586291D01*
X169848361Y-98452375D01*
X169760121Y-98337379D01*
X169645125Y-98249139D01*
X169645124Y-98249138D01*
X169645122Y-98249137D01*
X169511212Y-98193671D01*
X169511210Y-98193670D01*
X169511209Y-98193670D01*
X169426047Y-98182458D01*
X169367501Y-98174750D01*
X169367499Y-98174750D01*
X169223791Y-98193670D01*
X169223787Y-98193671D01*
X169089877Y-98249137D01*
X168974879Y-98337379D01*
X168886637Y-98452377D01*
X168831171Y-98586287D01*
X168831170Y-98586291D01*
X168812250Y-98729999D01*
X159340263Y-98729999D01*
X159282621Y-98654879D01*
X159167625Y-98566639D01*
X159167624Y-98566638D01*
X159167622Y-98566637D01*
X159033712Y-98511171D01*
X159033710Y-98511170D01*
X159033709Y-98511170D01*
X158961854Y-98501710D01*
X158890001Y-98492250D01*
X158889999Y-98492250D01*
X158746291Y-98511170D01*
X158746287Y-98511171D01*
X158612377Y-98566637D01*
X158497379Y-98654879D01*
X158409137Y-98769877D01*
X158353671Y-98903787D01*
X158353670Y-98903791D01*
X158340706Y-99002264D01*
X158334750Y-99047500D01*
X151912127Y-99047500D01*
X151780019Y-98965702D01*
X151780017Y-98965701D01*
X151620207Y-98903791D01*
X151581198Y-98888679D01*
X151371610Y-98849500D01*
X151158390Y-98849500D01*
X150948802Y-98888679D01*
X150948799Y-98888679D01*
X150948799Y-98888680D01*
X150749982Y-98965701D01*
X150749980Y-98965702D01*
X150568699Y-99077947D01*
X150411127Y-99221593D01*
X150282632Y-99391746D01*
X150187596Y-99582605D01*
X150187596Y-99582607D01*
X150129244Y-99787689D01*
X150122971Y-99855387D01*
X150097185Y-99920324D01*
X150040384Y-99961012D01*
X149970604Y-99964532D01*
X149909997Y-99929767D01*
X149877807Y-99867754D01*
X149875500Y-99843946D01*
X149875500Y-99075323D01*
X149875499Y-99075321D01*
X149860967Y-99002264D01*
X149860966Y-99002260D01*
X149835149Y-98963622D01*
X149805601Y-98919399D01*
X149750235Y-98882405D01*
X149722739Y-98864033D01*
X149722735Y-98864032D01*
X149649677Y-98849500D01*
X149649674Y-98849500D01*
X147800326Y-98849500D01*
X147800323Y-98849500D01*
X147727264Y-98864032D01*
X147727260Y-98864033D01*
X147644399Y-98919399D01*
X147589033Y-99002260D01*
X147589032Y-99002264D01*
X147574500Y-99075321D01*
X144201587Y-99075321D01*
X144205250Y-99047500D01*
X144186330Y-98903791D01*
X144130861Y-98769875D01*
X144042621Y-98654879D01*
X143927625Y-98566639D01*
X143927624Y-98566638D01*
X143927622Y-98566637D01*
X143793712Y-98511171D01*
X143793710Y-98511170D01*
X143793709Y-98511170D01*
X143721854Y-98501710D01*
X143650001Y-98492250D01*
X143649999Y-98492250D01*
X143506291Y-98511170D01*
X143506287Y-98511171D01*
X143372377Y-98566637D01*
X143257379Y-98654879D01*
X143169137Y-98769877D01*
X143113671Y-98903787D01*
X143113670Y-98903791D01*
X143100706Y-99002264D01*
X143094750Y-99047500D01*
X121609196Y-99047500D01*
X121488683Y-98972881D01*
X121488681Y-98972880D01*
X121350629Y-98919399D01*
X121289862Y-98895858D01*
X121080274Y-98856679D01*
X120867054Y-98856679D01*
X120657466Y-98895858D01*
X120657463Y-98895858D01*
X120657463Y-98895859D01*
X120458646Y-98972880D01*
X120458644Y-98972881D01*
X120277363Y-99085126D01*
X120119791Y-99228772D01*
X120056618Y-99312427D01*
X120000509Y-99354063D01*
X119930797Y-99358754D01*
X119869615Y-99325012D01*
X119836388Y-99263548D01*
X119833664Y-99237700D01*
X119833664Y-99059351D01*
X119833663Y-99059334D01*
X119827262Y-98999806D01*
X119827260Y-98999799D01*
X119777018Y-98865092D01*
X119777014Y-98865085D01*
X119690854Y-98749991D01*
X119690851Y-98749988D01*
X119575757Y-98663828D01*
X119575750Y-98663824D01*
X119441043Y-98613582D01*
X119441036Y-98613580D01*
X119381508Y-98607179D01*
X118683664Y-98607179D01*
X118683664Y-99631901D01*
X118607358Y-99587846D01*
X118492908Y-99557179D01*
X118374420Y-99557179D01*
X118259970Y-99587846D01*
X118183664Y-99631901D01*
X118183664Y-98607179D01*
X117485819Y-98607179D01*
X117426291Y-98613580D01*
X117426284Y-98613582D01*
X117291577Y-98663824D01*
X117291570Y-98663828D01*
X117176476Y-98749988D01*
X117176473Y-98749991D01*
X117090313Y-98865085D01*
X117090309Y-98865092D01*
X117040067Y-98999799D01*
X117040065Y-98999806D01*
X117033664Y-99059334D01*
X115516389Y-99059334D01*
X115520146Y-98836895D01*
X115520287Y-98832731D01*
X115524484Y-98749991D01*
X115579102Y-97673016D01*
X115579384Y-97668854D01*
X115595794Y-97475000D01*
X142762250Y-97475000D01*
X142773162Y-97557887D01*
X142781170Y-97618708D01*
X142781171Y-97618712D01*
X142836637Y-97752622D01*
X142836638Y-97752624D01*
X142836639Y-97752625D01*
X142924879Y-97867621D01*
X143039875Y-97955861D01*
X143173791Y-98011330D01*
X143300780Y-98028048D01*
X143317499Y-98030250D01*
X143317500Y-98030250D01*
X143317501Y-98030250D01*
X143332477Y-98028278D01*
X143461209Y-98011330D01*
X143595125Y-97955861D01*
X143710121Y-97867621D01*
X143798361Y-97752625D01*
X143819498Y-97701595D01*
X152733105Y-97701595D01*
X152733105Y-97701596D01*
X152752025Y-97845304D01*
X152752026Y-97845308D01*
X152807492Y-97979218D01*
X152807493Y-97979220D01*
X152807494Y-97979221D01*
X152895734Y-98094217D01*
X153010730Y-98182457D01*
X153144646Y-98237926D01*
X153271635Y-98254644D01*
X153288354Y-98256846D01*
X153288355Y-98256846D01*
X153288356Y-98256846D01*
X153303332Y-98254874D01*
X153432064Y-98237926D01*
X153565980Y-98182457D01*
X153680976Y-98094217D01*
X153769216Y-97979221D01*
X153824685Y-97845305D01*
X153843605Y-97701596D01*
X153824685Y-97557887D01*
X153769216Y-97423971D01*
X153680976Y-97308975D01*
X153565980Y-97220735D01*
X153565979Y-97220734D01*
X153565977Y-97220733D01*
X153432067Y-97165267D01*
X153432065Y-97165266D01*
X153432064Y-97165266D01*
X153360209Y-97155806D01*
X153288356Y-97146346D01*
X153288354Y-97146346D01*
X153144646Y-97165266D01*
X153144642Y-97165267D01*
X153010732Y-97220733D01*
X152895734Y-97308975D01*
X152807492Y-97423973D01*
X152752026Y-97557883D01*
X152752025Y-97557887D01*
X152733105Y-97701595D01*
X143819498Y-97701595D01*
X143853830Y-97618709D01*
X143872750Y-97475000D01*
X143853830Y-97331291D01*
X143798361Y-97197375D01*
X143710121Y-97082379D01*
X143595125Y-96994139D01*
X143595124Y-96994138D01*
X143595122Y-96994137D01*
X143461212Y-96938671D01*
X143461210Y-96938670D01*
X143461209Y-96938670D01*
X143389354Y-96929210D01*
X143317501Y-96919750D01*
X143317499Y-96919750D01*
X143173791Y-96938670D01*
X143173787Y-96938671D01*
X143039877Y-96994137D01*
X142924879Y-97082379D01*
X142836637Y-97197377D01*
X142781171Y-97331287D01*
X142781170Y-97331291D01*
X142762250Y-97475000D01*
X115595794Y-97475000D01*
X115677334Y-96511768D01*
X115677746Y-96507715D01*
X115790915Y-95554999D01*
X121822250Y-95554999D01*
X121822250Y-95555000D01*
X121841170Y-95698708D01*
X121841171Y-95698712D01*
X121896637Y-95832622D01*
X121896638Y-95832624D01*
X121896639Y-95832625D01*
X121984879Y-95947621D01*
X122099875Y-96035861D01*
X122233791Y-96091330D01*
X122360780Y-96108048D01*
X122377499Y-96110250D01*
X122377500Y-96110250D01*
X122377501Y-96110250D01*
X122392477Y-96108278D01*
X122521209Y-96091330D01*
X122655125Y-96035861D01*
X122770121Y-95947621D01*
X122858361Y-95832625D01*
X122913830Y-95698709D01*
X122932750Y-95555000D01*
X122932750Y-95554999D01*
X130747250Y-95554999D01*
X130747250Y-95555000D01*
X130766170Y-95698708D01*
X130766171Y-95698712D01*
X130821637Y-95832622D01*
X130821638Y-95832624D01*
X130821639Y-95832625D01*
X130909879Y-95947621D01*
X131024875Y-96035861D01*
X131158791Y-96091330D01*
X131285780Y-96108048D01*
X131302499Y-96110250D01*
X131302500Y-96110250D01*
X131302501Y-96110250D01*
X131317477Y-96108278D01*
X131446209Y-96091330D01*
X131580125Y-96035861D01*
X131695121Y-95947621D01*
X131752764Y-95872499D01*
X141189750Y-95872499D01*
X141189750Y-95872500D01*
X141208670Y-96016208D01*
X141208671Y-96016212D01*
X141264137Y-96150122D01*
X141264138Y-96150124D01*
X141264139Y-96150125D01*
X141352379Y-96265121D01*
X141467375Y-96353361D01*
X141601291Y-96408830D01*
X141728280Y-96425548D01*
X141744999Y-96427750D01*
X141745000Y-96427750D01*
X141745001Y-96427750D01*
X141759977Y-96425778D01*
X141888709Y-96408830D01*
X142022625Y-96353361D01*
X142137621Y-96265121D01*
X142225861Y-96150125D01*
X142281330Y-96016209D01*
X142300250Y-95872500D01*
X142281330Y-95728791D01*
X142225861Y-95594875D01*
X142195263Y-95554999D01*
X150397250Y-95554999D01*
X150397250Y-95555000D01*
X150416170Y-95698708D01*
X150416171Y-95698712D01*
X150471637Y-95832622D01*
X150471638Y-95832624D01*
X150471639Y-95832625D01*
X150559879Y-95947621D01*
X150674875Y-96035861D01*
X150808791Y-96091330D01*
X150935780Y-96108048D01*
X150952499Y-96110250D01*
X150952500Y-96110250D01*
X150952501Y-96110250D01*
X150967477Y-96108278D01*
X151096209Y-96091330D01*
X151230123Y-96035862D01*
X151237634Y-96032751D01*
X151238633Y-96035163D01*
X151293939Y-96021741D01*
X151359968Y-96044588D01*
X151402610Y-96098149D01*
X151424137Y-96150122D01*
X151424138Y-96150124D01*
X151424139Y-96150125D01*
X151512379Y-96265121D01*
X151627375Y-96353361D01*
X151761291Y-96408830D01*
X151888280Y-96425548D01*
X151904999Y-96427750D01*
X151905000Y-96427750D01*
X151905001Y-96427750D01*
X151919977Y-96425778D01*
X152048709Y-96408830D01*
X152182625Y-96353361D01*
X152297621Y-96265121D01*
X152385861Y-96150125D01*
X152441330Y-96016209D01*
X152460250Y-95872500D01*
X152460250Y-95872499D01*
X157382250Y-95872499D01*
X157382250Y-95872500D01*
X157401170Y-96016208D01*
X157401171Y-96016212D01*
X157456637Y-96150122D01*
X157456638Y-96150124D01*
X157456639Y-96150125D01*
X157544879Y-96265121D01*
X157659875Y-96353361D01*
X157793791Y-96408830D01*
X157920780Y-96425548D01*
X157937499Y-96427750D01*
X157937500Y-96427750D01*
X157937501Y-96427750D01*
X157952477Y-96425778D01*
X158081209Y-96408830D01*
X158215125Y-96353361D01*
X158330121Y-96265121D01*
X158418361Y-96150125D01*
X158473830Y-96016209D01*
X158492750Y-95872500D01*
X158492750Y-95872499D01*
X161827250Y-95872499D01*
X161827250Y-95872500D01*
X161846170Y-96016208D01*
X161846171Y-96016212D01*
X161901637Y-96150122D01*
X161901638Y-96150124D01*
X161901639Y-96150125D01*
X161989879Y-96265121D01*
X162104875Y-96353361D01*
X162238791Y-96408830D01*
X162365780Y-96425548D01*
X162382499Y-96427750D01*
X162382500Y-96427750D01*
X162382501Y-96427750D01*
X162397477Y-96425778D01*
X162526209Y-96408830D01*
X162660125Y-96353361D01*
X162775121Y-96265121D01*
X162863361Y-96150125D01*
X162918830Y-96016209D01*
X162937750Y-95872500D01*
X162918830Y-95728791D01*
X162863361Y-95594875D01*
X162775121Y-95479879D01*
X162660125Y-95391639D01*
X162660124Y-95391638D01*
X162660122Y-95391637D01*
X162526212Y-95336171D01*
X162526210Y-95336170D01*
X162526209Y-95336170D01*
X162454354Y-95326710D01*
X162382501Y-95317250D01*
X162382499Y-95317250D01*
X162238791Y-95336170D01*
X162238787Y-95336171D01*
X162104877Y-95391637D01*
X161989879Y-95479879D01*
X161901637Y-95594877D01*
X161846171Y-95728787D01*
X161846170Y-95728791D01*
X161827250Y-95872499D01*
X158492750Y-95872499D01*
X158473830Y-95728791D01*
X158418361Y-95594875D01*
X158330121Y-95479879D01*
X158215125Y-95391639D01*
X158215124Y-95391638D01*
X158215122Y-95391637D01*
X158081212Y-95336171D01*
X158081210Y-95336170D01*
X158081209Y-95336170D01*
X158009354Y-95326710D01*
X157937501Y-95317250D01*
X157937499Y-95317250D01*
X157793791Y-95336170D01*
X157793787Y-95336171D01*
X157659877Y-95391637D01*
X157544879Y-95479879D01*
X157456637Y-95594877D01*
X157401171Y-95728787D01*
X157401170Y-95728791D01*
X157382250Y-95872499D01*
X152460250Y-95872499D01*
X152441330Y-95728791D01*
X152385861Y-95594875D01*
X152297621Y-95479879D01*
X152182625Y-95391639D01*
X152182624Y-95391638D01*
X152182622Y-95391637D01*
X152048712Y-95336171D01*
X152048710Y-95336170D01*
X152048709Y-95336170D01*
X151976854Y-95326710D01*
X151905001Y-95317250D01*
X151904999Y-95317250D01*
X151761291Y-95336170D01*
X151761287Y-95336171D01*
X151619866Y-95394749D01*
X151618870Y-95392344D01*
X151563510Y-95405756D01*
X151497491Y-95382882D01*
X151454890Y-95329351D01*
X151433361Y-95277375D01*
X151345121Y-95162379D01*
X151230125Y-95074139D01*
X151230124Y-95074138D01*
X151230122Y-95074137D01*
X151096212Y-95018671D01*
X151096210Y-95018670D01*
X151096209Y-95018670D01*
X151024354Y-95009210D01*
X150952501Y-94999750D01*
X150952499Y-94999750D01*
X150808791Y-95018670D01*
X150808787Y-95018671D01*
X150674877Y-95074137D01*
X150559879Y-95162379D01*
X150471637Y-95277377D01*
X150416171Y-95411287D01*
X150416170Y-95411291D01*
X150397250Y-95554999D01*
X142195263Y-95554999D01*
X142137621Y-95479879D01*
X142022625Y-95391639D01*
X142022624Y-95391638D01*
X142022622Y-95391637D01*
X141888712Y-95336171D01*
X141888710Y-95336170D01*
X141888709Y-95336170D01*
X141816854Y-95326710D01*
X141745001Y-95317250D01*
X141744999Y-95317250D01*
X141601291Y-95336170D01*
X141601287Y-95336171D01*
X141467377Y-95391637D01*
X141352379Y-95479879D01*
X141264137Y-95594877D01*
X141208671Y-95728787D01*
X141208670Y-95728791D01*
X141189750Y-95872499D01*
X131752764Y-95872499D01*
X131783361Y-95832625D01*
X131838830Y-95698709D01*
X131857750Y-95555000D01*
X131838830Y-95411291D01*
X131783361Y-95277375D01*
X131695121Y-95162379D01*
X131580125Y-95074139D01*
X131580124Y-95074138D01*
X131580122Y-95074137D01*
X131446212Y-95018671D01*
X131446210Y-95018670D01*
X131446209Y-95018670D01*
X131374354Y-95009210D01*
X131302501Y-94999750D01*
X131302499Y-94999750D01*
X131158791Y-95018670D01*
X131158787Y-95018671D01*
X131024877Y-95074137D01*
X130909879Y-95162379D01*
X130821637Y-95277377D01*
X130766171Y-95411287D01*
X130766170Y-95411291D01*
X130747250Y-95554999D01*
X122932750Y-95554999D01*
X122913830Y-95411291D01*
X122858361Y-95277375D01*
X122770121Y-95162379D01*
X122655125Y-95074139D01*
X122655124Y-95074138D01*
X122655122Y-95074137D01*
X122521212Y-95018671D01*
X122521210Y-95018670D01*
X122521209Y-95018670D01*
X122449354Y-95009210D01*
X122377501Y-94999750D01*
X122377499Y-94999750D01*
X122233791Y-95018670D01*
X122233787Y-95018671D01*
X122099877Y-95074137D01*
X121984879Y-95162379D01*
X121896637Y-95277377D01*
X121841171Y-95411287D01*
X121841170Y-95411291D01*
X121822250Y-95554999D01*
X115790915Y-95554999D01*
X115814721Y-95354587D01*
X115815283Y-95350457D01*
X115820370Y-95317250D01*
X115991121Y-94202651D01*
X115991821Y-94198547D01*
X115994118Y-94186330D01*
X116094927Y-93650000D01*
X128172250Y-93650000D01*
X128186848Y-93760884D01*
X128191170Y-93793708D01*
X128191171Y-93793712D01*
X128246637Y-93927622D01*
X128246638Y-93927624D01*
X128246639Y-93927625D01*
X128334879Y-94042621D01*
X128449875Y-94130861D01*
X128449876Y-94130861D01*
X128449877Y-94130862D01*
X128494513Y-94149350D01*
X128583791Y-94186330D01*
X128707949Y-94202676D01*
X128727499Y-94205250D01*
X128727500Y-94205250D01*
X128727501Y-94205250D01*
X128747051Y-94202676D01*
X128871209Y-94186330D01*
X129005125Y-94130861D01*
X129120121Y-94042621D01*
X129208361Y-93927625D01*
X129263830Y-93793709D01*
X129282750Y-93650000D01*
X161192250Y-93650000D01*
X161206848Y-93760884D01*
X161211170Y-93793708D01*
X161211171Y-93793712D01*
X161266637Y-93927622D01*
X161266638Y-93927624D01*
X161266639Y-93927625D01*
X161354879Y-94042621D01*
X161469875Y-94130861D01*
X161469876Y-94130861D01*
X161469877Y-94130862D01*
X161514513Y-94149350D01*
X161603791Y-94186330D01*
X161727949Y-94202676D01*
X161747499Y-94205250D01*
X161747500Y-94205250D01*
X161747501Y-94205250D01*
X161767051Y-94202676D01*
X161891209Y-94186330D01*
X162025125Y-94130861D01*
X162140121Y-94042621D01*
X162228361Y-93927625D01*
X162283830Y-93793709D01*
X162302750Y-93650000D01*
X162283830Y-93506291D01*
X162228361Y-93372375D01*
X162140121Y-93257379D01*
X162025125Y-93169139D01*
X162025124Y-93169138D01*
X162025122Y-93169137D01*
X161891212Y-93113671D01*
X161891210Y-93113670D01*
X161891209Y-93113670D01*
X161793856Y-93100853D01*
X161747501Y-93094750D01*
X161747499Y-93094750D01*
X161603791Y-93113670D01*
X161603787Y-93113671D01*
X161469877Y-93169137D01*
X161354879Y-93257379D01*
X161266637Y-93372377D01*
X161211171Y-93506287D01*
X161211170Y-93506291D01*
X161207333Y-93535439D01*
X161192250Y-93650000D01*
X129282750Y-93650000D01*
X129263830Y-93506291D01*
X129208361Y-93372375D01*
X129120121Y-93257379D01*
X129005125Y-93169139D01*
X129005124Y-93169138D01*
X129005122Y-93169137D01*
X128871212Y-93113671D01*
X128871210Y-93113670D01*
X128871209Y-93113670D01*
X128773856Y-93100853D01*
X128727501Y-93094750D01*
X128727499Y-93094750D01*
X128583791Y-93113670D01*
X128583787Y-93113671D01*
X128449877Y-93169137D01*
X128334879Y-93257379D01*
X128246637Y-93372377D01*
X128191171Y-93506287D01*
X128191170Y-93506291D01*
X128187333Y-93535439D01*
X128172250Y-93650000D01*
X116094927Y-93650000D01*
X116206321Y-93057351D01*
X116207162Y-93053262D01*
X116234683Y-92929945D01*
X116359947Y-92368653D01*
X117895244Y-92368653D01*
X117895244Y-92368654D01*
X117908910Y-92511783D01*
X117962347Y-92645260D01*
X118051221Y-92758275D01*
X118051222Y-92758276D01*
X118168347Y-92841679D01*
X118168346Y-92841679D01*
X118224193Y-92863269D01*
X118224210Y-92863274D01*
X118898255Y-93043884D01*
X119163472Y-92054078D01*
X119225778Y-92116384D01*
X119328390Y-92175627D01*
X119442840Y-92206294D01*
X119561328Y-92206294D01*
X119646436Y-92183489D01*
X119381219Y-93173293D01*
X120055281Y-93353908D01*
X120114443Y-93363133D01*
X120114444Y-93363133D01*
X120257573Y-93349467D01*
X120391050Y-93296030D01*
X120504065Y-93207156D01*
X120504066Y-93207155D01*
X120587469Y-93090030D01*
X120609059Y-93034184D01*
X120609066Y-93034162D01*
X120653801Y-92867206D01*
X120690166Y-92807545D01*
X120753012Y-92777016D01*
X120822388Y-92785310D01*
X120876266Y-92829796D01*
X120884576Y-92844028D01*
X120973168Y-93021947D01*
X121101663Y-93192100D01*
X121101664Y-93192101D01*
X121259234Y-93335746D01*
X121440517Y-93447992D01*
X121639338Y-93525015D01*
X121848926Y-93564194D01*
X121848928Y-93564194D01*
X122062144Y-93564194D01*
X122062146Y-93564194D01*
X122271734Y-93525015D01*
X122470555Y-93447992D01*
X122651838Y-93335746D01*
X122809408Y-93192101D01*
X122937902Y-93021949D01*
X123014954Y-92867206D01*
X123032939Y-92831088D01*
X123032939Y-92831087D01*
X123032941Y-92831083D01*
X123070949Y-92697500D01*
X137379750Y-92697500D01*
X137397167Y-92829796D01*
X137398670Y-92841208D01*
X137398671Y-92841212D01*
X137454137Y-92975122D01*
X137454138Y-92975124D01*
X137454139Y-92975125D01*
X137542379Y-93090121D01*
X137657375Y-93178361D01*
X137791291Y-93233830D01*
X137918280Y-93250548D01*
X137934999Y-93252750D01*
X137935000Y-93252750D01*
X137935001Y-93252750D01*
X137949977Y-93250778D01*
X138078709Y-93233830D01*
X138212625Y-93178361D01*
X138327621Y-93090121D01*
X138415861Y-92975125D01*
X138471330Y-92841209D01*
X138490250Y-92697500D01*
X154524750Y-92697500D01*
X154542167Y-92829796D01*
X154543670Y-92841208D01*
X154543671Y-92841212D01*
X154599137Y-92975122D01*
X154599138Y-92975124D01*
X154599139Y-92975125D01*
X154687379Y-93090121D01*
X154802375Y-93178361D01*
X154936291Y-93233830D01*
X155063280Y-93250548D01*
X155079999Y-93252750D01*
X155080000Y-93252750D01*
X155080001Y-93252750D01*
X155094977Y-93250778D01*
X155223709Y-93233830D01*
X155357625Y-93178361D01*
X155472621Y-93090121D01*
X155530264Y-93015000D01*
X168812250Y-93015000D01*
X168830905Y-93156699D01*
X168831170Y-93158708D01*
X168831171Y-93158712D01*
X168886637Y-93292622D01*
X168886638Y-93292624D01*
X168886639Y-93292625D01*
X168974879Y-93407621D01*
X169089875Y-93495861D01*
X169115046Y-93506287D01*
X169185425Y-93535439D01*
X169239829Y-93579280D01*
X169261894Y-93645574D01*
X169244615Y-93713273D01*
X169193478Y-93760884D01*
X169185425Y-93764561D01*
X169089878Y-93804137D01*
X168974879Y-93892379D01*
X168886637Y-94007377D01*
X168831171Y-94141287D01*
X168831170Y-94141291D01*
X168812250Y-94284999D01*
X168812250Y-94285000D01*
X168831170Y-94428708D01*
X168831171Y-94428712D01*
X168886637Y-94562622D01*
X168886638Y-94562624D01*
X168886639Y-94562625D01*
X168974879Y-94677621D01*
X169089875Y-94765861D01*
X169223791Y-94821330D01*
X169350780Y-94838048D01*
X169367499Y-94840250D01*
X169367500Y-94840250D01*
X169367501Y-94840250D01*
X169382477Y-94838278D01*
X169511209Y-94821330D01*
X169645125Y-94765861D01*
X169760121Y-94677621D01*
X169848361Y-94562625D01*
X169903830Y-94428709D01*
X169922750Y-94285000D01*
X169903830Y-94141291D01*
X169848361Y-94007375D01*
X169760121Y-93892379D01*
X169645125Y-93804139D01*
X169645124Y-93804138D01*
X169645122Y-93804137D01*
X169549574Y-93764561D01*
X169495170Y-93720721D01*
X169473105Y-93654427D01*
X169490384Y-93586727D01*
X169541521Y-93539116D01*
X169549574Y-93535439D01*
X169599737Y-93514661D01*
X169645125Y-93495861D01*
X169760121Y-93407621D01*
X169848361Y-93292625D01*
X169903830Y-93158709D01*
X169922750Y-93015000D01*
X169903830Y-92871291D01*
X169848361Y-92737375D01*
X169760121Y-92622379D01*
X169645125Y-92534139D01*
X169645124Y-92534138D01*
X169645122Y-92534137D01*
X169515297Y-92480363D01*
X176900416Y-92480363D01*
X176920089Y-92692673D01*
X176952773Y-92807545D01*
X176978441Y-92897755D01*
X176978441Y-92897757D01*
X177073477Y-93088616D01*
X177201972Y-93258769D01*
X177201973Y-93258770D01*
X177359543Y-93402415D01*
X177540826Y-93514661D01*
X177739647Y-93591684D01*
X177949235Y-93630863D01*
X177949237Y-93630863D01*
X178162453Y-93630863D01*
X178162455Y-93630863D01*
X178372043Y-93591684D01*
X178570864Y-93514661D01*
X178752147Y-93402415D01*
X178909717Y-93258770D01*
X179038211Y-93088618D01*
X179126804Y-92910696D01*
X179174306Y-92859461D01*
X179241969Y-92842039D01*
X179308309Y-92863964D01*
X179352265Y-92918275D01*
X179357579Y-92933875D01*
X179402316Y-93100835D01*
X179402321Y-93100853D01*
X179423911Y-93156699D01*
X179507314Y-93273824D01*
X179507315Y-93273825D01*
X179620330Y-93362699D01*
X179753807Y-93416136D01*
X179896936Y-93429802D01*
X179896937Y-93429802D01*
X179956099Y-93420577D01*
X180630160Y-93239962D01*
X180364944Y-92250157D01*
X180450053Y-92272963D01*
X180568541Y-92272963D01*
X180682991Y-92242296D01*
X180785603Y-92183053D01*
X180847907Y-92120748D01*
X181113124Y-93110553D01*
X181787165Y-92929945D01*
X181787187Y-92929938D01*
X181843033Y-92908348D01*
X181960158Y-92824945D01*
X181960159Y-92824944D01*
X182049033Y-92711929D01*
X182102470Y-92578452D01*
X182116136Y-92435323D01*
X182116136Y-92435322D01*
X182106911Y-92376160D01*
X181926296Y-91702098D01*
X180936492Y-91967314D01*
X180959297Y-91882207D01*
X180959297Y-91763719D01*
X180928630Y-91649269D01*
X180869387Y-91546657D01*
X180807081Y-91484351D01*
X181796887Y-91219134D01*
X181616277Y-90545089D01*
X181616272Y-90545072D01*
X181594682Y-90489226D01*
X181511279Y-90372101D01*
X181511278Y-90372100D01*
X181398263Y-90283226D01*
X181264786Y-90229789D01*
X181121657Y-90216123D01*
X181121656Y-90216123D01*
X181062493Y-90225348D01*
X180388432Y-90405962D01*
X180653649Y-91395767D01*
X180568541Y-91372963D01*
X180450053Y-91372963D01*
X180335603Y-91403630D01*
X180232991Y-91462873D01*
X180170686Y-91525177D01*
X179905468Y-90535371D01*
X179231424Y-90715982D01*
X179231406Y-90715987D01*
X179175560Y-90737577D01*
X179058435Y-90820980D01*
X179058434Y-90820981D01*
X178969560Y-90933996D01*
X178916123Y-91067473D01*
X178902457Y-91210602D01*
X178902457Y-91210603D01*
X178911682Y-91269768D01*
X178955967Y-91435043D01*
X178954304Y-91504893D01*
X178915141Y-91562755D01*
X178850913Y-91590259D01*
X178782010Y-91578672D01*
X178756838Y-91561609D01*
X178756721Y-91561765D01*
X178753672Y-91559462D01*
X178752652Y-91558771D01*
X178752148Y-91558312D01*
X178752147Y-91558311D01*
X178570864Y-91446065D01*
X178570862Y-91446064D01*
X178382164Y-91372963D01*
X178372043Y-91369042D01*
X178162455Y-91329863D01*
X177949235Y-91329863D01*
X177739647Y-91369042D01*
X177739644Y-91369042D01*
X177739644Y-91369043D01*
X177540827Y-91446064D01*
X177540825Y-91446065D01*
X177359544Y-91558310D01*
X177201972Y-91701956D01*
X177073477Y-91872109D01*
X176978441Y-92062968D01*
X176978441Y-92062970D01*
X176920089Y-92268052D01*
X176904590Y-92435322D01*
X176900416Y-92480363D01*
X169515297Y-92480363D01*
X169511212Y-92478671D01*
X169511210Y-92478670D01*
X169511209Y-92478670D01*
X169439354Y-92469210D01*
X169367501Y-92459750D01*
X169367499Y-92459750D01*
X169223791Y-92478670D01*
X169223787Y-92478671D01*
X169089877Y-92534137D01*
X168974879Y-92622379D01*
X168886637Y-92737377D01*
X168831171Y-92871287D01*
X168831170Y-92871291D01*
X168822931Y-92933875D01*
X168812250Y-93015000D01*
X155530264Y-93015000D01*
X155560861Y-92975125D01*
X155616330Y-92841209D01*
X155635250Y-92697500D01*
X155616330Y-92553791D01*
X155560861Y-92419875D01*
X155472621Y-92304879D01*
X155357625Y-92216639D01*
X155357624Y-92216638D01*
X155357622Y-92216637D01*
X155223712Y-92161171D01*
X155223710Y-92161170D01*
X155223709Y-92161170D01*
X155151854Y-92151710D01*
X155080001Y-92142250D01*
X155079999Y-92142250D01*
X154936291Y-92161170D01*
X154936287Y-92161171D01*
X154802377Y-92216637D01*
X154687379Y-92304879D01*
X154599137Y-92419877D01*
X154543671Y-92553787D01*
X154543670Y-92553791D01*
X154524750Y-92697500D01*
X138490250Y-92697500D01*
X138471330Y-92553791D01*
X138415861Y-92419875D01*
X138327621Y-92304879D01*
X138212625Y-92216639D01*
X138212624Y-92216638D01*
X138212622Y-92216637D01*
X138078712Y-92161171D01*
X138078710Y-92161170D01*
X138078709Y-92161170D01*
X138006854Y-92151710D01*
X137935001Y-92142250D01*
X137934999Y-92142250D01*
X137791291Y-92161170D01*
X137791287Y-92161171D01*
X137657377Y-92216637D01*
X137542379Y-92304879D01*
X137454137Y-92419877D01*
X137398671Y-92553787D01*
X137398670Y-92553791D01*
X137379750Y-92697500D01*
X123070949Y-92697500D01*
X123091292Y-92626004D01*
X123110965Y-92413694D01*
X123091292Y-92201384D01*
X123032941Y-91996305D01*
X123032939Y-91996300D01*
X123032939Y-91996299D01*
X122937903Y-91805440D01*
X122809408Y-91635287D01*
X122760015Y-91590259D01*
X122651838Y-91491642D01*
X122470555Y-91379396D01*
X122470553Y-91379395D01*
X122281855Y-91306294D01*
X122271734Y-91302373D01*
X122062146Y-91263194D01*
X121848926Y-91263194D01*
X121639338Y-91302373D01*
X121639335Y-91302373D01*
X121639335Y-91302374D01*
X121440518Y-91379395D01*
X121440516Y-91379396D01*
X121259232Y-91491643D01*
X121258719Y-91492111D01*
X121258419Y-91492257D01*
X121254660Y-91495096D01*
X121254104Y-91494360D01*
X121195912Y-91522724D01*
X121126526Y-91514521D01*
X121072589Y-91470107D01*
X121051226Y-91403583D01*
X121055412Y-91368374D01*
X121099698Y-91203096D01*
X121108923Y-91143934D01*
X121108923Y-91143933D01*
X121095257Y-91000804D01*
X121041820Y-90867327D01*
X120952946Y-90754312D01*
X120952945Y-90754311D01*
X120835820Y-90670908D01*
X120835821Y-90670908D01*
X120779974Y-90649318D01*
X120779956Y-90649313D01*
X120105911Y-90468702D01*
X119840694Y-91458508D01*
X119778390Y-91396204D01*
X119675778Y-91336961D01*
X119561328Y-91306294D01*
X119442840Y-91306294D01*
X119357729Y-91329099D01*
X119622947Y-90339293D01*
X118948886Y-90158679D01*
X118889724Y-90149454D01*
X118889723Y-90149454D01*
X118746594Y-90163120D01*
X118613117Y-90216557D01*
X118500102Y-90305431D01*
X118500101Y-90305432D01*
X118416698Y-90422557D01*
X118395108Y-90478403D01*
X118395103Y-90478421D01*
X118214492Y-91152465D01*
X119204299Y-91417682D01*
X119141994Y-91479988D01*
X119082751Y-91582600D01*
X119052084Y-91697050D01*
X119052084Y-91815538D01*
X119074888Y-91900646D01*
X118085083Y-91635429D01*
X117904469Y-92309490D01*
X117895244Y-92368653D01*
X116359947Y-92368653D01*
X116460085Y-91919945D01*
X116461052Y-91915931D01*
X116752128Y-90791732D01*
X116753226Y-90787773D01*
X117082094Y-89674079D01*
X117083315Y-89670188D01*
X117449614Y-88568225D01*
X117450983Y-88564328D01*
X117566471Y-88252499D01*
X124362250Y-88252499D01*
X124362250Y-88252500D01*
X124381170Y-88396208D01*
X124381171Y-88396212D01*
X124436637Y-88530122D01*
X124436638Y-88530124D01*
X124436639Y-88530125D01*
X124524879Y-88645121D01*
X124639875Y-88733361D01*
X124773791Y-88788830D01*
X124900780Y-88805548D01*
X124917499Y-88807750D01*
X124917500Y-88807750D01*
X124917501Y-88807750D01*
X124932477Y-88805778D01*
X125061209Y-88788830D01*
X125195125Y-88733361D01*
X125310121Y-88645121D01*
X125398361Y-88530125D01*
X125453830Y-88396209D01*
X125472750Y-88252500D01*
X125453830Y-88108791D01*
X125398361Y-87974875D01*
X125310121Y-87859879D01*
X125195125Y-87771639D01*
X125195124Y-87771638D01*
X125195122Y-87771637D01*
X125061212Y-87716171D01*
X125061210Y-87716170D01*
X125061209Y-87716170D01*
X124989354Y-87706710D01*
X124917501Y-87697250D01*
X124917499Y-87697250D01*
X124773791Y-87716170D01*
X124773787Y-87716171D01*
X124639877Y-87771637D01*
X124524879Y-87859879D01*
X124436637Y-87974877D01*
X124381171Y-88108787D01*
X124381170Y-88108791D01*
X124362250Y-88252499D01*
X117566471Y-88252499D01*
X117854293Y-87475355D01*
X117855775Y-87471553D01*
X118295623Y-86396852D01*
X118297265Y-86393027D01*
X118773170Y-85333771D01*
X118774900Y-85330089D01*
X119162334Y-84540252D01*
X120922951Y-84540252D01*
X120940022Y-84683012D01*
X120996620Y-84815185D01*
X121088160Y-84926052D01*
X121088164Y-84926055D01*
X121136529Y-84961371D01*
X121136534Y-84961374D01*
X121740866Y-85310285D01*
X121740867Y-85310285D01*
X122253228Y-84422849D01*
X122297284Y-84499156D01*
X122381068Y-84582940D01*
X122483680Y-84642183D01*
X122598130Y-84672850D01*
X122686240Y-84672850D01*
X122173880Y-85560284D01*
X122173880Y-85560285D01*
X122778209Y-85909196D01*
X122832986Y-85933428D01*
X122832992Y-85933430D01*
X122974774Y-85957271D01*
X122974776Y-85957272D01*
X123117536Y-85940201D01*
X123249709Y-85883603D01*
X123360576Y-85792063D01*
X123360579Y-85792059D01*
X123395894Y-85743695D01*
X123484498Y-85590227D01*
X123535065Y-85542011D01*
X123603672Y-85528787D01*
X123668537Y-85554755D01*
X123709066Y-85611669D01*
X123715357Y-85640783D01*
X123721323Y-85705161D01*
X123779675Y-85910242D01*
X123779675Y-85910244D01*
X123874711Y-86101103D01*
X123889170Y-86120249D01*
X124003207Y-86271257D01*
X124160777Y-86414902D01*
X124342060Y-86527148D01*
X124540881Y-86604171D01*
X124750469Y-86643350D01*
X124750471Y-86643350D01*
X124963687Y-86643350D01*
X124963689Y-86643350D01*
X125173277Y-86604171D01*
X125372098Y-86527148D01*
X125553381Y-86414902D01*
X125710951Y-86271257D01*
X125839445Y-86101105D01*
X125867157Y-86045452D01*
X125934482Y-85910244D01*
X125934482Y-85910243D01*
X125934484Y-85910239D01*
X125992835Y-85705160D01*
X126012508Y-85492850D01*
X126000661Y-85364997D01*
X146469751Y-85364997D01*
X146469751Y-85365002D01*
X146488685Y-85533056D01*
X146544545Y-85692694D01*
X146544547Y-85692697D01*
X146634518Y-85835884D01*
X146634523Y-85835890D01*
X146754109Y-85955476D01*
X146754115Y-85955481D01*
X146897302Y-86045452D01*
X146897305Y-86045454D01*
X146897309Y-86045455D01*
X146897310Y-86045456D01*
X146969913Y-86070860D01*
X147056943Y-86101314D01*
X147224997Y-86120249D01*
X147225000Y-86120249D01*
X147225003Y-86120249D01*
X147393056Y-86101314D01*
X147393659Y-86101103D01*
X147552690Y-86045456D01*
X147552692Y-86045454D01*
X147552694Y-86045454D01*
X147552697Y-86045452D01*
X147695884Y-85955481D01*
X147695885Y-85955480D01*
X147695890Y-85955477D01*
X147815477Y-85835890D01*
X147834532Y-85805564D01*
X147905452Y-85692697D01*
X147905454Y-85692694D01*
X147905454Y-85692692D01*
X147905456Y-85692690D01*
X147953734Y-85554720D01*
X174037155Y-85554720D01*
X174056828Y-85767030D01*
X174110957Y-85957272D01*
X174115180Y-85972112D01*
X174115180Y-85972114D01*
X174210216Y-86162973D01*
X174338711Y-86333126D01*
X174338712Y-86333127D01*
X174496282Y-86476772D01*
X174677565Y-86589018D01*
X174876386Y-86666041D01*
X175085974Y-86705220D01*
X175085976Y-86705220D01*
X175299192Y-86705220D01*
X175299194Y-86705220D01*
X175508782Y-86666041D01*
X175707603Y-86589018D01*
X175888886Y-86476772D01*
X176046456Y-86333127D01*
X176174950Y-86162975D01*
X176255070Y-86002071D01*
X176269987Y-85972114D01*
X176269987Y-85972113D01*
X176269989Y-85972109D01*
X176328340Y-85767030D01*
X176334305Y-85702655D01*
X176360091Y-85637719D01*
X176416891Y-85597031D01*
X176486672Y-85593511D01*
X176547279Y-85628276D01*
X176565163Y-85652097D01*
X176653764Y-85805559D01*
X176653767Y-85805564D01*
X176689083Y-85853929D01*
X176689086Y-85853933D01*
X176799953Y-85945473D01*
X176932126Y-86002071D01*
X177074886Y-86019142D01*
X177074888Y-86019141D01*
X177216670Y-85995300D01*
X177216676Y-85995298D01*
X177271453Y-85971066D01*
X177875781Y-85622155D01*
X177875781Y-85622154D01*
X177363421Y-84734720D01*
X177451533Y-84734720D01*
X177565983Y-84704053D01*
X177668595Y-84644810D01*
X177752379Y-84561026D01*
X177796433Y-84484721D01*
X178308794Y-85372155D01*
X178308795Y-85372155D01*
X178913128Y-85023244D01*
X178913133Y-85023241D01*
X178961498Y-84987925D01*
X178961502Y-84987922D01*
X179053042Y-84877055D01*
X179109640Y-84744882D01*
X179126711Y-84602122D01*
X179126710Y-84602120D01*
X179102869Y-84460338D01*
X179102867Y-84460332D01*
X179078635Y-84405555D01*
X178729724Y-83801226D01*
X178729723Y-83801226D01*
X177842289Y-84313585D01*
X177842289Y-84225476D01*
X177811622Y-84111026D01*
X177752379Y-84008414D01*
X177668595Y-83924630D01*
X177592288Y-83880574D01*
X178479724Y-83368213D01*
X178479724Y-83368212D01*
X178130813Y-82763880D01*
X178130810Y-82763875D01*
X178095494Y-82715510D01*
X178095491Y-82715506D01*
X177984624Y-82623966D01*
X177852451Y-82567368D01*
X177709691Y-82550297D01*
X177709689Y-82550298D01*
X177567907Y-82574139D01*
X177567901Y-82574141D01*
X177513124Y-82598373D01*
X176908795Y-82947283D01*
X176908795Y-82947284D01*
X177421156Y-83834720D01*
X177333045Y-83834720D01*
X177218595Y-83865387D01*
X177115983Y-83924630D01*
X177032199Y-84008414D01*
X176988144Y-84084719D01*
X176475782Y-83197283D01*
X176475781Y-83197283D01*
X175871440Y-83546201D01*
X175823079Y-83581514D01*
X175823075Y-83581517D01*
X175731535Y-83692384D01*
X175674937Y-83824557D01*
X175657866Y-83967317D01*
X175657867Y-83967319D01*
X175681708Y-84109101D01*
X175681710Y-84109107D01*
X175705942Y-84163884D01*
X175794674Y-84317571D01*
X175811147Y-84385471D01*
X175788295Y-84451498D01*
X175733373Y-84494689D01*
X175663820Y-84501330D01*
X175642494Y-84495198D01*
X175508786Y-84443400D01*
X175508783Y-84443399D01*
X175508782Y-84443399D01*
X175299194Y-84404220D01*
X175085974Y-84404220D01*
X174876386Y-84443399D01*
X174876383Y-84443399D01*
X174876383Y-84443400D01*
X174677566Y-84520421D01*
X174677564Y-84520422D01*
X174496283Y-84632667D01*
X174338711Y-84776313D01*
X174210216Y-84946466D01*
X174115180Y-85137325D01*
X174115180Y-85137327D01*
X174056828Y-85342409D01*
X174054735Y-85365002D01*
X174037155Y-85554720D01*
X147953734Y-85554720D01*
X147961313Y-85533059D01*
X147961313Y-85533058D01*
X147961314Y-85533056D01*
X147980249Y-85365002D01*
X147980249Y-85364997D01*
X147961314Y-85196943D01*
X147930860Y-85109913D01*
X147905456Y-85037310D01*
X147905455Y-85037309D01*
X147905454Y-85037305D01*
X147905452Y-85037302D01*
X147815481Y-84894115D01*
X147815476Y-84894109D01*
X147695890Y-84774523D01*
X147695884Y-84774518D01*
X147552697Y-84684547D01*
X147552694Y-84684545D01*
X147393056Y-84628685D01*
X147225003Y-84609751D01*
X147224997Y-84609751D01*
X147056943Y-84628685D01*
X146897305Y-84684545D01*
X146897302Y-84684547D01*
X146754115Y-84774518D01*
X146754109Y-84774523D01*
X146634523Y-84894109D01*
X146634518Y-84894115D01*
X146544547Y-85037302D01*
X146544545Y-85037305D01*
X146488685Y-85196943D01*
X146469751Y-85364997D01*
X126000661Y-85364997D01*
X125992835Y-85280540D01*
X125934484Y-85075461D01*
X125934482Y-85075456D01*
X125934482Y-85075455D01*
X125839446Y-84884596D01*
X125710951Y-84714443D01*
X125678157Y-84684547D01*
X125553381Y-84570798D01*
X125372098Y-84458552D01*
X125372096Y-84458551D01*
X125235296Y-84405555D01*
X125173277Y-84381529D01*
X124963689Y-84342350D01*
X124750469Y-84342350D01*
X124592315Y-84371914D01*
X124540875Y-84381530D01*
X124407168Y-84433328D01*
X124337545Y-84439189D01*
X124275805Y-84406479D01*
X124241550Y-84345583D01*
X124245657Y-84275834D01*
X124254988Y-84255700D01*
X124343722Y-84102010D01*
X124367952Y-84047237D01*
X124367954Y-84047231D01*
X124391795Y-83905449D01*
X124391796Y-83905447D01*
X124374725Y-83762687D01*
X124318127Y-83630514D01*
X124226587Y-83519647D01*
X124226583Y-83519644D01*
X124178218Y-83484328D01*
X124178213Y-83484325D01*
X123573880Y-83135413D01*
X123573879Y-83135413D01*
X123061518Y-84022848D01*
X123017464Y-83946544D01*
X122933680Y-83862760D01*
X122831068Y-83803517D01*
X122716618Y-83772850D01*
X122628505Y-83772850D01*
X123140866Y-82885414D01*
X123140866Y-82885413D01*
X123036223Y-82824997D01*
X146469751Y-82824997D01*
X146469751Y-82825002D01*
X146488685Y-82993056D01*
X146544545Y-83152694D01*
X146544547Y-83152697D01*
X146634518Y-83295884D01*
X146634523Y-83295890D01*
X146754109Y-83415476D01*
X146754115Y-83415481D01*
X146897302Y-83505452D01*
X146897305Y-83505454D01*
X146897309Y-83505455D01*
X146897310Y-83505456D01*
X146937866Y-83519647D01*
X147056943Y-83561314D01*
X147224997Y-83580249D01*
X147225000Y-83580249D01*
X147225003Y-83580249D01*
X147393056Y-83561314D01*
X147393059Y-83561313D01*
X147552690Y-83505456D01*
X147552692Y-83505454D01*
X147552694Y-83505454D01*
X147552697Y-83505452D01*
X147695884Y-83415481D01*
X147695885Y-83415480D01*
X147695890Y-83415477D01*
X147815477Y-83295890D01*
X147839709Y-83257325D01*
X147905452Y-83152697D01*
X147905454Y-83152694D01*
X147905454Y-83152692D01*
X147905456Y-83152690D01*
X147961313Y-82993059D01*
X147961313Y-82993058D01*
X147961314Y-82993056D01*
X147980249Y-82825002D01*
X147980249Y-82824997D01*
X147961314Y-82656943D01*
X147905454Y-82497305D01*
X147905452Y-82497302D01*
X147815481Y-82354115D01*
X147815476Y-82354109D01*
X147695890Y-82234523D01*
X147695884Y-82234518D01*
X147552697Y-82144547D01*
X147552694Y-82144545D01*
X147393056Y-82088685D01*
X147225003Y-82069751D01*
X147224997Y-82069751D01*
X147056943Y-82088685D01*
X146897305Y-82144545D01*
X146897302Y-82144547D01*
X146754115Y-82234518D01*
X146754109Y-82234523D01*
X146634523Y-82354109D01*
X146634518Y-82354115D01*
X146544547Y-82497302D01*
X146544545Y-82497305D01*
X146488685Y-82656943D01*
X146469751Y-82824997D01*
X123036223Y-82824997D01*
X122536538Y-82536503D01*
X122481761Y-82512271D01*
X122481755Y-82512269D01*
X122339973Y-82488428D01*
X122339971Y-82488427D01*
X122197211Y-82505498D01*
X122065038Y-82562096D01*
X121954171Y-82653636D01*
X121954168Y-82653640D01*
X121918855Y-82702001D01*
X121569937Y-83306342D01*
X121569937Y-83306343D01*
X122457373Y-83818704D01*
X122381068Y-83862760D01*
X122297284Y-83946544D01*
X122238041Y-84049156D01*
X122207374Y-84163606D01*
X122207374Y-84251716D01*
X121319938Y-83739356D01*
X121319937Y-83739356D01*
X120971027Y-84343685D01*
X120946795Y-84398462D01*
X120946793Y-84398468D01*
X120922952Y-84540250D01*
X120922951Y-84540252D01*
X119162334Y-84540252D01*
X119286327Y-84287475D01*
X119288172Y-84283870D01*
X119834524Y-83259114D01*
X119836503Y-83255550D01*
X120417138Y-82249861D01*
X120419222Y-82246388D01*
X121033517Y-81260843D01*
X121035723Y-81257433D01*
X121682934Y-80293226D01*
X121685268Y-80289874D01*
X122364660Y-79348097D01*
X122367135Y-79344785D01*
X123077912Y-78426537D01*
X123080486Y-78423324D01*
X123718696Y-77653979D01*
X125912612Y-77653979D01*
X125933072Y-77796292D01*
X125933073Y-77796297D01*
X125992799Y-77927076D01*
X126030379Y-77973711D01*
X126523819Y-78467151D01*
X127248407Y-77742563D01*
X127271213Y-77827673D01*
X127330456Y-77930285D01*
X127414240Y-78014069D01*
X127516852Y-78073312D01*
X127601960Y-78096117D01*
X126877373Y-78820705D01*
X127370813Y-79314145D01*
X127417448Y-79351725D01*
X127548227Y-79411451D01*
X127548232Y-79411452D01*
X127690546Y-79431912D01*
X127832859Y-79411452D01*
X127832864Y-79411451D01*
X127963643Y-79351725D01*
X128010275Y-79314147D01*
X128134976Y-79189446D01*
X128196299Y-79155961D01*
X128265991Y-79160945D01*
X128321925Y-79202816D01*
X128346342Y-79268280D01*
X128346129Y-79288568D01*
X128331168Y-79450028D01*
X128331168Y-79450030D01*
X128350841Y-79662340D01*
X128409193Y-79867422D01*
X128409193Y-79867424D01*
X128504229Y-80058283D01*
X128632724Y-80228436D01*
X128632725Y-80228437D01*
X128790295Y-80372082D01*
X128971578Y-80484328D01*
X129170399Y-80561351D01*
X129379987Y-80600530D01*
X129379989Y-80600530D01*
X129593205Y-80600530D01*
X129593207Y-80600530D01*
X129802795Y-80561351D01*
X130001616Y-80484328D01*
X130182899Y-80372082D01*
X130340469Y-80228437D01*
X130468963Y-80058285D01*
X130538324Y-79918988D01*
X130564000Y-79867424D01*
X130564000Y-79867423D01*
X130564002Y-79867419D01*
X130622353Y-79662340D01*
X130642026Y-79450030D01*
X130622353Y-79237720D01*
X130564002Y-79032641D01*
X130564000Y-79032636D01*
X130564000Y-79032635D01*
X130468964Y-78841776D01*
X130340469Y-78671623D01*
X130320293Y-78653230D01*
X134347000Y-78653230D01*
X134347000Y-80961769D01*
X134349853Y-80992199D01*
X134349853Y-80992201D01*
X134394706Y-81120380D01*
X134394707Y-81120382D01*
X134475350Y-81229650D01*
X134584618Y-81310293D01*
X134627345Y-81325244D01*
X134712799Y-81355146D01*
X134743230Y-81358000D01*
X134743234Y-81358000D01*
X137951770Y-81358000D01*
X137982199Y-81355146D01*
X137982201Y-81355146D01*
X138046290Y-81332719D01*
X138110382Y-81310293D01*
X138219650Y-81229650D01*
X138300293Y-81120382D01*
X138322719Y-81056290D01*
X138345146Y-80992201D01*
X138345146Y-80992199D01*
X138348000Y-80961769D01*
X138348000Y-80382000D01*
X138367685Y-80314961D01*
X138420489Y-80269206D01*
X138472000Y-80258000D01*
X138819308Y-80258000D01*
X138819309Y-80258000D01*
X138909673Y-80233786D01*
X138933887Y-80227299D01*
X139036614Y-80167989D01*
X139904501Y-79300101D01*
X139965822Y-79266618D01*
X139976001Y-79264844D01*
X139983709Y-79263830D01*
X140117625Y-79208361D01*
X140232621Y-79120121D01*
X140320861Y-79005125D01*
X140376330Y-78871209D01*
X140395250Y-78727500D01*
X140394682Y-78723189D01*
X140393048Y-78710780D01*
X140376330Y-78583791D01*
X140320861Y-78449875D01*
X140232621Y-78334879D01*
X140117625Y-78246639D01*
X140117624Y-78246638D01*
X140117622Y-78246637D01*
X139983712Y-78191171D01*
X139983710Y-78191170D01*
X139983709Y-78191170D01*
X139911854Y-78181710D01*
X139840001Y-78172250D01*
X139839999Y-78172250D01*
X139696291Y-78191170D01*
X139696287Y-78191171D01*
X139562377Y-78246637D01*
X139447379Y-78334879D01*
X139359137Y-78449877D01*
X139303669Y-78583791D01*
X139303669Y-78583792D01*
X139302653Y-78591509D01*
X139274383Y-78655404D01*
X139267396Y-78662998D01*
X138609716Y-79320681D01*
X138548393Y-79354166D01*
X138522035Y-79357000D01*
X138472000Y-79357000D01*
X138404961Y-79337315D01*
X138359206Y-79284511D01*
X138348000Y-79233000D01*
X138348000Y-78653230D01*
X138345146Y-78622800D01*
X138345146Y-78622798D01*
X138311506Y-78526663D01*
X138300293Y-78494618D01*
X138219650Y-78385350D01*
X138110382Y-78304707D01*
X138110380Y-78304706D01*
X137982200Y-78259853D01*
X137951770Y-78257000D01*
X137951766Y-78257000D01*
X134743234Y-78257000D01*
X134743230Y-78257000D01*
X134712800Y-78259853D01*
X134712798Y-78259853D01*
X134584619Y-78304706D01*
X134584617Y-78304707D01*
X134475350Y-78385350D01*
X134394707Y-78494617D01*
X134394706Y-78494619D01*
X134349853Y-78622798D01*
X134349853Y-78622800D01*
X134347000Y-78653230D01*
X130320293Y-78653230D01*
X130314832Y-78648252D01*
X130182899Y-78527978D01*
X130001616Y-78415732D01*
X130001614Y-78415731D01*
X129902205Y-78377220D01*
X129802795Y-78338709D01*
X129593207Y-78299530D01*
X129379987Y-78299530D01*
X129374488Y-78300558D01*
X129336868Y-78307590D01*
X129267353Y-78300558D01*
X129212675Y-78257060D01*
X129190193Y-78190906D01*
X129207046Y-78123100D01*
X129226403Y-78098019D01*
X129350714Y-77973708D01*
X129388292Y-77927076D01*
X129448018Y-77796297D01*
X129448019Y-77796292D01*
X129468479Y-77653979D01*
X129448019Y-77511665D01*
X129448018Y-77511660D01*
X129388292Y-77380881D01*
X129350712Y-77334246D01*
X129016466Y-77000000D01*
X145994675Y-77000000D01*
X146013962Y-77392591D01*
X146066940Y-77749745D01*
X146071637Y-77781406D01*
X146167143Y-78162684D01*
X146299561Y-78532770D01*
X146299562Y-78532772D01*
X146467620Y-78888100D01*
X146659578Y-79208362D01*
X146669694Y-79225239D01*
X146874654Y-79501596D01*
X146903846Y-79540956D01*
X147167807Y-79832192D01*
X147459043Y-80096153D01*
X147459049Y-80096158D01*
X147774761Y-80330306D01*
X147774763Y-80330307D01*
X148111899Y-80532379D01*
X148111902Y-80532380D01*
X148111903Y-80532381D01*
X148467228Y-80700438D01*
X148837316Y-80832857D01*
X149218600Y-80928364D01*
X149607409Y-80986038D01*
X150000000Y-81005325D01*
X150392591Y-80986038D01*
X150781400Y-80928364D01*
X151162684Y-80832857D01*
X151532772Y-80700438D01*
X151888097Y-80532381D01*
X152225239Y-80330306D01*
X152540951Y-80096158D01*
X152832192Y-79832192D01*
X153096158Y-79540951D01*
X153330306Y-79225239D01*
X153532381Y-78888097D01*
X153643465Y-78653230D01*
X162922000Y-78653230D01*
X162922000Y-80961769D01*
X162924853Y-80992199D01*
X162924853Y-80992201D01*
X162969706Y-81120380D01*
X162969707Y-81120382D01*
X163050350Y-81229650D01*
X163159618Y-81310293D01*
X163202345Y-81325244D01*
X163287799Y-81355146D01*
X163318230Y-81358000D01*
X163318234Y-81358000D01*
X166526770Y-81358000D01*
X166557199Y-81355146D01*
X166557201Y-81355146D01*
X166621290Y-81332719D01*
X166685382Y-81310293D01*
X166794650Y-81229650D01*
X166875293Y-81120382D01*
X166897719Y-81056290D01*
X166920146Y-80992201D01*
X166920146Y-80992199D01*
X166923000Y-80961769D01*
X166923000Y-79501595D01*
X169394392Y-79501595D01*
X169394392Y-79501596D01*
X169414065Y-79713906D01*
X169472417Y-79918988D01*
X169472417Y-79918990D01*
X169567453Y-80109849D01*
X169679332Y-80257999D01*
X169695949Y-80280003D01*
X169853519Y-80423648D01*
X170034802Y-80535894D01*
X170233623Y-80612917D01*
X170443211Y-80652096D01*
X170443213Y-80652096D01*
X170656429Y-80652096D01*
X170656431Y-80652096D01*
X170866019Y-80612917D01*
X171064840Y-80535894D01*
X171246123Y-80423648D01*
X171403693Y-80280003D01*
X171532187Y-80109851D01*
X171589662Y-79994425D01*
X171627224Y-79918990D01*
X171627224Y-79918989D01*
X171627226Y-79918985D01*
X171685577Y-79713906D01*
X171705250Y-79501596D01*
X171690288Y-79340132D01*
X171703703Y-79271565D01*
X171752060Y-79221133D01*
X171820006Y-79204850D01*
X171885968Y-79227887D01*
X171901440Y-79241012D01*
X172026139Y-79365711D01*
X172072774Y-79403291D01*
X172203553Y-79463017D01*
X172203558Y-79463018D01*
X172345872Y-79483478D01*
X172488185Y-79463018D01*
X172488190Y-79463017D01*
X172618969Y-79403291D01*
X172665604Y-79365711D01*
X172665608Y-79365707D01*
X173159044Y-78872272D01*
X173159044Y-78872270D01*
X172434457Y-78147683D01*
X172519566Y-78124878D01*
X172622178Y-78065635D01*
X172705962Y-77981851D01*
X172765205Y-77879239D01*
X172788010Y-77794130D01*
X173512597Y-78518717D01*
X174006034Y-78025281D01*
X174006038Y-78025277D01*
X174043618Y-77978642D01*
X174103344Y-77847863D01*
X174103345Y-77847858D01*
X174123805Y-77705545D01*
X174103345Y-77563231D01*
X174103344Y-77563226D01*
X174043618Y-77432447D01*
X174006038Y-77385812D01*
X173512598Y-76892372D01*
X172788010Y-77616959D01*
X172765205Y-77531851D01*
X172705962Y-77429239D01*
X172622178Y-77345455D01*
X172519566Y-77286212D01*
X172434456Y-77263406D01*
X173159044Y-76538818D01*
X172665604Y-76045378D01*
X172618969Y-76007798D01*
X172488190Y-75948072D01*
X172488185Y-75948071D01*
X172345872Y-75927611D01*
X172203558Y-75948071D01*
X172203553Y-75948072D01*
X172072774Y-76007798D01*
X172026134Y-76045382D01*
X171532699Y-76538817D01*
X171532699Y-76538818D01*
X172257287Y-77263406D01*
X172172178Y-77286212D01*
X172069566Y-77345455D01*
X171985782Y-77429239D01*
X171926539Y-77531851D01*
X171903733Y-77616960D01*
X171179145Y-76892372D01*
X171179144Y-76892372D01*
X170685709Y-77385807D01*
X170648125Y-77432447D01*
X170588399Y-77563226D01*
X170588398Y-77563231D01*
X170567938Y-77705545D01*
X170588398Y-77847858D01*
X170588399Y-77847863D01*
X170648125Y-77978642D01*
X170685705Y-78025277D01*
X170810014Y-78149586D01*
X170843499Y-78210909D01*
X170838515Y-78280601D01*
X170796643Y-78336534D01*
X170731179Y-78360951D01*
X170699549Y-78359156D01*
X170677541Y-78355042D01*
X170656431Y-78351096D01*
X170443211Y-78351096D01*
X170233623Y-78390275D01*
X170233620Y-78390275D01*
X170233620Y-78390276D01*
X170034803Y-78467297D01*
X170034801Y-78467298D01*
X169853520Y-78579543D01*
X169695948Y-78723189D01*
X169567453Y-78893342D01*
X169472417Y-79084201D01*
X169472417Y-79084203D01*
X169414065Y-79289285D01*
X169394392Y-79501595D01*
X166923000Y-79501595D01*
X166923000Y-78653230D01*
X166920146Y-78622800D01*
X166920146Y-78622798D01*
X166886506Y-78526663D01*
X166875293Y-78494618D01*
X166794650Y-78385350D01*
X166685382Y-78304707D01*
X166685380Y-78304706D01*
X166557200Y-78259853D01*
X166526770Y-78257000D01*
X166526766Y-78257000D01*
X164862000Y-78257000D01*
X164794961Y-78237315D01*
X164749206Y-78184511D01*
X164738000Y-78133000D01*
X164738000Y-77816784D01*
X164757685Y-77749745D01*
X164763616Y-77741308D01*
X164768361Y-77735125D01*
X164823830Y-77601209D01*
X164842750Y-77457500D01*
X164823830Y-77313791D01*
X164768361Y-77179875D01*
X164680121Y-77064879D01*
X164565125Y-76976639D01*
X164565124Y-76976638D01*
X164565122Y-76976637D01*
X164431212Y-76921171D01*
X164431210Y-76921170D01*
X164431209Y-76921170D01*
X164359354Y-76911710D01*
X164287501Y-76902250D01*
X164287499Y-76902250D01*
X164143791Y-76921170D01*
X164143787Y-76921171D01*
X164009877Y-76976637D01*
X163894879Y-77064879D01*
X163806637Y-77179877D01*
X163751171Y-77313787D01*
X163751170Y-77313791D01*
X163732250Y-77457499D01*
X163732250Y-77457500D01*
X163751170Y-77601208D01*
X163751171Y-77601212D01*
X163806637Y-77735122D01*
X163806638Y-77735124D01*
X163806639Y-77735125D01*
X163811375Y-77741298D01*
X163836570Y-77806465D01*
X163837000Y-77816784D01*
X163837000Y-78133000D01*
X163817315Y-78200039D01*
X163764511Y-78245794D01*
X163713000Y-78257000D01*
X163318230Y-78257000D01*
X163287800Y-78259853D01*
X163287798Y-78259853D01*
X163159619Y-78304706D01*
X163159617Y-78304707D01*
X163050350Y-78385350D01*
X162969707Y-78494617D01*
X162969706Y-78494619D01*
X162924853Y-78622798D01*
X162924853Y-78622800D01*
X162922000Y-78653230D01*
X153643465Y-78653230D01*
X153700438Y-78532772D01*
X153832857Y-78162684D01*
X153928364Y-77781400D01*
X153986038Y-77392591D01*
X154005325Y-77000000D01*
X153996605Y-76822500D01*
X162144750Y-76822500D01*
X162155249Y-76902250D01*
X162163670Y-76966208D01*
X162163671Y-76966212D01*
X162219137Y-77100122D01*
X162219138Y-77100124D01*
X162219139Y-77100125D01*
X162307379Y-77215121D01*
X162422375Y-77303361D01*
X162422376Y-77303361D01*
X162422377Y-77303362D01*
X162467013Y-77321850D01*
X162556291Y-77358830D01*
X162683280Y-77375548D01*
X162699999Y-77377750D01*
X162700000Y-77377750D01*
X162700001Y-77377750D01*
X162714977Y-77375778D01*
X162843709Y-77358830D01*
X162977625Y-77303361D01*
X163092621Y-77215121D01*
X163180861Y-77100125D01*
X163236330Y-76966209D01*
X163255250Y-76822500D01*
X163236330Y-76678791D01*
X163180861Y-76544875D01*
X163092621Y-76429879D01*
X162977625Y-76341639D01*
X162977624Y-76341638D01*
X162977622Y-76341637D01*
X162843712Y-76286171D01*
X162843710Y-76286170D01*
X162843709Y-76286170D01*
X162771854Y-76276710D01*
X162700001Y-76267250D01*
X162699999Y-76267250D01*
X162556291Y-76286170D01*
X162556287Y-76286171D01*
X162422377Y-76341637D01*
X162307379Y-76429879D01*
X162219137Y-76544877D01*
X162163671Y-76678787D01*
X162163670Y-76678791D01*
X162144750Y-76822500D01*
X153996605Y-76822500D01*
X153986038Y-76607409D01*
X153928364Y-76218600D01*
X153832857Y-75837316D01*
X153700438Y-75467228D01*
X153532381Y-75111903D01*
X153496979Y-75052839D01*
X153369725Y-74840528D01*
X163335018Y-74840528D01*
X163335018Y-74840529D01*
X163354691Y-75052839D01*
X163413043Y-75257921D01*
X163413043Y-75257923D01*
X163508079Y-75448782D01*
X163636574Y-75618935D01*
X163636575Y-75618936D01*
X163794145Y-75762581D01*
X163975428Y-75874827D01*
X164174249Y-75951850D01*
X164383837Y-75991029D01*
X164383839Y-75991029D01*
X164597055Y-75991029D01*
X164597057Y-75991029D01*
X164806645Y-75951850D01*
X165005466Y-75874827D01*
X165186749Y-75762581D01*
X165344319Y-75618936D01*
X165472813Y-75448784D01*
X165521131Y-75351748D01*
X165567850Y-75257923D01*
X165567850Y-75257922D01*
X165567852Y-75257918D01*
X165626203Y-75052839D01*
X165645876Y-74840529D01*
X165626203Y-74628219D01*
X165567852Y-74423140D01*
X165557795Y-74402944D01*
X165545535Y-74334160D01*
X165572408Y-74269665D01*
X165629883Y-74229937D01*
X165699714Y-74227589D01*
X165730796Y-74240286D01*
X165881282Y-74327170D01*
X165936059Y-74351402D01*
X165936065Y-74351404D01*
X166077847Y-74375245D01*
X166077849Y-74375246D01*
X166220609Y-74358175D01*
X166352782Y-74301577D01*
X166463649Y-74210037D01*
X166463652Y-74210033D01*
X166498968Y-74161668D01*
X166498971Y-74161663D01*
X166847882Y-73557330D01*
X166847882Y-73557329D01*
X165960447Y-73044968D01*
X166036753Y-73000914D01*
X166120537Y-72917130D01*
X166179780Y-72814518D01*
X166210447Y-72700068D01*
X166210447Y-72611956D01*
X167097881Y-73124316D01*
X167097882Y-73124316D01*
X167446793Y-72519988D01*
X167471025Y-72465211D01*
X167471027Y-72465205D01*
X167494868Y-72323423D01*
X167494869Y-72323421D01*
X167477798Y-72180661D01*
X167421200Y-72048488D01*
X167329660Y-71937621D01*
X167329656Y-71937618D01*
X167281291Y-71902302D01*
X167281286Y-71902299D01*
X166676953Y-71553387D01*
X166676952Y-71553387D01*
X166164591Y-72440821D01*
X166120537Y-72364518D01*
X166036753Y-72280734D01*
X165934141Y-72221491D01*
X165819691Y-72190824D01*
X165731578Y-72190824D01*
X166243939Y-71303388D01*
X166243939Y-71303387D01*
X165639611Y-70954477D01*
X165584834Y-70930245D01*
X165584828Y-70930243D01*
X165443046Y-70906402D01*
X165443044Y-70906401D01*
X165300284Y-70923472D01*
X165168111Y-70980070D01*
X165057244Y-71071610D01*
X165057241Y-71071614D01*
X165021928Y-71119975D01*
X164673010Y-71724316D01*
X164673010Y-71724317D01*
X165560446Y-72236678D01*
X165484141Y-72280734D01*
X165400357Y-72364518D01*
X165341114Y-72467130D01*
X165310447Y-72581580D01*
X165310447Y-72669691D01*
X164423011Y-72157330D01*
X164423010Y-72157330D01*
X164074100Y-72761659D01*
X164049868Y-72816436D01*
X164049866Y-72816442D01*
X164026025Y-72958224D01*
X164026024Y-72958226D01*
X164043095Y-73100986D01*
X164099693Y-73233159D01*
X164191233Y-73344026D01*
X164191237Y-73344029D01*
X164239602Y-73379345D01*
X164239607Y-73379348D01*
X164390987Y-73466747D01*
X164439202Y-73517314D01*
X164452426Y-73585921D01*
X164426458Y-73650785D01*
X164369544Y-73691314D01*
X164351771Y-73696023D01*
X164174249Y-73729208D01*
X164174246Y-73729208D01*
X164174246Y-73729209D01*
X163975429Y-73806230D01*
X163975427Y-73806231D01*
X163794146Y-73918476D01*
X163636574Y-74062122D01*
X163508079Y-74232275D01*
X163413043Y-74423134D01*
X163413043Y-74423136D01*
X163354691Y-74628218D01*
X163335018Y-74840528D01*
X153369725Y-74840528D01*
X153330307Y-74774763D01*
X153110092Y-74477837D01*
X153096158Y-74459049D01*
X153096153Y-74459043D01*
X152832192Y-74167807D01*
X152540956Y-73903846D01*
X152451601Y-73837576D01*
X152225239Y-73669694D01*
X152221250Y-73667303D01*
X151888100Y-73467620D01*
X151532772Y-73299562D01*
X151532770Y-73299561D01*
X151162684Y-73167143D01*
X150781406Y-73071637D01*
X150781401Y-73071636D01*
X150781400Y-73071636D01*
X150637256Y-73050254D01*
X150392599Y-73013963D01*
X150392597Y-73013962D01*
X150392591Y-73013962D01*
X150000000Y-72994675D01*
X149607409Y-73013962D01*
X149607403Y-73013962D01*
X149607400Y-73013963D01*
X149218593Y-73071637D01*
X148837315Y-73167143D01*
X148467229Y-73299561D01*
X148467227Y-73299562D01*
X148111899Y-73467620D01*
X147774763Y-73669692D01*
X147459043Y-73903846D01*
X147167807Y-74167807D01*
X146903846Y-74459043D01*
X146669692Y-74774763D01*
X146467620Y-75111899D01*
X146299562Y-75467227D01*
X146299561Y-75467229D01*
X146167143Y-75837315D01*
X146071637Y-76218593D01*
X146023238Y-76544877D01*
X146013962Y-76607409D01*
X145994675Y-77000000D01*
X129016466Y-77000000D01*
X128857272Y-76840806D01*
X128132684Y-77565393D01*
X128109879Y-77480285D01*
X128050636Y-77377673D01*
X127966852Y-77293889D01*
X127864240Y-77234646D01*
X127779130Y-77211840D01*
X128503718Y-76487252D01*
X128503718Y-76487251D01*
X128010282Y-75993816D01*
X128010278Y-75993812D01*
X127963643Y-75956232D01*
X127832864Y-75896506D01*
X127832859Y-75896505D01*
X127690546Y-75876045D01*
X127548232Y-75896505D01*
X127548227Y-75896506D01*
X127417448Y-75956232D01*
X127370808Y-75993816D01*
X126877373Y-76487251D01*
X126877373Y-76487252D01*
X127601961Y-77211840D01*
X127516852Y-77234646D01*
X127414240Y-77293889D01*
X127330456Y-77377673D01*
X127271213Y-77480285D01*
X127248407Y-77565394D01*
X126523819Y-76840806D01*
X126523818Y-76840806D01*
X126030383Y-77334241D01*
X125992799Y-77380881D01*
X125933073Y-77511660D01*
X125933072Y-77511665D01*
X125912612Y-77653979D01*
X123718696Y-77653979D01*
X123821937Y-77529525D01*
X123824584Y-77526443D01*
X124595767Y-76658232D01*
X124598548Y-76655206D01*
X125398618Y-75813533D01*
X125401450Y-75810652D01*
X126229542Y-74996430D01*
X126232505Y-74993615D01*
X127087554Y-74207889D01*
X127090627Y-74205160D01*
X127971748Y-73448742D01*
X127974897Y-73446131D01*
X128881050Y-72719913D01*
X128884279Y-72717413D01*
X129369495Y-72354766D01*
X132465351Y-72354766D01*
X132465352Y-72354768D01*
X132489193Y-72496550D01*
X132489195Y-72496556D01*
X132513427Y-72551333D01*
X132862337Y-73155661D01*
X132862338Y-73155661D01*
X133749774Y-72643300D01*
X133749774Y-72731413D01*
X133780441Y-72845863D01*
X133839684Y-72948475D01*
X133923468Y-73032259D01*
X133999772Y-73076313D01*
X133112337Y-73588674D01*
X133112337Y-73588675D01*
X133461249Y-74193008D01*
X133461252Y-74193013D01*
X133496568Y-74241378D01*
X133496571Y-74241382D01*
X133607438Y-74332922D01*
X133739611Y-74389520D01*
X133882371Y-74406591D01*
X133882373Y-74406590D01*
X134024155Y-74382749D01*
X134024161Y-74382747D01*
X134078934Y-74358517D01*
X134229423Y-74271631D01*
X134297323Y-74255158D01*
X134363350Y-74278010D01*
X134406541Y-74332931D01*
X134413183Y-74402484D01*
X134402426Y-74434287D01*
X134392369Y-74454484D01*
X134334018Y-74659563D01*
X134317250Y-74840528D01*
X134314345Y-74871874D01*
X134334018Y-75084184D01*
X134383450Y-75257918D01*
X134392370Y-75289266D01*
X134392370Y-75289268D01*
X134487406Y-75480127D01*
X134487408Y-75480129D01*
X134615902Y-75650281D01*
X134773472Y-75793926D01*
X134954755Y-75906172D01*
X135153576Y-75983195D01*
X135363164Y-76022374D01*
X135363166Y-76022374D01*
X135576382Y-76022374D01*
X135576384Y-76022374D01*
X135785972Y-75983195D01*
X135984793Y-75906172D01*
X136166076Y-75793926D01*
X136323646Y-75650281D01*
X136452140Y-75480129D01*
X136467749Y-75448782D01*
X136547177Y-75289268D01*
X136547177Y-75289267D01*
X136547179Y-75289263D01*
X136605530Y-75084184D01*
X136625203Y-74871874D01*
X136605530Y-74659564D01*
X136547179Y-74454485D01*
X136547177Y-74454480D01*
X136547177Y-74454479D01*
X136452141Y-74263620D01*
X136323646Y-74093467D01*
X136271653Y-74046069D01*
X136166076Y-73949822D01*
X135984793Y-73837576D01*
X135984791Y-73837575D01*
X135885382Y-73799064D01*
X135785972Y-73760553D01*
X135608447Y-73727367D01*
X135546167Y-73695700D01*
X135510894Y-73635387D01*
X135513828Y-73565579D01*
X135554037Y-73508439D01*
X135569234Y-73498092D01*
X135720606Y-73410698D01*
X135720618Y-73410690D01*
X135768983Y-73375374D01*
X135768987Y-73375371D01*
X135860527Y-73264504D01*
X135917125Y-73132331D01*
X135934196Y-72989571D01*
X135934195Y-72989569D01*
X135910354Y-72847787D01*
X135910352Y-72847781D01*
X135886120Y-72793004D01*
X135537209Y-72188675D01*
X135537208Y-72188675D01*
X134649774Y-72701035D01*
X134649774Y-72612925D01*
X134619107Y-72498475D01*
X134559864Y-72395863D01*
X134476080Y-72312079D01*
X134399773Y-72268023D01*
X135287209Y-71755662D01*
X135287209Y-71755661D01*
X134938298Y-71151329D01*
X134938295Y-71151324D01*
X134902979Y-71102959D01*
X134902976Y-71102955D01*
X134792109Y-71011415D01*
X134659936Y-70954817D01*
X134517176Y-70937746D01*
X134517174Y-70937747D01*
X134375392Y-70961588D01*
X134375386Y-70961590D01*
X134320609Y-70985822D01*
X133716280Y-71334732D01*
X133716280Y-71334733D01*
X134228641Y-72222169D01*
X134140530Y-72222169D01*
X134026080Y-72252836D01*
X133923468Y-72312079D01*
X133839684Y-72395863D01*
X133795628Y-72472168D01*
X133283267Y-71584732D01*
X133283266Y-71584732D01*
X132678925Y-71933650D01*
X132630564Y-71968963D01*
X132630560Y-71968966D01*
X132539020Y-72079833D01*
X132482422Y-72212006D01*
X132465351Y-72354766D01*
X129369495Y-72354766D01*
X129814447Y-72022212D01*
X129817780Y-72019807D01*
X130770925Y-71356400D01*
X130774278Y-71354149D01*
X131749271Y-70723319D01*
X131752770Y-70721137D01*
X132748506Y-70123603D01*
X132752030Y-70121568D01*
X133767403Y-69557989D01*
X133770983Y-69556081D01*
X134804795Y-69027126D01*
X134808496Y-69025311D01*
X135090199Y-68892984D01*
X140198205Y-68892984D01*
X140198205Y-68892985D01*
X140207430Y-68952147D01*
X140388044Y-69626208D01*
X141377850Y-69360990D01*
X141355045Y-69446101D01*
X141355045Y-69564589D01*
X141385712Y-69679039D01*
X141444955Y-69781651D01*
X141507258Y-69843954D01*
X140517453Y-70109172D01*
X140698064Y-70783217D01*
X140698069Y-70783235D01*
X140719659Y-70839081D01*
X140803062Y-70956206D01*
X140803063Y-70956207D01*
X140916078Y-71045081D01*
X141049555Y-71098518D01*
X141192684Y-71112184D01*
X141192685Y-71112184D01*
X141251847Y-71102959D01*
X141423937Y-71056848D01*
X141493787Y-71058511D01*
X141551650Y-71097673D01*
X141579154Y-71161901D01*
X141567568Y-71230804D01*
X141554985Y-71251350D01*
X141480078Y-71350543D01*
X141385041Y-71541402D01*
X141385041Y-71541404D01*
X141326689Y-71746486D01*
X141323364Y-71782375D01*
X141307016Y-71958797D01*
X141326689Y-72171107D01*
X141378945Y-72354766D01*
X141385041Y-72376189D01*
X141385041Y-72376191D01*
X141480077Y-72567050D01*
X141604200Y-72731413D01*
X141608573Y-72737204D01*
X141766143Y-72880849D01*
X141947426Y-72993095D01*
X142146247Y-73070118D01*
X142355835Y-73109297D01*
X142355837Y-73109297D01*
X142569053Y-73109297D01*
X142569055Y-73109297D01*
X142778643Y-73070118D01*
X142977464Y-72993095D01*
X143158747Y-72880849D01*
X143316317Y-72737204D01*
X143444811Y-72567052D01*
X143457852Y-72540862D01*
X143539848Y-72376191D01*
X143539848Y-72376190D01*
X143539850Y-72376186D01*
X143598201Y-72171107D01*
X143608496Y-72059999D01*
X147222250Y-72059999D01*
X147222250Y-72060000D01*
X147241170Y-72203708D01*
X147241171Y-72203712D01*
X147296637Y-72337622D01*
X147296638Y-72337624D01*
X147296639Y-72337625D01*
X147384879Y-72452621D01*
X147499875Y-72540861D01*
X147633791Y-72596330D01*
X147759840Y-72612925D01*
X147777499Y-72615250D01*
X147777500Y-72615250D01*
X147777501Y-72615250D01*
X147795160Y-72612925D01*
X147921209Y-72596330D01*
X148055125Y-72540861D01*
X148170121Y-72452621D01*
X148258361Y-72337625D01*
X148313830Y-72203709D01*
X148332750Y-72060000D01*
X148313830Y-71916291D01*
X148258361Y-71782375D01*
X148170121Y-71667379D01*
X148055125Y-71579139D01*
X148055124Y-71579138D01*
X148055122Y-71579137D01*
X147921212Y-71523671D01*
X147921210Y-71523670D01*
X147921209Y-71523670D01*
X147849354Y-71514210D01*
X147777501Y-71504750D01*
X147777499Y-71504750D01*
X147633791Y-71523670D01*
X147633787Y-71523671D01*
X147499877Y-71579137D01*
X147384879Y-71667379D01*
X147296637Y-71782377D01*
X147241171Y-71916287D01*
X147241170Y-71916291D01*
X147222250Y-72059999D01*
X143608496Y-72059999D01*
X143617874Y-71958797D01*
X143598201Y-71746487D01*
X143539850Y-71541408D01*
X143539848Y-71541403D01*
X143539848Y-71541402D01*
X143444812Y-71350543D01*
X143316317Y-71180390D01*
X143235071Y-71106324D01*
X143158747Y-71036745D01*
X142977464Y-70924499D01*
X142977453Y-70924494D01*
X142898241Y-70893807D01*
X142842839Y-70851235D01*
X142819249Y-70785468D01*
X142834960Y-70717387D01*
X142884984Y-70668609D01*
X142910942Y-70658406D01*
X143082913Y-70612327D01*
X143082935Y-70612320D01*
X143138781Y-70590730D01*
X143255906Y-70507327D01*
X143255907Y-70507326D01*
X143344781Y-70394311D01*
X143398218Y-70260834D01*
X143411884Y-70117705D01*
X143411884Y-70117704D01*
X143402659Y-70058542D01*
X143222044Y-69384480D01*
X142232240Y-69649695D01*
X142255045Y-69564589D01*
X142255045Y-69446101D01*
X142224378Y-69331651D01*
X142165135Y-69229039D01*
X142102829Y-69166733D01*
X143092635Y-68901516D01*
X142912025Y-68227471D01*
X142912020Y-68227454D01*
X142890430Y-68171608D01*
X142807027Y-68054483D01*
X142807026Y-68054482D01*
X142694011Y-67965608D01*
X142560534Y-67912171D01*
X142417405Y-67898505D01*
X142417404Y-67898505D01*
X142358241Y-67907730D01*
X141684180Y-68088344D01*
X141949397Y-69078149D01*
X141864289Y-69055345D01*
X141745801Y-69055345D01*
X141631351Y-69086012D01*
X141528739Y-69145255D01*
X141466433Y-69207560D01*
X141201216Y-68217753D01*
X140527172Y-68398364D01*
X140527154Y-68398369D01*
X140471308Y-68419959D01*
X140354183Y-68503362D01*
X140354182Y-68503363D01*
X140265308Y-68616378D01*
X140211871Y-68749855D01*
X140198205Y-68892984D01*
X135090199Y-68892984D01*
X135859567Y-68531582D01*
X135863254Y-68529925D01*
X136930413Y-68071971D01*
X136934267Y-68070394D01*
X138016236Y-67648762D01*
X138020059Y-67647346D01*
X138534265Y-67466721D01*
X148613150Y-67466721D01*
X148613150Y-68164566D01*
X149637872Y-68164566D01*
X149593817Y-68240872D01*
X149563150Y-68355322D01*
X149563150Y-68473810D01*
X149593817Y-68588260D01*
X149637872Y-68664566D01*
X148613150Y-68664566D01*
X148613150Y-69362410D01*
X148619551Y-69421938D01*
X148619553Y-69421945D01*
X148669795Y-69556652D01*
X148669799Y-69556659D01*
X148755959Y-69671753D01*
X148755962Y-69671756D01*
X148871056Y-69757916D01*
X148871063Y-69757920D01*
X149005770Y-69808162D01*
X149005777Y-69808164D01*
X149065305Y-69814565D01*
X149065322Y-69814566D01*
X149235845Y-69814566D01*
X149302884Y-69834251D01*
X149348639Y-69887055D01*
X149358583Y-69956213D01*
X149329558Y-70019769D01*
X149319383Y-70030203D01*
X149159279Y-70176156D01*
X149030782Y-70346312D01*
X148935746Y-70537171D01*
X148935746Y-70537173D01*
X148877394Y-70742255D01*
X148859280Y-70937746D01*
X148857721Y-70954566D01*
X148877394Y-71166876D01*
X148929652Y-71350542D01*
X148935746Y-71371958D01*
X148935746Y-71371960D01*
X149030782Y-71562819D01*
X149109743Y-71667379D01*
X149159278Y-71732973D01*
X149316848Y-71876618D01*
X149498131Y-71988864D01*
X149696952Y-72065887D01*
X149906540Y-72105066D01*
X149906542Y-72105066D01*
X150119758Y-72105066D01*
X150119760Y-72105066D01*
X150329348Y-72065887D01*
X150528169Y-71988864D01*
X150586193Y-71952937D01*
X156383148Y-71952937D01*
X156402821Y-72165247D01*
X156459519Y-72364518D01*
X156461173Y-72370329D01*
X156461173Y-72370331D01*
X156556209Y-72561190D01*
X156684704Y-72731343D01*
X156684705Y-72731344D01*
X156842275Y-72874989D01*
X157023558Y-72987235D01*
X157222379Y-73064258D01*
X157431967Y-73103437D01*
X157431969Y-73103437D01*
X157645185Y-73103437D01*
X157645187Y-73103437D01*
X157854775Y-73064258D01*
X158053596Y-72987235D01*
X158234879Y-72874989D01*
X158392449Y-72731344D01*
X158520943Y-72561192D01*
X158526856Y-72549317D01*
X158615980Y-72370331D01*
X158615980Y-72370330D01*
X158615982Y-72370326D01*
X158674333Y-72165247D01*
X158694006Y-71952937D01*
X158674333Y-71740627D01*
X158615982Y-71535548D01*
X158615980Y-71535543D01*
X158615980Y-71535542D01*
X158520944Y-71344683D01*
X158446036Y-71245490D01*
X158421344Y-71180129D01*
X158435909Y-71111794D01*
X158485106Y-71062182D01*
X158553316Y-71047043D01*
X158577084Y-71050988D01*
X158749174Y-71097099D01*
X158808336Y-71106324D01*
X158808337Y-71106324D01*
X158951466Y-71092658D01*
X159084943Y-71039221D01*
X159197958Y-70950347D01*
X159197959Y-70950346D01*
X159281362Y-70833221D01*
X159302952Y-70777375D01*
X159302959Y-70777353D01*
X159483567Y-70103312D01*
X158493762Y-69838095D01*
X158556067Y-69775791D01*
X158615310Y-69673179D01*
X158645977Y-69558729D01*
X158645977Y-69440241D01*
X158623171Y-69355131D01*
X159612976Y-69620348D01*
X159793591Y-68946287D01*
X159802816Y-68887125D01*
X159802816Y-68887124D01*
X159789150Y-68743995D01*
X159735713Y-68610518D01*
X159646839Y-68497503D01*
X159646838Y-68497502D01*
X159529713Y-68414099D01*
X159529714Y-68414099D01*
X159473867Y-68392509D01*
X159473849Y-68392504D01*
X158799804Y-68211893D01*
X158534586Y-69201698D01*
X158472283Y-69139395D01*
X158369671Y-69080152D01*
X158255221Y-69049485D01*
X158136733Y-69049485D01*
X158051622Y-69072290D01*
X158316840Y-68082484D01*
X157642779Y-67901870D01*
X157583617Y-67892645D01*
X157583616Y-67892645D01*
X157440487Y-67906311D01*
X157307010Y-67959748D01*
X157193995Y-68048622D01*
X157193994Y-68048623D01*
X157110591Y-68165748D01*
X157089001Y-68221594D01*
X157088996Y-68221612D01*
X156908385Y-68895656D01*
X157898192Y-69160873D01*
X157835887Y-69223179D01*
X157776644Y-69325791D01*
X157745977Y-69440241D01*
X157745977Y-69558729D01*
X157768781Y-69643836D01*
X156778976Y-69378620D01*
X156598362Y-70052681D01*
X156589137Y-70111844D01*
X156589137Y-70111845D01*
X156602803Y-70254974D01*
X156656240Y-70388451D01*
X156745114Y-70501466D01*
X156745115Y-70501467D01*
X156862240Y-70584870D01*
X156862239Y-70584870D01*
X156918086Y-70606460D01*
X156918108Y-70606467D01*
X157090079Y-70652546D01*
X157149740Y-70688911D01*
X157180269Y-70751758D01*
X157171974Y-70821133D01*
X157127489Y-70875011D01*
X157102781Y-70887947D01*
X157023565Y-70918635D01*
X157023557Y-70918639D01*
X156842276Y-71030884D01*
X156684704Y-71174530D01*
X156556209Y-71344683D01*
X156461173Y-71535542D01*
X156461173Y-71535544D01*
X156402821Y-71740626D01*
X156398953Y-71782375D01*
X156383148Y-71952937D01*
X150586193Y-71952937D01*
X150709452Y-71876618D01*
X150867022Y-71732973D01*
X150995516Y-71562821D01*
X151090555Y-71371955D01*
X151148906Y-71166876D01*
X151168579Y-70954566D01*
X151148906Y-70742256D01*
X151090555Y-70537177D01*
X151090553Y-70537172D01*
X151090553Y-70537171D01*
X150995517Y-70346312D01*
X150867020Y-70176156D01*
X150706917Y-70030203D01*
X150670635Y-69970492D01*
X150672396Y-69900644D01*
X150711640Y-69842837D01*
X150775906Y-69815422D01*
X150790455Y-69814566D01*
X150960978Y-69814566D01*
X150960994Y-69814565D01*
X151020522Y-69808164D01*
X151020529Y-69808162D01*
X151155236Y-69757920D01*
X151155243Y-69757916D01*
X151270337Y-69671756D01*
X151270340Y-69671753D01*
X151356500Y-69556659D01*
X151356504Y-69556652D01*
X151406746Y-69421945D01*
X151406748Y-69421938D01*
X151413149Y-69362410D01*
X151413150Y-69362393D01*
X151413150Y-68664566D01*
X150388428Y-68664566D01*
X150432483Y-68588260D01*
X150463150Y-68473810D01*
X150463150Y-68355322D01*
X150432483Y-68240872D01*
X150388428Y-68164566D01*
X151413150Y-68164566D01*
X151413150Y-67466738D01*
X151413149Y-67466721D01*
X151406748Y-67407193D01*
X151406746Y-67407186D01*
X151356504Y-67272479D01*
X151356500Y-67272472D01*
X151270340Y-67157378D01*
X151270337Y-67157375D01*
X151155243Y-67071215D01*
X151155236Y-67071211D01*
X151020529Y-67020969D01*
X151020522Y-67020967D01*
X150960994Y-67014566D01*
X150263150Y-67014566D01*
X150263150Y-68039288D01*
X150186844Y-67995233D01*
X150072394Y-67964566D01*
X149953906Y-67964566D01*
X149839456Y-67995233D01*
X149763150Y-68039288D01*
X149763150Y-67014566D01*
X149065305Y-67014566D01*
X149005777Y-67020967D01*
X149005770Y-67020969D01*
X148871063Y-67071211D01*
X148871056Y-67071215D01*
X148755962Y-67157375D01*
X148755959Y-67157378D01*
X148669799Y-67272472D01*
X148669795Y-67272479D01*
X148619553Y-67407186D01*
X148619551Y-67407193D01*
X148613150Y-67466721D01*
X138534265Y-67466721D01*
X139115704Y-67262479D01*
X139119611Y-67261180D01*
X140227591Y-66913550D01*
X140231542Y-66912383D01*
X141350653Y-66602365D01*
X141354584Y-66601347D01*
X142483509Y-66329308D01*
X142487549Y-66328406D01*
X143625054Y-66094643D01*
X143629080Y-66093887D01*
X144773755Y-65898688D01*
X144777853Y-65898060D01*
X145928482Y-65741631D01*
X145932631Y-65741138D01*
X147087913Y-65623658D01*
X147091971Y-65623314D01*
X148250551Y-65544920D01*
X148254718Y-65544709D01*
X149415220Y-65505491D01*
X149419408Y-65505421D01*
X150580592Y-65505421D01*
X150584779Y-65505491D01*
G37*
G04 #@! TD.AperFunction*
M02*
